<svg width="445" height="445" viewBox="0 0 445 445" fill="none" xmlns="http://www.w3.org/2000/svg">
<g filter="url(#filter0_d_191_237)">
<circle cx="222.5" cy="218.5" r="172.5" fill="white"/>
</g>
<path fill-rule="evenodd" clip-rule="evenodd" d="M105.902 123.778C88.9583 143.483 77.4892 167.173 72.4853 192.479C70.6641 201.689 77.7245 209.93 87.0818 210.698L127.944 214.052C137.302 214.819 145.327 207.746 148.178 198.8C151.221 189.255 156.162 180.36 162.769 172.677C169.375 164.994 177.43 158.776 186.411 154.337C194.828 150.178 200.62 141.184 198.458 132.047L189.021 92.1481C186.859 83.0114 177.654 77.2654 168.82 80.446C144.549 89.185 122.845 104.074 105.902 123.778Z" fill="#1F93FF"/>
<path fill-rule="evenodd" clip-rule="evenodd" d="M106.796 296.588C102.163 299.594 100.818 305.81 104.126 310.233C109.545 317.478 115.609 324.217 122.242 330.369C126.292 334.125 132.615 333.442 136.092 329.151L170.722 286.422C174.199 282.131 173.482 275.875 169.691 271.858C168.877 270.994 168.082 270.112 167.309 269.21C163.714 265.018 157.568 263.646 152.935 266.652L106.796 296.588Z" fill="#A139F3"/>
<path fill-rule="evenodd" clip-rule="evenodd" d="M141.613 331.766C138.357 336.227 139.317 342.514 143.985 345.465C151.632 350.301 159.701 354.434 168.093 357.815C173.216 359.879 178.879 356.985 180.597 351.737L197.707 299.466C199.425 294.217 196.523 288.628 191.549 286.228C190.48 285.711 189.423 285.17 188.379 284.604C183.525 281.97 177.294 282.88 174.038 287.341L141.613 331.766Z" fill="#3D39F3"/>
<path fill-rule="evenodd" clip-rule="evenodd" d="M140.132 239.745C145.52 238.532 150.809 241.95 152.727 247.129C153.14 248.243 153.578 249.346 154.043 250.439C156.205 255.521 154.709 261.637 149.959 264.456L102.661 292.525C97.9117 295.344 91.7443 293.792 89.2483 288.865C85.1596 280.794 81.8094 272.37 79.2388 263.696C77.6696 258.4 81.0869 253.037 86.4749 251.824L140.132 239.745Z" fill="#EF39F3"/>
<path fill-rule="evenodd" clip-rule="evenodd" d="M81.0471 218.967C75.5271 218.789 70.8733 223.123 71.0637 228.643C71.1588 231.4 71.3299 234.153 71.5768 236.9C72.0712 242.401 77.2257 246.126 82.6812 245.266L139.906 236.248C143.763 235.64 146.361 232.02 146.119 228.124C145.877 224.228 142.85 220.957 138.949 220.831L81.0471 218.967Z" fill="#7BD0FF"/>
<path fill-rule="evenodd" clip-rule="evenodd" d="M251.221 365.476C234.317 368.616 217.041 368.818 200.146 366.117C190.875 364.634 185.591 355.156 188.112 346.112L199.123 306.619C201.644 297.575 211.06 292.497 220.439 292.922C226.143 293.18 231.876 292.787 237.526 291.737C248.771 289.649 259.39 285.016 268.57 278.193C277.749 271.37 285.247 262.538 290.489 252.372C295.731 242.206 298.579 230.976 298.814 219.541C299.049 208.105 296.666 196.768 291.846 186.395C287.027 176.022 279.899 166.889 271.007 159.695C262.115 152.5 251.696 147.434 240.546 144.885C234.944 143.604 229.232 142.976 223.523 142.999C214.134 143.037 204.935 137.577 202.788 128.437L193.41 88.5238C191.263 79.3839 196.932 70.1313 206.256 69.0313C223.249 67.0268 240.501 67.9394 257.262 71.7715C279.562 76.8701 300.401 87.0015 318.184 101.391C335.967 115.78 350.224 134.046 359.863 154.792C369.502 175.537 374.269 198.212 373.798 221.083C373.328 243.954 367.633 266.414 357.149 286.745C346.664 307.077 331.669 324.741 313.309 338.387C294.95 352.033 273.712 361.299 251.221 365.476Z" fill="#B41633"/>
<defs>
<filter id="filter0_d_191_237" x="0" y="0" width="445" height="445" filterUnits="userSpaceOnUse" color-interpolation-filters="sRGB">
<feFlood flood-opacity="0" result="BackgroundImageFix"/>
<feColorMatrix in="SourceAlpha" type="matrix" values="0 0 0 0 0 0 0 0 0 0 0 0 0 0 0 0 0 0 127 0" result="hardAlpha"/>
<feOffset dy="4"/>
<feGaussianBlur stdDeviation="25"/>
<feComposite in2="hardAlpha" operator="out"/>
<feColorMatrix type="matrix" values="0 0 0 0 0 0 0 0 0 0 0 0 0 0 0 0 0 0 0.08 0"/>
<feBlend mode="normal" in2="BackgroundImageFix" result="effect1_dropShadow_191_237"/>
<feBlend mode="normal" in="SourceGraphic" in2="effect1_dropShadow_191_237" result="shape"/>
</filter>
</defs>
</svg>
