<svg width="596" height="47" viewBox="0 0 596 47" fill="none" xmlns="http://www.w3.org/2000/svg">
<path d="M12.8125 31.0312L11.8523 31.3106L11.8537 31.3153L12.8125 31.0312ZM17.3438 35.0938L17.1377 36.0723L17.1411 36.073L17.3438 35.0938ZM43.7812 35.4688H44.7812V34.4688H43.7812V35.4688ZM43.7812 45V46H44.7812V45H43.7812ZM10.7812 44.1875L10.5488 45.1602L10.5589 45.1625L10.7812 44.1875ZM5 41.625L4.38604 42.4144L4.39296 42.4197L5 41.625ZM1.71875 37.2188L0.782825 37.5711L0.78654 37.5807L1.71875 37.2188ZM0.71875 2.0625V1.0625H-0.28125V2.0625H0.71875ZM12.3125 2.0625H13.3125V1.0625H12.3125V2.0625ZM11.3125 26.625C11.3125 28.4689 11.4829 30.0408 11.8523 31.3106L13.7727 30.7519C13.4754 29.7301 13.3125 28.3645 13.3125 26.625H11.3125ZM11.8537 31.3153C12.2309 32.5885 12.8615 33.6558 13.7731 34.4662L15.1019 32.9713C14.5135 32.4483 14.0607 31.724 13.7713 30.7472L11.8537 31.3153ZM13.7731 34.4662C14.6779 35.2704 15.8155 35.7939 17.1377 36.0723L17.5498 34.1152C16.497 33.8936 15.6971 33.5004 15.1019 32.9713L13.7731 34.4662ZM17.1411 36.073C18.4374 36.3412 19.989 36.4688 21.7812 36.4688V34.4688C20.0735 34.4688 18.6668 34.3463 17.5464 34.1145L17.1411 36.073ZM21.7812 36.4688H43.7812V34.4688H21.7812V36.4688ZM42.7812 35.4688V45H44.7812V35.4688H42.7812ZM43.7812 44H19.4062V46H43.7812V44ZM19.4062 44C16.0797 44 13.2838 43.7326 11.0036 43.2125L10.5589 45.1625C13.0287 45.7258 15.9828 46 19.4062 46V44ZM11.0136 43.2149C8.75853 42.676 6.96933 41.871 5.60704 40.8303L4.39296 42.4197C6.03067 43.6707 8.09564 44.574 10.5489 45.1601L11.0136 43.2149ZM5.61394 40.8356C4.25669 39.78 3.27296 38.459 2.65096 36.8568L0.78654 37.5807C1.53954 39.5202 2.74331 41.1367 4.38606 42.4144L5.61394 40.8356ZM2.65463 36.8664C2.04061 35.2355 1.71875 33.2564 1.71875 30.9062H-0.28125C-0.28125 33.4311 0.0635524 35.6604 0.782874 37.5711L2.65463 36.8664ZM1.71875 30.9062V2.0625H-0.28125V30.9062H1.71875ZM0.71875 3.0625H12.3125V1.0625H0.71875V3.0625ZM11.3125 2.0625V26.625H13.3125V2.0625H11.3125ZM89.5 45H88.5V46H89.5V45ZM89.5 40.7812H90.5V39.091L89.0186 39.9048L89.5 40.7812ZM84.7188 42.9375L84.3752 41.9984L84.3714 41.9998L84.7188 42.9375ZM79.4375 44.5312L79.2054 43.5586L79.4375 44.5312ZM73.75 45.5L73.6442 44.5055L73.6325 44.5069L73.75 45.5ZM61.1562 45.1875L60.9565 46.1673L60.9583 46.1677L61.1562 45.1875ZM51.4062 39.2188L50.5607 39.7528L50.5658 39.7606L51.4062 39.2188ZM52.2812 26.1875L53.0522 26.8244L53.0556 26.8203L52.2812 26.1875ZM71.8438 18.5938L71.711 17.6026L71.7105 17.6027L71.8438 18.5938ZM89.5 17.0312L89.5551 18.0297L90.5 17.9776V17.0312H89.5ZM88.9375 14.0312L88.0536 14.4992L88.0596 14.5101L88.9375 14.0312ZM86.875 12.1875L86.3909 13.0625L86.4019 13.0686L86.4131 13.0744L86.875 12.1875ZM82.8125 10.875L82.621 11.8565L82.6232 11.8569L82.8125 10.875ZM70 10.7188L70.1015 11.7136L70.1104 11.7126L70 10.7188ZM64.0625 11.5938L63.8705 10.6124L63.8685 10.6128L64.0625 11.5938ZM54 14.4688H53V15.9295L54.3618 15.401L54 14.4688ZM54 4.15625L53.751 3.18776L53 3.38086V4.15625H54ZM64.5625 2.15625L64.6891 3.14825L64.6995 3.14682L64.5625 2.15625ZM70.5 1.53125L70.5727 2.52866L70.583 2.5278L70.5 1.53125ZM86.2188 2.1875L86.0239 3.16836L86.0304 3.1696L86.2188 2.1875ZM94.0625 4.9375L93.5664 5.80575L93.5699 5.80776L94.0625 4.9375ZM99.2188 9.6875L98.377 10.2273L98.3811 10.2338L99.2188 9.6875ZM101.094 45V46H102.094V45H101.094ZM89.5 25.4062H90.5V24.3682L89.4626 24.4069L89.5 25.4062ZM78.125 26.125L78.0255 25.13L78.0248 25.13L78.125 26.125ZM65.5 28.5625L65.1258 27.6351L65.1201 27.6375L65.5 28.5625ZM62.875 30.0312L63.5258 30.7905L62.875 30.0312ZM61.7812 31.5312L60.8213 31.2513L60.8158 31.2699L60.8111 31.2887L61.7812 31.5312ZM62 34.375L61.1294 34.8671L61.1342 34.8754L61.1391 34.8837L62 34.375ZM63.4062 35.5938L62.9371 36.4769L62.9483 36.4827L63.4062 35.5938ZM81.0938 35.125L81.3879 36.0808L81.399 36.0773L81.0938 35.125ZM85.6562 33.3125L86.0929 34.2122L86.0983 34.2095L85.6562 33.3125ZM89.5 31.0625L90.0755 31.8803L90.5 31.5816V31.0625H89.5ZM90.5 45V40.7812H88.5V45H90.5ZM89.0186 39.9048C87.587 40.6911 86.0397 41.3894 84.3752 41.9984L85.0623 43.8766C86.8145 43.2356 88.4547 42.4964 89.9814 41.6577L89.0186 39.9048ZM84.3714 41.9998C82.7233 42.6102 81.0015 43.1299 79.2054 43.5586L79.6696 45.5039C81.5402 45.0576 83.3392 44.5148 85.0661 43.8752L84.3714 41.9998ZM79.2054 43.5586C77.4155 43.9857 75.5619 44.3016 73.6442 44.5056L73.8558 46.4944C75.8548 46.2817 77.7929 45.9518 79.6696 45.5039L79.2054 43.5586ZM73.6325 44.5069C71.7346 44.7314 69.8155 44.8438 67.875 44.8438V46.8438C69.8929 46.8438 71.8904 46.7269 73.8675 46.4931L73.6325 44.5069ZM67.875 44.8438C65.6259 44.8438 63.4528 44.631 61.3542 44.2073L60.9583 46.1677C63.1931 46.619 65.4991 46.8438 67.875 46.8438V44.8438ZM61.356 44.2077C59.3041 43.7893 57.5039 43.1167 55.944 42.2003L54.931 43.9247C56.7044 44.9666 58.7168 45.7107 60.9565 46.1673L61.356 44.2077ZM55.944 42.2003C54.4086 41.2982 53.1806 40.1253 52.2467 38.6769L50.5658 39.7606C51.6736 41.4789 53.1331 42.8685 54.931 43.9247L55.944 42.2003ZM52.2517 38.6848C51.3732 37.2937 50.9062 35.5513 50.9062 33.4062H48.9062C48.9062 35.8445 49.4393 37.9772 50.5608 39.7527L52.2517 38.6848ZM50.9062 33.4062C50.9062 30.7026 51.6407 28.5331 53.0522 26.8244L51.5103 25.5506C49.7551 27.6753 48.9062 30.3182 48.9062 33.4062H50.9062ZM53.0556 26.8203C54.4927 25.0616 56.7385 23.5629 59.885 22.3728L59.1775 20.5022C55.824 21.7705 53.2364 23.4384 51.5069 25.5547L53.0556 26.8203ZM59.885 22.3728C63.0403 21.1795 67.0641 20.2454 71.977 19.5848L71.7105 17.6027C66.7067 18.2754 62.5222 19.2372 59.1775 20.5022L59.885 22.3728ZM71.9765 19.5849C76.9227 18.9226 82.781 18.4038 89.5551 18.0297L89.4449 16.0328C82.6357 16.4087 76.7231 16.9315 71.711 17.6026L71.9765 19.5849ZM90.5 17.0312V16.125H88.5V17.0312H90.5ZM90.5 16.125C90.5 15.2322 90.2619 14.371 89.8154 13.5524L88.0596 14.5101C88.3631 15.0665 88.5 15.6011 88.5 16.125H90.5ZM89.8213 13.5634C89.32 12.6164 88.4462 11.8783 87.3369 11.3006L86.4131 13.0744C87.3038 13.5383 87.805 14.0294 88.0537 14.4991L89.8213 13.5634ZM87.3591 11.3125C86.2507 10.6994 84.7821 10.2363 83.0018 9.89308L82.6232 11.8569C84.3012 12.1804 85.5409 12.5923 86.3909 13.0625L87.3591 11.3125ZM83.004 9.89351C81.2087 9.5432 78.9509 9.375 76.25 9.375V11.375C78.8824 11.375 80.9996 11.5401 82.621 11.8565L83.004 9.89351ZM76.25 9.375C74.1095 9.375 71.9892 9.49157 69.8896 9.72487L70.1104 11.7126C72.1358 11.4876 74.1822 11.375 76.25 11.375V9.375ZM69.8985 9.72392C67.828 9.93519 65.8186 10.2312 63.8705 10.6124L64.2545 12.5751C66.1398 12.2063 68.0887 11.919 70.1015 11.7136L69.8985 9.72392ZM63.8685 10.6128C61.9458 10.9931 60.1146 11.4375 58.3754 11.9465L58.9371 13.866C60.6146 13.375 62.3875 12.9444 64.2565 12.5747L63.8685 10.6128ZM58.3754 11.9465C56.6446 12.4531 55.065 12.9828 53.6382 13.5365L54.3618 15.401C55.7267 14.8714 57.2512 14.3594 58.9371 13.866L58.3754 11.9465ZM55 14.4688V4.15625H53V14.4688H55ZM54.249 5.12474C55.6848 4.75556 57.3006 4.39515 59.098 4.04394L58.7145 2.08106C56.8869 2.43818 55.2319 2.80694 53.751 3.18776L54.249 5.12474ZM59.098 4.04394C60.8875 3.69427 62.7511 3.3956 64.6891 3.1482L64.4359 1.1643C62.4572 1.4169 60.55 1.7224 58.7145 2.08106L59.098 4.04394ZM64.6995 3.14682C66.6362 2.87898 68.5939 2.67289 70.5727 2.5286L70.4273 0.533898C68.4061 0.681276 66.4055 0.891851 64.4255 1.16568L64.6995 3.14682ZM70.583 2.5278C72.558 2.36322 74.4468 2.28125 76.25 2.28125V0.28125C74.3865 0.28125 72.442 0.365949 70.417 0.534704L70.583 2.5278ZM76.25 2.28125C79.799 2.28125 83.0557 2.57877 86.0239 3.16834L86.4136 1.20666C83.2984 0.587897 79.9093 0.28125 76.25 0.28125V2.28125ZM86.0304 3.1696C88.9878 3.73677 91.4935 4.62127 93.5664 5.80574L94.5586 4.06926C92.2565 2.75373 89.5331 1.8049 86.4071 1.2054L86.0304 3.1696ZM93.5699 5.80776C95.6532 6.98696 97.2453 8.46264 98.377 10.2273L100.061 9.14767C98.7339 7.07903 96.8885 5.38804 94.5551 4.06724L93.5699 5.80776ZM98.3811 10.2338C99.5094 11.9638 100.094 14.0484 100.094 16.5312H102.094C102.094 13.7225 101.428 11.2446 100.056 9.14123L98.3811 10.2338ZM100.094 16.5312V45H102.094V16.5312H100.094ZM101.094 44H89.5V46H101.094V44ZM89.4626 24.4069C84.9914 24.5741 81.1777 24.8147 78.0255 25.13L78.2245 27.12C81.3223 26.8103 85.0919 26.5717 89.5374 26.4056L89.4626 24.4069ZM78.0248 25.13C74.9019 25.4444 72.2832 25.8131 70.177 26.2386L70.573 28.1989C72.5918 27.7911 75.1398 27.4306 78.2252 27.12L78.0248 25.13ZM70.177 26.2386C68.0873 26.6607 66.3948 27.1231 65.1258 27.6352L65.8742 29.4898C66.9802 29.0436 68.5377 28.6101 70.573 28.1989L70.177 26.2386ZM65.1201 27.6375C63.9095 28.1347 62.9236 28.6725 62.2242 29.272L63.5258 30.7905C63.9931 30.39 64.7571 29.9487 65.8799 29.4875L65.1201 27.6375ZM62.2242 29.272C61.5595 29.8418 61.0415 30.496 60.8213 31.2513L62.7412 31.8112C62.8126 31.5665 63.0239 31.2207 63.5258 30.7905L62.2242 29.272ZM60.8111 31.2887C60.6708 31.8501 60.5938 32.3912 60.5938 32.9062H62.5938C62.5938 32.5879 62.6417 32.2124 62.7514 31.7738L60.8111 31.2887ZM60.5938 32.9062C60.5938 33.5957 60.7825 34.2533 61.1294 34.8671L62.8706 33.8829C62.6758 33.5384 62.5938 33.2168 62.5938 32.9062H60.5938ZM61.1391 34.8837C61.5348 35.5535 62.1725 36.0707 62.9371 36.4769L63.8754 34.7106C63.3067 34.4085 63.0068 34.1132 62.8609 33.8663L61.1391 34.8837ZM62.9483 36.4827C63.7535 36.8975 64.7632 37.2023 65.9429 37.4208L66.3071 35.4542C65.2368 35.256 64.434 34.9983 63.8642 34.7048L62.9483 36.4827ZM65.9429 37.4208C67.1495 37.6442 68.6323 37.75 70.375 37.75V35.75C68.701 35.75 67.3505 35.6474 66.3071 35.4542L65.9429 37.4208ZM70.375 37.75C72.3223 37.75 74.2297 37.6002 76.0964 37.2998L75.7786 35.3252C74.0203 35.6081 72.2194 35.75 70.375 35.75V37.75ZM76.0964 37.2998C77.951 37.0013 79.7152 36.5954 81.3878 36.0808L80.7997 34.1692C79.2223 34.6546 77.549 35.0403 75.7786 35.3252L76.0964 37.2998ZM81.399 36.0773C83.0653 35.5432 84.6303 34.9219 86.0928 34.2122L85.2197 32.4128C83.8488 33.0781 82.3722 33.6651 80.7885 34.1727L81.399 36.0773ZM86.0983 34.2095C87.5749 33.4819 88.9019 32.7062 90.0755 31.8803L88.9245 30.2447C87.8481 31.0021 86.6126 31.7264 85.2142 32.4155L86.0983 34.2095ZM90.5 31.0625V25.4062H88.5V31.0625H90.5ZM125.75 2.0625H126.75V1.0625H125.75V2.0625ZM126.156 30.625L125.177 30.8271L125.178 30.8302L126.156 30.625ZM127.656 33.9688L126.867 34.5827L126.874 34.5913L127.656 33.9688ZM130.719 36.125L130.35 37.0546L130.363 37.0595L130.719 36.125ZM140.812 36.2188L140.57 35.2486L140.567 35.2493L140.812 36.2188ZM150.875 31.9688L151.395 32.8232L151.398 32.8212L150.875 31.9688ZM155.062 29L155.701 29.7693L156.062 29.4694V29H155.062ZM155.062 2.0625V1.0625H154.062V2.0625H155.062ZM166.625 2.0625H167.625V1.0625H166.625V2.0625ZM166.625 45V46H167.625V45H166.625ZM155.062 45H154.062V46H155.062V45ZM155.062 39.125H156.062V37.4018L154.566 38.2568L155.062 39.125ZM150.406 41.6562L150.858 42.5485L150.867 42.5438L150.406 41.6562ZM145.156 43.9375L145.495 44.8786L145.504 44.8751L145.156 43.9375ZM139.25 45.5625L139.054 44.5819L139.044 44.5838L139.25 45.5625ZM124.875 45.1562L125.17 44.2008L125.162 44.1984L124.875 45.1562ZM119.062 42.2188L118.43 42.9936L118.437 42.9986L119.062 42.2188ZM115.406 37.5625L114.496 37.9763L114.502 37.9888L115.406 37.5625ZM114.156 2.0625V1.0625H113.156V2.0625H114.156ZM124.75 2.0625V26.25H126.75V2.0625H124.75ZM124.75 26.25C124.75 27.9092 124.89 29.4366 125.177 30.8271L127.136 30.4229C126.881 29.1884 126.75 27.7991 126.75 26.25H124.75ZM125.178 30.8302C125.476 32.254 126.034 33.5123 126.867 34.5827L128.446 33.3548C127.82 32.5502 127.378 31.5793 127.135 30.4198L125.178 30.8302ZM126.874 34.5913C127.732 35.6702 128.908 36.4825 130.35 37.0545L131.088 35.1955C129.904 34.7259 129.039 34.1006 128.439 33.3462L126.874 34.5913ZM130.363 37.0595C131.831 37.6187 133.673 37.875 135.844 37.875V35.875C133.807 35.875 132.232 35.6313 131.075 35.1905L130.363 37.0595ZM135.844 37.875C137.519 37.875 139.258 37.6435 141.058 37.1882L140.567 35.2493C138.908 35.669 137.335 35.875 135.844 35.875V37.875ZM141.055 37.1889C142.858 36.7382 144.637 36.1378 146.393 35.3885L145.607 33.549C143.946 34.2581 142.267 34.8243 140.57 35.2486L141.055 37.1889ZM146.393 35.3885C148.143 34.6411 149.811 33.7862 151.395 32.8232L150.355 31.1143C148.856 32.0263 147.273 32.838 145.607 33.549L146.393 35.3885ZM151.398 32.8212C152.995 31.8415 154.431 30.8246 155.701 29.7693L154.424 28.2307C153.236 29.2171 151.88 30.1793 150.352 31.1163L151.398 32.8212ZM156.062 29V2.0625H154.062V29H156.062ZM155.062 3.0625H166.625V1.0625H155.062V3.0625ZM165.625 2.0625V45H167.625V2.0625H165.625ZM166.625 44H155.062V46H166.625V44ZM156.062 45V39.125H154.062V45H156.062ZM154.566 38.2568C153.121 39.0828 151.581 39.9201 149.946 40.7687L150.867 42.5438C152.523 41.6841 154.087 40.8339 155.559 39.9932L154.566 38.2568ZM149.955 40.7641C148.345 41.5791 146.63 42.3246 144.809 42.9999L145.504 44.8751C147.391 44.1754 149.176 43.4 150.858 42.5484L149.955 40.7641ZM144.818 42.9965C143.014 43.6452 141.093 44.1742 139.054 44.5819L139.446 46.5431C141.574 46.1175 143.591 45.5631 145.495 44.8785L144.818 42.9965ZM139.044 44.5838C137.034 45.006 134.906 45.2188 132.656 45.2188V47.2188C135.032 47.2188 137.299 46.994 139.456 46.5412L139.044 44.5838ZM132.656 45.2188C129.841 45.2188 127.349 44.8742 125.17 44.2008L124.58 46.1117C126.984 46.8549 129.68 47.2188 132.656 47.2188V45.2188ZM125.162 44.1984C122.972 43.5414 121.155 42.6161 119.688 41.4389L118.437 42.9986C120.136 44.363 122.194 45.3961 124.588 46.1141L125.162 44.1984ZM119.695 41.4439C118.225 40.2447 117.1 38.8109 116.311 37.1362L114.502 37.9888C115.421 39.9391 116.734 41.6095 118.43 42.9936L119.695 41.4439ZM116.317 37.1487C115.549 35.4598 115.156 33.5616 115.156 31.4375H113.156C113.156 33.8134 113.597 35.9985 114.496 37.9763L116.317 37.1487ZM115.156 31.4375V2.0625H113.156V31.4375H115.156ZM114.156 3.0625H125.75V1.0625H114.156V3.0625ZM221 45H220V46H221V45ZM220.594 16.5938L219.614 16.7958L219.615 16.799L220.594 16.5938ZM219.062 13.25L218.273 13.8639L218.281 13.8737L218.289 13.8832L219.062 13.25ZM215.969 11.0938L215.6 12.0232L215.609 12.0267L215.618 12.0301L215.969 11.0938ZM205.875 10.9688L206.109 11.941L206.118 11.9389L205.875 10.9688ZM200.719 12.6562L201.102 13.58L200.719 12.6562ZM195.812 15.125L195.298 14.2675L195.293 14.2706L195.812 15.125ZM191.688 18.0625L191.042 17.2986L190.688 17.5982V18.0625H191.688ZM191.688 45V46H192.688V45H191.688ZM180.094 45H179.094V46H180.094V45ZM180.094 2.0625V1.0625H179.094V2.0625H180.094ZM191.688 2.0625H192.688V1.0625H191.688V2.0625ZM191.688 7.9375H190.688V9.66068L192.184 8.80574L191.688 7.9375ZM196.344 5.46875L196.786 6.36548L196.795 6.36091L196.344 5.46875ZM221.844 2.03125L221.546 2.98594L221.556 2.98908L221.844 2.03125ZM227.656 5L227.024 5.77489L227.03 5.77987L227.656 5ZM231.281 9.65625L230.371 10.0701L230.377 10.0825L231.281 9.65625ZM232.562 45V46H233.562V45H232.562ZM222 45V20.9375H220V45H222ZM222 20.9375C222 19.2786 221.86 17.7603 221.572 16.3885L219.615 16.799C219.869 18.0106 220 19.3881 220 20.9375H222ZM221.573 16.3917C221.274 14.942 220.702 13.6741 219.836 12.6168L218.289 13.8832C218.923 14.6593 219.372 15.6205 219.614 16.7958L221.573 16.3917ZM219.852 12.6361C218.988 11.526 217.792 10.7093 216.32 10.1574L215.618 12.0301C216.813 12.4782 217.678 13.099 218.273 13.8639L219.852 12.6361ZM216.338 10.1643C214.866 9.58024 213.03 9.3125 210.875 9.3125V11.3125C212.887 11.3125 214.447 11.5656 215.6 12.0232L216.338 10.1643ZM210.875 9.3125C209.199 9.3125 207.451 9.54397 205.632 9.99861L206.118 11.9389C207.799 11.5185 209.384 11.3125 210.875 11.3125V9.3125ZM205.641 9.99658C203.859 10.426 202.09 11.005 200.336 11.7325L201.102 13.58C202.764 12.8909 204.433 12.3449 206.109 11.9409L205.641 9.99658ZM200.336 11.7325C198.583 12.4594 196.903 13.3043 195.298 14.2675L196.327 15.9825C197.847 15.0707 199.438 14.2698 201.102 13.58L200.336 11.7325ZM195.293 14.2706C193.713 15.2313 192.295 16.2401 191.042 17.2986L192.333 18.8264C193.497 17.8432 194.829 16.8937 196.332 15.9794L195.293 14.2706ZM190.688 18.0625V45H192.688V18.0625H190.688ZM191.688 44H180.094V46H191.688V44ZM181.094 45V2.0625H179.094V45H181.094ZM180.094 3.0625H191.688V1.0625H180.094V3.0625ZM190.688 2.0625V7.9375H192.688V2.0625H190.688ZM192.184 8.80574C193.623 7.9833 195.157 7.16981 196.786 6.36544L195.901 4.57206C194.239 5.39269 192.669 6.22504 191.191 7.06926L192.184 8.80574ZM196.795 6.36091C198.402 5.54739 200.114 4.81344 201.932 4.15977L201.255 2.27773C199.365 2.9574 197.577 3.72344 195.892 4.57659L196.795 6.36091ZM201.932 4.15977C203.736 3.51101 205.657 2.98208 207.696 2.57433L207.304 0.613169C205.176 1.03876 203.159 1.59315 201.255 2.27773L201.932 4.15977ZM207.696 2.57433C209.709 2.17166 211.841 1.96875 214.094 1.96875V-0.03125C211.721 -0.03125 209.457 0.182509 207.304 0.613169L207.696 2.57433ZM214.094 1.96875C216.91 1.96875 219.39 2.31332 221.546 2.98589L222.142 1.07661C219.756 0.332508 217.069 -0.03125 214.094 -0.03125V1.96875ZM221.556 2.98908C223.743 3.64519 225.558 4.57917 227.024 5.77487L228.288 4.22513C226.587 2.8375 224.527 1.79231 222.131 1.07342L221.556 2.98908ZM227.03 5.77987C228.493 6.95347 229.603 8.38054 230.371 10.0701L232.192 9.24245C231.293 7.26529 229.987 5.58819 228.282 4.22013L227.03 5.77987ZM230.377 10.0825C231.161 11.7462 231.562 13.6292 231.562 15.75H233.562C233.562 13.3708 233.11 11.1913 232.186 9.22995L230.377 10.0825ZM231.562 15.75V45H233.562V15.75H231.562ZM232.562 44H221V46H232.562V44ZM293.156 42.0625L293.541 42.9856L294.156 42.7292V42.0625H293.156ZM283.906 45.0312L283.693 44.0541L283.681 44.0569L283.906 45.0312ZM278.75 45.875L278.647 44.8803L278.646 44.8804L278.75 45.875ZM260.875 44.75L260.627 45.7188L260.629 45.7192L260.875 44.75ZM251.375 40.5312L250.793 41.3442L250.8 41.3493L251.375 40.5312ZM245.188 33.4688L244.301 33.9315L244.302 33.9342L245.188 33.4688ZM245.188 13.6875L246.073 14.153L246.074 14.1503L245.188 13.6875ZM251.375 6.625L251.953 7.4409L251.954 7.44002L251.375 6.625ZM260.875 2.375L260.629 1.40583L260.627 1.40617L260.875 2.375ZM278.75 1.25L278.646 2.24457L278.647 2.24469L278.75 1.25ZM283.906 2.09375L283.681 3.06821L283.693 3.07081L283.906 2.09375ZM293.156 5.0625H294.156V4.39583L293.541 4.13942L293.156 5.0625ZM293.156 15.5L292.678 16.3785L294.156 17.1822V15.5H293.156ZM289.406 13.5938L288.965 14.4911L288.976 14.4966L289.406 13.5938ZM285.062 11.875L284.75 12.825L284.761 12.8286L285.062 11.875ZM279.844 10.625L279.671 11.6099L279.681 11.6117L279.844 10.625ZM264.344 11.25L264.047 10.2949L264.045 10.2957L264.344 11.25ZM255.562 18.5625L256.502 18.9042L256.504 18.9004L255.562 18.5625ZM255.062 26.9688L254.086 27.1857L254.087 27.1896L255.062 26.9688ZM256.312 30.125L255.449 30.6289L255.453 30.6368L256.312 30.125ZM266.969 36.4375L266.781 37.4198L266.794 37.4221L266.969 36.4375ZM279.844 36.5L279.996 37.4884L280.006 37.4867L279.844 36.5ZM289.406 33.5938L289.836 34.4967L289.848 34.491L289.406 33.5938ZM293.156 31.625H294.156V29.9168L292.667 30.753L293.156 31.625ZM292.772 41.1394C291.295 41.7547 289.809 42.3082 288.313 42.8L288.937 44.7C290.483 44.1918 292.017 43.6203 293.541 42.9856L292.772 41.1394ZM288.313 42.8C286.826 43.2889 285.286 43.7071 283.693 44.0542L284.119 46.0083C285.776 45.6471 287.383 45.2111 288.937 44.7L288.313 42.8ZM283.681 44.0569C282.1 44.4218 280.422 44.6967 278.647 44.8803L278.853 46.8697C280.703 46.6783 282.462 46.3907 284.131 46.0056L283.681 44.0569ZM278.646 44.8804C276.893 45.0638 275.001 45.1562 272.969 45.1562V47.1562C275.061 47.1562 277.023 47.0612 278.854 46.8696L278.646 44.8804ZM272.969 45.1562C268.665 45.1562 264.717 44.6951 261.121 43.7808L260.629 45.7192C264.408 46.6799 268.523 47.1562 272.969 47.1562V45.1562ZM261.123 43.7812C257.555 42.8689 254.503 41.5083 251.95 39.7132L250.8 41.3493C253.58 43.3042 256.862 44.7561 260.627 45.7188L261.123 43.7812ZM251.957 39.7184C249.435 37.9109 247.477 35.6746 246.073 33.0033L244.302 33.9342C245.856 36.8879 248.023 39.3599 250.793 41.3441L251.957 39.7184ZM246.074 33.006C244.682 30.3391 243.969 27.2011 243.969 23.5625H241.969C241.969 27.4656 242.735 30.9317 244.301 33.9315L246.074 33.006ZM243.969 23.5625C243.969 19.9237 244.682 16.7974 246.073 14.153L244.302 13.222C242.735 16.2026 241.969 19.6597 241.969 23.5625H243.969ZM246.074 14.1503C247.479 11.4595 249.435 9.22567 251.953 7.4409L250.797 5.8091C248.024 7.77433 245.855 10.2488 244.301 13.2247L246.074 14.1503ZM251.954 7.44002C254.507 5.62564 257.557 4.25559 261.123 3.34383L260.627 1.40617C256.86 2.36941 253.577 3.83269 250.796 5.80998L251.954 7.44002ZM261.121 3.34417C264.717 2.42993 268.665 1.96875 272.969 1.96875V-0.03125C268.523 -0.03125 264.408 0.44507 260.629 1.40583L261.121 3.34417ZM272.969 1.96875C275.001 1.96875 276.893 2.06116 278.646 2.24457L278.854 0.255431C277.023 0.0638394 275.061 -0.03125 272.969 -0.03125V1.96875ZM278.647 2.24469C280.422 2.42833 282.1 2.70322 283.681 3.06814L284.131 1.11936C282.462 0.734278 280.703 0.446668 278.853 0.255308L278.647 2.24469ZM283.693 3.07081C285.286 3.41795 286.826 3.83611 288.313 4.32498L288.937 2.42502C287.383 1.91389 285.776 1.47789 284.119 1.11669L283.693 3.07081ZM288.313 4.32498C289.809 4.81682 291.295 5.37032 292.772 5.98558L293.541 4.13942C292.017 3.50468 290.483 2.93318 288.937 2.42502L288.313 4.32498ZM292.156 5.0625V15.5H294.156V5.0625H292.156ZM293.634 14.6215C292.43 13.9665 291.164 13.323 289.836 12.6909L288.976 14.4966C290.274 15.1145 291.508 15.7418 292.678 16.3785L293.634 14.6215ZM289.848 12.6965C288.484 12.0256 286.989 11.4346 285.364 10.9214L284.761 12.8286C286.303 13.3154 287.703 13.8702 288.965 14.491L289.848 12.6965ZM285.375 10.9251C283.736 10.3859 281.946 9.95795 280.006 9.63831L279.681 11.6117C281.534 11.917 283.222 12.3224 284.75 12.8249L285.375 10.9251ZM280.017 9.64011C278.052 9.29472 275.858 9.125 273.438 9.125V11.125C275.767 11.125 277.843 11.2886 279.671 11.6099L280.017 9.64011ZM273.438 9.125C269.731 9.125 266.592 9.5052 264.047 10.2949L264.64 12.2051C266.929 11.4948 269.852 11.125 273.438 11.125V9.125ZM264.045 10.2957C261.557 11.0744 259.507 12.131 257.938 13.4954L259.25 15.0046C260.556 13.869 262.338 12.9256 264.642 12.2043L264.045 10.2957ZM257.938 13.4954C256.385 14.8458 255.268 16.4224 254.621 18.2246L256.504 18.9004C257.023 17.4526 257.928 16.1542 259.25 15.0046L257.938 13.4954ZM254.623 18.2208C253.999 19.9359 253.688 21.7183 253.688 23.5625H255.688C255.688 21.9483 255.959 20.3974 256.502 18.9042L254.623 18.2208ZM253.688 23.5625C253.688 24.7817 253.821 25.9899 254.086 27.1857L256.039 26.7518C255.804 25.6976 255.688 24.6349 255.688 23.5625H253.688ZM254.087 27.1896C254.36 28.3955 254.815 29.5428 255.449 30.6289L257.176 29.6211C256.643 28.7072 256.265 27.7504 256.038 26.7479L254.087 27.1896ZM255.453 30.6368C256.094 31.7124 256.923 32.6965 257.929 33.5912L259.258 32.0963C258.39 31.3243 257.697 30.4959 257.172 29.6132L255.453 30.6368ZM257.929 33.5912C258.961 34.5083 260.223 35.28 261.697 35.9177L262.491 34.0823C261.173 33.5117 260.101 32.8459 259.258 32.0963L257.929 33.5912ZM261.697 35.9177C263.173 36.557 264.871 37.055 266.781 37.4197L267.156 35.4553C265.358 35.1117 263.806 34.6513 262.491 34.0823L261.697 35.9177ZM266.794 37.4221C268.74 37.768 270.957 37.9375 273.438 37.9375V35.9375C271.043 35.9375 268.948 35.7736 267.144 35.4529L266.794 37.4221ZM273.438 37.9375C275.852 37.9375 278.039 37.7893 279.996 37.4884L279.692 35.5116C277.856 35.794 275.773 35.9375 273.438 35.9375V37.9375ZM280.006 37.4867C281.942 37.1676 283.729 36.7512 285.364 36.2348L284.761 34.3277C283.23 34.8113 281.537 35.2074 279.681 35.5133L280.006 37.4867ZM285.364 36.2348C286.985 35.7228 288.477 35.144 289.836 34.4966L288.976 32.6909C287.711 33.2935 286.307 33.8397 284.761 34.3277L285.364 36.2348ZM289.848 34.491C291.175 33.8378 292.441 33.1731 293.646 32.497L292.667 30.753C291.496 31.4102 290.262 32.0581 288.965 32.6965L289.848 34.491ZM292.156 31.625V42.0625H294.156V31.625H292.156ZM345.062 45H344.062V46H345.062V45ZM345.062 27.0938H346.062V26.0938H345.062V27.0938ZM315.562 27.0938V26.0938H314.562V27.0938H315.562ZM315.562 45V46H316.562V45H315.562ZM303.969 45H302.969V46H303.969V45ZM303.969 2.0625V1.0625H302.969V2.0625H303.969ZM315.562 2.0625H316.562V1.0625H315.562V2.0625ZM315.562 17.6875H314.562V18.6875H315.562V17.6875ZM345.062 17.6875V18.6875H346.062V17.6875H345.062ZM345.062 2.0625V1.0625H344.062V2.0625H345.062ZM356.656 2.0625H357.656V1.0625H356.656V2.0625ZM356.656 45V46H357.656V45H356.656ZM346.062 45V27.0938H344.062V45H346.062ZM345.062 26.0938H315.562V28.0938H345.062V26.0938ZM314.562 27.0938V45H316.562V27.0938H314.562ZM315.562 44H303.969V46H315.562V44ZM304.969 45V2.0625H302.969V45H304.969ZM303.969 3.0625H315.562V1.0625H303.969V3.0625ZM314.562 2.0625V17.6875H316.562V2.0625H314.562ZM315.562 18.6875H345.062V16.6875H315.562V18.6875ZM346.062 17.6875V2.0625H344.062V17.6875H346.062ZM345.062 3.0625H356.656V1.0625H345.062V3.0625ZM355.656 2.0625V45H357.656V2.0625H355.656ZM356.656 44H345.062V46H356.656V44ZM417.406 22.6562L418.35 22.9856L418.352 22.9822L417.406 22.6562ZM414.375 27.3125L415.06 28.0413L415.06 28.041L414.375 27.3125ZM381.688 31.4375V30.4375H380.688V31.4375H381.688ZM381.688 45V46H382.688V45H381.688ZM370.094 45H369.094V46H370.094V45ZM370.094 2.0625V1.0625H369.094V2.0625H370.094ZM409 3.15625L408.686 4.10586L408.695 4.10847L409 3.15625ZM414.375 6.1875L413.685 6.91086L413.69 6.9162L413.696 6.92146L414.375 6.1875ZM406.188 14.3438L405.25 14.6919L405.256 14.7083L405.263 14.7245L406.188 14.3438ZM404.812 12.5625L404.234 13.378L404.812 12.5625ZM402.281 11.5625L402.066 12.5391L402.076 12.5412L402.085 12.5431L402.281 11.5625ZM381.688 11.2188V10.2188H380.688V11.2188H381.688ZM381.688 22.2812H380.688V23.2812H381.688V22.2812ZM402.281 22.0312L402.439 23.0187L402.449 23.0172L402.458 23.0154L402.281 22.0312ZM404.812 21.125L405.355 21.9653L405.364 21.9592L405.373 21.9529L404.812 21.125ZM406.188 19.4375L405.267 19.0469L405.262 19.0589L405.257 19.071L406.188 19.4375ZM417.344 16.7188C417.344 18.7667 417.046 20.6343 416.461 22.3303L418.352 22.9822C419.017 21.0532 419.344 18.9624 419.344 16.7188H417.344ZM416.462 22.3269C415.891 23.965 414.97 25.3806 413.69 26.584L415.06 28.041C416.572 26.6194 417.672 24.9308 418.35 22.9856L416.462 22.3269ZM413.69 26.5837C412.443 27.7552 410.788 28.7003 408.686 29.3942L409.314 31.2933C411.629 30.5289 413.557 29.4532 415.06 28.0413L413.69 26.5837ZM408.686 29.3942C406.608 30.0803 404.033 30.4375 400.938 30.4375V32.4375C404.175 32.4375 406.975 32.0655 409.314 31.2933L408.686 29.3942ZM400.938 30.4375H381.688V32.4375H400.938V30.4375ZM380.688 31.4375V45H382.688V31.4375H380.688ZM381.688 44H370.094V46H381.688V44ZM371.094 45V2.0625H369.094V45H371.094ZM370.094 3.0625H400.938V1.0625H370.094V3.0625ZM400.938 3.0625C404.033 3.0625 406.608 3.41969 408.686 4.10583L409.314 2.20667C406.975 1.43448 404.175 1.0625 400.938 1.0625V3.0625ZM408.695 4.10847C410.79 4.7806 412.44 5.72322 413.685 6.91086L415.065 5.46414C413.56 4.02678 411.627 2.94857 409.305 2.20403L408.695 4.10847ZM413.696 6.92146C414.972 8.10224 415.891 9.50508 416.462 11.1419L418.35 10.4831C417.671 8.53659 416.57 6.85609 415.054 5.45354L413.696 6.92146ZM416.462 11.1419C417.046 12.8148 417.344 14.6706 417.344 16.7188H419.344C419.344 14.4753 419.017 12.3936 418.35 10.4831L416.462 11.1419ZM407.625 16.9062C407.625 15.8136 407.466 14.8229 407.112 13.963L405.263 14.7245C405.492 15.2813 405.625 15.9989 405.625 16.9062H407.625ZM407.125 13.9956C406.783 13.0745 406.198 12.3193 405.391 11.747L404.234 13.378C404.719 13.7224 405.051 14.1546 405.25 14.6919L407.125 13.9956ZM405.391 11.747C404.599 11.1847 403.612 10.8089 402.477 10.5819L402.085 12.5431C403.034 12.7328 403.734 13.0237 404.234 13.378L405.391 11.747ZM402.496 10.5859C401.361 10.3361 400.003 10.2188 398.438 10.2188V12.2188C399.914 12.2188 401.118 12.3305 402.066 12.5391L402.496 10.5859ZM398.438 10.2188H381.688V12.2188H398.438V10.2188ZM380.688 11.2188V22.2812H382.688V11.2188H380.688ZM381.688 23.2812H398.438V21.2812H381.688V23.2812ZM398.438 23.2812C399.99 23.2812 401.328 23.1965 402.439 23.0187L402.123 21.0438C401.151 21.1994 399.926 21.2812 398.438 21.2812V23.2812ZM402.458 23.0154C403.584 22.8128 404.564 22.4751 405.355 21.9653L404.27 20.2847C403.769 20.6083 403.062 20.8747 402.104 21.0471L402.458 23.0154ZM405.373 21.9529C406.176 21.409 406.769 20.6898 407.118 19.804L405.257 19.071C405.064 19.5602 404.74 19.966 404.252 20.2971L405.373 21.9529ZM407.108 19.8281C407.467 18.9828 407.625 17.9975 407.625 16.9062H405.625C405.625 17.815 405.492 18.5172 405.267 19.0469L407.108 19.8281ZM464.375 45H463.375V46H464.375V45ZM464.375 40.7812H465.375V39.091L463.894 39.9048L464.375 40.7812ZM459.594 42.9375L459.25 41.9984L459.246 41.9998L459.594 42.9375ZM454.312 44.5312L454.08 43.5586L454.312 44.5312ZM448.625 45.5L448.519 44.5055L448.508 44.5069L448.625 45.5ZM436.031 45.1875L435.831 46.1673L435.833 46.1677L436.031 45.1875ZM426.281 39.2188L425.436 39.7528L425.441 39.7606L426.281 39.2188ZM427.156 26.1875L427.927 26.8244L427.931 26.8203L427.156 26.1875ZM446.719 18.5938L446.586 17.6026L446.586 17.6027L446.719 18.5938ZM464.375 17.0312L464.43 18.0297L465.375 17.9776V17.0312H464.375ZM463.812 14.0312L462.929 14.4992L462.935 14.5101L463.812 14.0312ZM461.75 12.1875L461.266 13.0625L461.277 13.0686L461.288 13.0744L461.75 12.1875ZM457.688 10.875L457.496 11.8565L457.498 11.8569L457.688 10.875ZM444.875 10.7188L444.977 11.7136L444.985 11.7126L444.875 10.7188ZM438.938 11.5938L438.745 10.6124L438.743 10.6128L438.938 11.5938ZM428.875 14.4688H427.875V15.9295L429.237 15.401L428.875 14.4688ZM428.875 4.15625L428.626 3.18776L427.875 3.38086V4.15625H428.875ZM439.438 2.15625L439.564 3.14825L439.574 3.14682L439.438 2.15625ZM445.375 1.53125L445.448 2.52866L445.458 2.5278L445.375 1.53125ZM461.094 2.1875L460.899 3.16836L460.905 3.1696L461.094 2.1875ZM468.938 4.9375L468.441 5.80575L468.445 5.80776L468.938 4.9375ZM474.094 9.6875L473.252 10.2273L473.256 10.2338L474.094 9.6875ZM475.969 45V46H476.969V45H475.969ZM464.375 25.4062H465.375V24.3682L464.338 24.4069L464.375 25.4062ZM453 26.125L452.9 25.13L452.9 25.13L453 26.125ZM440.375 28.5625L440.001 27.6351L439.995 27.6375L440.375 28.5625ZM437.75 30.0312L438.401 30.7905L437.75 30.0312ZM436.656 31.5312L435.696 31.2513L435.691 31.2699L435.686 31.2887L436.656 31.5312ZM436.875 34.375L436.004 34.8671L436.009 34.8754L436.014 34.8837L436.875 34.375ZM438.281 35.5938L437.812 36.4769L437.823 36.4827L438.281 35.5938ZM455.969 35.125L456.263 36.0808L456.274 36.0773L455.969 35.125ZM460.531 33.3125L460.968 34.2122L460.973 34.2095L460.531 33.3125ZM464.375 31.0625L464.951 31.8803L465.375 31.5816V31.0625H464.375ZM465.375 45V40.7812H463.375V45H465.375ZM463.894 39.9048C462.462 40.6911 460.915 41.3894 459.25 41.9984L459.937 43.8766C461.689 43.2356 463.33 42.4964 464.856 41.6577L463.894 39.9048ZM459.246 41.9998C457.598 42.6102 455.876 43.1299 454.08 43.5586L454.545 45.5039C456.415 45.0576 458.214 44.5148 459.941 43.8752L459.246 41.9998ZM454.08 43.5586C452.29 43.9857 450.437 44.3016 448.519 44.5056L448.731 46.4944C450.73 46.2817 452.668 45.9518 454.545 45.5039L454.08 43.5586ZM448.508 44.5069C446.61 44.7314 444.69 44.8438 442.75 44.8438V46.8438C444.768 46.8438 446.765 46.7269 448.742 46.4931L448.508 44.5069ZM442.75 44.8438C440.501 44.8438 438.328 44.631 436.229 44.2073L435.833 46.1677C438.068 46.619 440.374 46.8438 442.75 46.8438V44.8438ZM436.231 44.2077C434.179 43.7893 432.379 43.1167 430.819 42.2003L429.806 43.9247C431.579 44.9666 433.592 45.7107 435.831 46.1673L436.231 44.2077ZM430.819 42.2003C429.284 41.2982 428.056 40.1253 427.122 38.6769L425.441 39.7606C426.549 41.4789 428.008 42.8685 429.806 43.9247L430.819 42.2003ZM427.127 38.6848C426.248 37.2937 425.781 35.5513 425.781 33.4062H423.781C423.781 35.8445 424.314 37.9772 425.436 39.7527L427.127 38.6848ZM425.781 33.4062C425.781 30.7026 426.516 28.5331 427.927 26.8244L426.385 25.5506C424.63 27.6753 423.781 30.3182 423.781 33.4062H425.781ZM427.931 26.8203C429.368 25.0616 431.613 23.5629 434.76 22.3728L434.052 20.5022C430.699 21.7705 428.111 23.4384 426.382 25.5547L427.931 26.8203ZM434.76 22.3728C437.915 21.1795 441.939 20.2454 446.852 19.5848L446.586 17.6027C441.582 18.2754 437.397 19.2372 434.052 20.5022L434.76 22.3728ZM446.851 19.5849C451.798 18.9226 457.656 18.4038 464.43 18.0297L464.32 16.0328C457.511 16.4087 451.598 16.9315 446.586 17.6026L446.851 19.5849ZM465.375 17.0312V16.125H463.375V17.0312H465.375ZM465.375 16.125C465.375 15.2322 465.137 14.371 464.69 13.5524L462.935 14.5101C463.238 15.0665 463.375 15.6011 463.375 16.125H465.375ZM464.696 13.5634C464.195 12.6164 463.321 11.8783 462.212 11.3006L461.288 13.0744C462.179 13.5383 462.68 14.0294 462.929 14.4991L464.696 13.5634ZM462.234 11.3125C461.126 10.6994 459.657 10.2363 457.877 9.89308L457.498 11.8569C459.176 12.1804 460.416 12.5923 461.266 13.0625L462.234 11.3125ZM457.879 9.89351C456.084 9.5432 453.826 9.375 451.125 9.375V11.375C453.757 11.375 455.875 11.5401 457.496 11.8565L457.879 9.89351ZM451.125 9.375C448.984 9.375 446.864 9.49157 444.765 9.72487L444.985 11.7126C447.011 11.4876 449.057 11.375 451.125 11.375V9.375ZM444.773 9.72392C442.703 9.93519 440.694 10.2312 438.745 10.6124L439.13 12.5751C441.015 12.2063 442.964 11.919 444.977 11.7136L444.773 9.72392ZM438.743 10.6128C436.821 10.9931 434.99 11.4375 433.25 11.9465L433.812 13.866C435.49 13.375 437.263 12.9444 439.132 12.5747L438.743 10.6128ZM433.25 11.9465C431.52 12.4531 429.94 12.9828 428.513 13.5365L429.237 15.401C430.602 14.8714 432.126 14.3594 433.812 13.866L433.25 11.9465ZM429.875 14.4688V4.15625H427.875V14.4688H429.875ZM429.124 5.12474C430.56 4.75556 432.176 4.39515 433.973 4.04394L433.589 2.08106C431.762 2.43818 430.107 2.80694 428.626 3.18776L429.124 5.12474ZM433.973 4.04394C435.763 3.69427 437.626 3.3956 439.564 3.1482L439.311 1.1643C437.332 1.4169 435.425 1.7224 433.589 2.08106L433.973 4.04394ZM439.574 3.14682C441.511 2.87898 443.469 2.67289 445.448 2.5286L445.302 0.533898C443.281 0.681276 441.28 0.891851 439.301 1.16568L439.574 3.14682ZM445.458 2.5278C447.433 2.36322 449.322 2.28125 451.125 2.28125V0.28125C449.262 0.28125 447.317 0.365949 445.292 0.534704L445.458 2.5278ZM451.125 2.28125C454.674 2.28125 457.931 2.57877 460.899 3.16834L461.289 1.20666C458.173 0.587897 454.784 0.28125 451.125 0.28125V2.28125ZM460.905 3.1696C463.863 3.73677 466.369 4.62127 468.441 5.80574L469.434 4.06926C467.131 2.75373 464.408 1.8049 461.282 1.2054L460.905 3.1696ZM468.445 5.80776C470.528 6.98696 472.12 8.46264 473.252 10.2273L474.936 9.14767C473.609 7.07903 471.763 5.38804 469.43 4.06724L468.445 5.80776ZM473.256 10.2338C474.384 11.9638 474.969 14.0484 474.969 16.5312H476.969C476.969 13.7225 476.303 11.2446 474.931 9.14123L473.256 10.2338ZM474.969 16.5312V45H476.969V16.5312H474.969ZM475.969 44H464.375V46H475.969V44ZM464.338 24.4069C459.866 24.5741 456.053 24.8147 452.9 25.13L453.1 27.12C456.197 26.8103 459.967 26.5717 464.412 26.4056L464.338 24.4069ZM452.9 25.13C449.777 25.4444 447.158 25.8131 445.052 26.2386L445.448 28.1989C447.467 27.7911 450.015 27.4306 453.1 27.12L452.9 25.13ZM445.052 26.2386C442.962 26.6607 441.27 27.1231 440.001 27.6352L440.749 29.4898C441.855 29.0436 443.413 28.6101 445.448 28.1989L445.052 26.2386ZM439.995 27.6375C438.785 28.1347 437.799 28.6725 437.099 29.272L438.401 30.7905C438.868 30.39 439.632 29.9487 440.755 29.4875L439.995 27.6375ZM437.099 29.272C436.434 29.8418 435.917 30.496 435.696 31.2513L437.616 31.8112C437.688 31.5665 437.899 31.2207 438.401 30.7905L437.099 29.272ZM435.686 31.2887C435.546 31.8501 435.469 32.3912 435.469 32.9062H437.469C437.469 32.5879 437.517 32.2124 437.626 31.7738L435.686 31.2887ZM435.469 32.9062C435.469 33.5957 435.658 34.2533 436.004 34.8671L437.746 33.8829C437.551 33.5384 437.469 33.2168 437.469 32.9062H435.469ZM436.014 34.8837C436.41 35.5535 437.047 36.0707 437.812 36.4769L438.75 34.7106C438.182 34.4085 437.882 34.1132 437.736 33.8663L436.014 34.8837ZM437.823 36.4827C438.628 36.8975 439.638 37.2023 440.818 37.4208L441.182 35.4542C440.112 35.256 439.309 34.9983 438.739 34.7048L437.823 36.4827ZM440.818 37.4208C442.025 37.6442 443.507 37.75 445.25 37.75V35.75C443.576 35.75 442.225 35.6474 441.182 35.4542L440.818 37.4208ZM445.25 37.75C447.197 37.75 449.105 37.6002 450.971 37.2998L450.654 35.3252C448.895 35.6081 447.094 35.75 445.25 35.75V37.75ZM450.971 37.2998C452.826 37.0013 454.59 36.5954 456.263 36.0808L455.675 34.1692C454.097 34.6546 452.424 35.0403 450.654 35.3252L450.971 37.2998ZM456.274 36.0773C457.94 35.5432 459.505 34.9219 460.968 34.2122L460.095 32.4128C458.724 33.0781 457.247 33.6651 455.664 34.1727L456.274 36.0773ZM460.973 34.2095C462.45 33.4819 463.777 32.7062 464.951 31.8803L463.799 30.2447C462.723 31.0021 461.488 31.7264 460.089 32.4155L460.973 34.2095ZM465.375 31.0625V25.4062H463.375V31.0625H465.375ZM540.906 30.8438L541.868 31.1172L541.869 31.1148L540.906 30.8438ZM538.344 36.4062L537.523 35.8342L537.518 35.8416L538.344 36.4062ZM534.406 40.4375L533.824 39.6245L533.819 39.6283L534.406 40.4375ZM529.312 43.0938L528.977 42.1515L529.312 43.0938ZM523.25 44.5625L523.383 45.5536L523.393 45.5523L523.25 44.5625ZM489.219 45H488.219V46H489.219V45ZM489.219 2.0625V1.0625H488.219V2.0625H489.219ZM523.188 2.53125L523.045 3.52105L523.054 3.52231L523.188 2.53125ZM529.25 3.96875L528.915 4.91097L528.918 4.91212L529.25 3.96875ZM534.406 6.625L533.824 7.43802L533.831 7.44319L534.406 6.625ZM538.344 10.6562L537.515 11.2159L537.519 11.2221L537.523 11.2283L538.344 10.6562ZM529.312 18.125L528.366 18.449L528.37 18.4605L529.312 18.125ZM526.75 14.375L526.099 15.1343L526.106 15.1405L526.114 15.1465L526.75 14.375ZM522.156 12.1562L521.901 13.1232L521.911 13.1258L522.156 12.1562ZM500.812 11.4062V10.4062H499.812V11.4062H500.812ZM500.812 35.6562H499.812V36.6562H500.812V35.6562ZM522.156 34.9375L522.401 35.9071L522.411 35.9044L522.156 34.9375ZM526.75 32.6875L527.401 33.4468L527.402 33.4458L526.75 32.6875ZM529.312 28.875L528.37 28.5395L528.366 28.551L529.312 28.875ZM540.812 23.5C540.812 26.1788 540.518 28.5328 539.944 30.5727L541.869 31.1148C542.503 28.863 542.812 26.3212 542.812 23.5H540.812ZM539.944 30.5703C539.366 32.6038 538.556 34.354 537.523 35.8342L539.164 36.9783C540.34 35.2919 541.238 33.3337 541.868 31.1172L539.944 30.5703ZM537.518 35.8416C536.5 37.3297 535.27 38.5891 533.824 39.6245L534.989 41.2505C536.626 40.0776 538.021 38.6494 539.169 36.9709L537.518 35.8416ZM533.819 39.6283C532.38 40.6731 530.768 41.515 528.977 42.1515L529.648 44.036C531.607 43.3391 533.391 42.4103 534.994 41.2467L533.819 39.6283ZM528.977 42.1515C527.171 42.794 525.215 43.2688 523.107 43.5727L523.393 45.5523C525.618 45.2312 527.704 44.7269 529.648 44.036L528.977 42.1515ZM523.117 43.5714C520.997 43.8567 518.782 44 516.469 44V46C518.864 46 521.169 45.8516 523.383 45.5536L523.117 43.5714ZM516.469 44H489.219V46H516.469V44ZM490.219 45V2.0625H488.219V45H490.219ZM489.219 3.0625H516.406V1.0625H489.219V3.0625ZM516.406 3.0625C518.716 3.0625 520.929 3.21582 523.045 3.52101L523.33 1.54149C521.113 1.22168 518.805 1.0625 516.406 1.0625V3.0625ZM523.054 3.52231C525.159 3.80562 527.111 4.26967 528.915 4.91096L529.585 3.02654C527.639 2.33449 525.55 1.84021 523.321 1.54019L523.054 3.52231ZM528.918 4.91212C530.73 5.54928 532.364 6.39212 533.824 7.43799L534.989 5.81201C533.365 4.64955 531.562 3.72156 529.582 3.02538L528.918 4.91212ZM533.831 7.44319C535.271 8.45459 536.498 9.70984 537.515 11.2159L539.172 10.0966C538.023 8.39432 536.625 6.96207 534.981 5.80681L533.831 7.44319ZM537.523 11.2283C538.556 12.7085 539.366 14.4587 539.944 16.4922L541.868 15.9453C541.238 13.7288 540.34 11.7706 539.164 10.0842L537.523 11.2283ZM539.944 16.4922C540.518 18.5103 540.812 20.8425 540.812 23.5H542.812C542.812 20.6991 542.503 18.1772 541.868 15.9453L539.944 16.4922ZM531.125 23.5C531.125 21.3534 530.844 19.4432 530.255 17.7895L528.37 18.4605C528.865 19.8485 529.125 21.5216 529.125 23.5H531.125ZM530.259 17.801C529.681 16.1134 528.723 14.7056 527.386 13.6035L526.114 15.1465C527.152 16.0027 527.903 17.095 528.366 18.449L530.259 17.801ZM527.401 13.6157C526.089 12.4917 524.407 11.6937 522.401 11.1867L521.911 13.1258C523.697 13.5771 525.077 14.2583 526.099 15.1343L527.401 13.6157ZM522.411 11.1893C520.407 10.6607 518.003 10.4062 515.219 10.4062V12.4062C517.893 12.4062 520.114 12.6518 521.901 13.1232L522.411 11.1893ZM515.219 10.4062H500.812V12.4062H515.219V10.4062ZM499.812 11.4062V35.6562H501.812V11.4062H499.812ZM500.812 36.6562H515.219V34.6562H500.812V36.6562ZM515.219 36.6562C518.001 36.6562 520.401 36.4126 522.401 35.907L521.911 33.968C520.12 34.4207 517.895 34.6562 515.219 34.6562V36.6562ZM522.411 35.9044C524.414 35.3762 526.092 34.5682 527.401 33.4468L526.099 31.9282C525.074 32.8068 523.69 33.4988 521.901 33.9706L522.411 35.9044ZM527.402 33.4458C528.728 32.3058 529.682 30.8835 530.259 29.199L528.366 28.551C527.902 29.9082 527.147 31.0276 526.098 31.9292L527.402 33.4458ZM530.255 29.2105C530.844 27.5568 531.125 25.6466 531.125 23.5H529.125C529.125 25.4784 528.865 27.1515 528.37 28.5395L530.255 29.2105ZM591.969 14.1562L591.531 15.0552L592.969 15.7558V14.1562H591.969ZM584.219 11.4062L583.957 12.3714L583.968 12.3742L584.219 11.4062ZM578.719 10.2812L578.563 11.2691L578.573 11.2706L578.719 10.2812ZM568.344 9.96875L568.256 8.97257L568.255 8.97271L568.344 9.96875ZM565.375 10.375L565.174 9.39538L565.169 9.39645L565.375 10.375ZM563.469 10.9688L563.883 11.8791L563.891 11.8751L563.9 11.8709L563.469 10.9688ZM561.906 12.3125L560.966 11.9708L560.952 12.0096L560.941 12.0494L561.906 12.3125ZM562.75 14.5938L562.142 15.3874L562.15 15.3938L562.159 15.4002L562.75 14.5938ZM565.312 15.8438L564.985 16.7887L564.994 16.7916L565.002 16.7942L565.312 15.8438ZM569.094 16.875L568.868 17.8492L568.881 17.8522L569.094 16.875ZM573.656 17.875L573.441 18.8515L573.448 18.8531L573.455 18.8546L573.656 17.875ZM578.656 19L578.419 19.9715L578.426 19.9732L578.433 19.9748L578.656 19ZM583.656 20.4062L583.336 21.3537L583.34 21.3549L583.656 20.4062ZM588.25 22.3125L587.798 23.2044L587.808 23.2095L588.25 22.3125ZM594.438 37.7188L593.541 37.2766L594.438 37.7188ZM591.5 41.4688L590.861 40.6994L590.855 40.7049L591.5 41.4688ZM587.281 43.9375L587.634 44.8734L587.644 44.8693L587.281 43.9375ZM582.219 45.3438L582.034 44.361L582.032 44.3614L582.219 45.3438ZM576.875 46L576.818 45.0016L576.817 45.0017L576.875 46ZM559.938 45.0938L560.129 44.1123L560.125 44.1115L559.938 45.0938ZM550.375 42.5H549.375V43.1924L550.023 43.436L550.375 42.5ZM550.375 32.25L550.86 31.3755L549.375 30.5517V32.25H550.375ZM560.125 35.9688L559.886 36.9399L559.888 36.9402L560.125 35.9688ZM577.875 36.9375L578.035 37.9247L578.046 37.9228L577.875 36.9375ZM581.531 35.9375L581.943 36.8486L581.952 36.8446L581.961 36.8404L581.531 35.9375ZM582.844 31.4375L582.204 32.2057L582.211 32.2121L582.219 32.2184L582.844 31.4375ZM580.281 30.0938L579.938 31.033L579.946 31.0359L579.954 31.0387L580.281 30.0938ZM576.5 29.0312L576.274 30.0055L576.288 30.0084L576.5 29.0312ZM571.906 28.0625L571.703 29.0416L571.71 29.0431L571.717 29.0445L571.906 28.0625ZM561.938 25.6875L561.629 26.6386L561.636 26.641L561.643 26.6433L561.938 25.6875ZM557.375 23.9062L556.944 24.8084L556.954 24.8134L557.375 23.9062ZM553.594 21.5L552.939 22.2562L552.948 22.2634L553.594 21.5ZM551.031 18.2812L550.14 18.7345L550.143 18.7407L551.031 18.2812ZM553.781 5.625L554.43 6.38624L554.431 6.38523L553.781 5.625ZM557.719 3.25L557.345 2.3224L557.341 2.32425L557.719 3.25ZM577.375 1.21875L577.28 2.21425L577.281 2.21435L577.375 1.21875ZM582.594 1.9375L582.414 2.92125L582.425 2.92324L582.594 1.9375ZM587.531 2.96875L587.289 3.9389L587.292 3.93963L587.531 2.96875ZM591.969 4.21875H592.969V3.49093L592.276 3.26718L591.969 4.21875ZM592.407 13.2573C591.555 12.8421 590.449 12.3817 589.101 11.8762L588.399 13.7488C589.717 14.2433 590.758 14.6787 591.531 15.0552L592.407 13.2573ZM589.101 11.8762C587.729 11.3615 586.184 10.8827 584.47 10.4383L583.968 12.3742C585.629 12.8048 587.105 13.2635 588.399 13.7488L589.101 11.8762ZM584.481 10.4412C582.75 9.97114 580.877 9.58858 578.865 9.29193L578.573 11.2706C580.518 11.5573 582.312 11.9247 583.957 12.3713L584.481 10.4412ZM578.875 9.29349C576.842 8.97253 574.758 8.8125 572.625 8.8125V10.8125C574.658 10.8125 576.637 10.965 578.563 11.269L578.875 9.29349ZM572.625 8.8125C570.94 8.8125 569.482 8.86508 568.256 8.97258L568.431 10.9649C569.581 10.8641 570.977 10.8125 572.625 10.8125V8.8125ZM568.255 8.97271C567.065 9.07899 566.035 9.21876 565.174 9.3954L565.576 11.3546C566.34 11.1979 567.29 11.0668 568.433 10.9648L568.255 8.97271ZM565.169 9.39645C564.335 9.57194 563.615 9.79019 563.037 10.0666L563.9 11.8709C564.281 11.689 564.831 11.5114 565.581 11.3535L565.169 9.39645ZM563.055 10.0584C562.543 10.2913 562.086 10.562 561.731 10.8878L563.082 12.3622C563.227 12.2297 563.478 12.0629 563.883 11.8791L563.055 10.0584ZM561.731 10.8878C561.406 11.1856 561.122 11.5431 560.966 11.9708L562.846 12.6542C562.857 12.6236 562.907 12.5228 563.082 12.3622L561.731 10.8878ZM560.941 12.0494C560.862 12.3426 560.812 12.6412 560.812 12.9375H562.812C562.812 12.8588 562.826 12.7407 562.871 12.5756L560.941 12.0494ZM560.812 12.9375C560.812 13.953 561.34 14.7732 562.142 15.3874L563.358 13.8001C562.91 13.456 562.812 13.172 562.812 12.9375H560.812ZM562.159 15.4002C562.893 15.9386 563.848 16.3951 564.985 16.7887L565.64 14.8988C564.61 14.5424 563.857 14.1655 563.341 13.7873L562.159 15.4002ZM565.002 16.7942C566.12 17.1597 567.41 17.511 568.868 17.8492L569.32 15.9008C567.903 15.5723 566.672 15.2361 565.623 14.8933L565.002 16.7942ZM568.881 17.8522C570.318 18.1644 571.837 18.4975 573.441 18.8515L573.872 16.8985C572.267 16.5441 570.745 16.2106 569.306 15.8978L568.881 17.8522ZM573.455 18.8546C575.068 19.1853 576.722 19.5576 578.419 19.9715L578.893 18.0285C577.174 17.6091 575.495 17.2313 573.857 16.8954L573.455 18.8546ZM578.433 19.9748C580.131 20.3635 581.765 20.8233 583.336 21.3537L583.976 19.4588C582.339 18.9059 580.64 18.4282 578.879 18.0252L578.433 19.9748ZM583.34 21.3549C584.921 21.882 586.407 22.4988 587.798 23.2043L588.702 21.4207C587.218 20.6679 585.641 20.0138 583.972 19.4576L583.34 21.3549ZM587.808 23.2095C589.174 23.8827 590.359 24.6681 591.369 25.5615L592.694 24.0635C591.537 23.0403 590.201 22.1589 588.692 21.4155L587.808 23.2095ZM591.369 25.5615C592.36 26.438 593.134 27.4407 593.699 28.5722L595.488 27.6778C594.804 26.3093 593.87 25.1036 592.694 24.0635L591.369 25.5615ZM593.699 28.5722C594.245 29.6641 594.531 30.9343 594.531 32.4062H596.531C596.531 30.6699 596.192 29.0859 595.488 27.6778L593.699 28.5722ZM594.531 32.4062C594.531 34.3529 594.187 35.9651 593.541 37.2766L595.334 38.1609C596.146 36.5141 596.531 34.5846 596.531 32.4062H594.531ZM593.541 37.2766C592.871 38.634 591.979 39.7713 590.861 40.6995L592.139 42.238C593.48 41.1246 594.545 39.7619 595.334 38.1609L593.541 37.2766ZM590.855 40.7049C589.738 41.6485 588.429 42.4172 586.918 43.0057L587.644 44.8693C589.342 44.2078 590.846 43.3306 592.145 42.2326L590.855 40.7049ZM586.929 43.0017C585.382 43.5844 583.75 44.0379 582.034 44.361L582.404 46.3265C584.229 45.983 585.972 45.499 587.634 44.8733L586.929 43.0017ZM582.032 44.3614C580.325 44.6864 578.587 44.8999 576.818 45.0016L576.932 46.9984C578.788 46.8917 580.612 46.6677 582.406 46.3261L582.032 44.3614ZM576.817 45.0017C575.043 45.1048 573.354 45.1562 571.75 45.1562V47.1562C573.396 47.1562 575.124 47.1035 576.933 46.9983L576.817 45.0017ZM571.75 45.1562C567.555 45.1562 563.682 44.8066 560.129 44.1123L559.746 46.0752C563.443 46.7975 567.445 47.1562 571.75 47.1562V45.1562ZM560.125 44.1115C556.564 43.4322 553.433 42.5815 550.727 41.564L550.023 43.436C552.858 44.5019 556.103 45.3803 559.75 46.076L560.125 44.1115ZM551.375 42.5V32.25H549.375V42.5H551.375ZM549.89 33.1245C552.832 34.7567 556.167 36.026 559.886 36.9399L560.364 34.9976C556.791 34.1199 553.626 32.91 550.86 31.3755L549.89 33.1245ZM559.888 36.9402C563.64 37.8568 567.637 38.3125 571.875 38.3125V36.3125C567.78 36.3125 563.944 35.8723 560.362 34.9973L559.888 36.9402ZM571.875 38.3125C574.36 38.3125 576.419 38.1866 578.035 37.9246L577.715 35.9504C576.247 36.1884 574.306 36.3125 571.875 36.3125V38.3125ZM578.046 37.9228C579.645 37.6456 580.958 37.2945 581.943 36.8486L581.119 35.0264C580.355 35.3722 579.23 35.6877 577.704 35.9522L578.046 37.9228ZM581.961 36.8404C582.9 36.3932 583.689 35.8464 584.15 35.14L582.475 34.0475C582.311 34.2995 581.912 34.6485 581.101 35.0346L581.961 36.8404ZM584.15 35.14C584.536 34.5476 584.781 33.9016 584.781 33.2188H582.781C582.781 33.4109 582.714 33.6816 582.475 34.0475L584.15 35.14ZM584.781 33.2188C584.781 32.1756 584.287 31.3114 583.468 30.6566L582.219 32.2184C582.651 32.5636 582.781 32.8869 582.781 33.2188H584.781ZM583.484 30.6693C582.737 30.0465 581.763 29.5484 580.608 29.1488L579.954 31.0387C580.966 31.3891 581.701 31.7869 582.204 32.2057L583.484 30.6693ZM580.624 29.1545C579.489 28.7395 578.183 28.3737 576.712 28.0541L576.288 30.0084C577.692 30.3138 578.907 30.6563 579.938 31.033L580.624 29.1545ZM576.726 28.0571C575.275 27.7206 573.731 27.3951 572.095 27.0805L571.717 29.0445C573.331 29.3549 574.85 29.6752 576.274 30.0054L576.726 28.0571ZM572.11 27.0834C570.509 26.7509 568.857 26.3975 567.152 26.0233L566.723 27.9767C568.435 28.3525 570.095 28.7074 571.703 29.0416L572.11 27.0834ZM567.152 26.0233C565.47 25.654 563.83 25.2234 562.232 24.7317L561.643 26.6433C563.295 27.1516 564.989 27.596 566.723 27.9767L567.152 26.0233ZM562.246 24.7364C560.678 24.2271 559.195 23.6478 557.796 22.9991L556.954 24.8134C558.43 25.498 559.989 26.1062 561.629 26.6386L562.246 24.7364ZM557.806 23.0041C556.437 22.3491 555.25 21.5918 554.24 20.7366L552.948 22.2634C554.104 23.2416 555.438 24.0884 556.944 24.8084L557.806 23.0041ZM554.248 20.7438C553.256 19.885 552.483 18.9114 551.919 17.8218L550.143 18.7407C550.829 20.0678 551.765 21.24 552.939 22.2562L554.248 20.7438ZM551.923 17.828C551.38 16.7605 551.094 15.5036 551.094 14.0312H549.094C549.094 15.7672 549.433 17.3436 550.14 18.7345L551.923 17.828ZM551.094 14.0312C551.094 12.251 551.407 10.7716 551.994 9.56127L550.194 8.68873C549.447 10.2284 549.094 12.0198 549.094 14.0312H551.094ZM551.994 9.56127C552.602 8.30649 553.414 7.25174 554.43 6.38624L553.133 4.86376C551.899 5.91492 550.919 7.19351 550.194 8.68873L551.994 9.56127ZM554.431 6.38523C555.491 5.47943 556.711 4.74202 558.097 4.17575L557.341 2.32425C555.769 2.96632 554.363 3.81224 553.132 4.86477L554.431 6.38523ZM558.092 4.17759C559.534 3.59709 561.048 3.14553 562.636 2.82385L562.239 0.863649C560.536 1.20864 558.904 1.69458 557.345 2.32241L558.092 4.17759ZM562.636 2.82385C564.24 2.49891 565.865 2.27544 567.511 2.15352L567.364 0.158982C565.635 0.287059 563.926 0.52192 562.239 0.863649L562.636 2.82385ZM567.511 2.15352C569.177 2.03014 570.756 1.96875 572.25 1.96875V-0.03125C570.702 -0.03125 569.073 0.032361 567.364 0.158982L567.511 2.15352ZM572.25 1.96875C573.883 1.96875 575.56 2.05042 577.28 2.21425L577.47 0.223255C575.69 0.0537491 573.95 -0.03125 572.25 -0.03125V1.96875ZM577.281 2.21435C579.024 2.37836 580.735 2.61403 582.414 2.92118L582.774 0.953823C581.036 0.635974 579.268 0.392472 577.469 0.22315L577.281 2.21435ZM582.425 2.92324C584.11 3.21091 585.731 3.54956 587.289 3.93889L587.774 1.99861C586.164 1.59628 584.494 1.24743 582.762 0.951764L582.425 2.92324ZM587.292 3.93963C588.877 4.3307 590.333 4.74109 591.661 5.17032L592.276 3.26718C590.896 2.82141 589.394 2.39847 587.771 1.99787L587.292 3.93963ZM590.969 4.21875V14.1562H592.969V4.21875H590.969Z" fill="url(#paint0_linear_106_15)"/>
<defs>
<linearGradient id="paint0_linear_106_15" x1="284.912" y1="-93.25" x2="303.117" y2="83.1829" gradientUnits="userSpaceOnUse">
<stop/>
<stop offset="1" stop-color="white" stop-opacity="0"/>
</linearGradient>
</defs>
</svg>
