<svg width="396" height="149" viewBox="0 0 396 149" fill="none" xmlns="http://www.w3.org/2000/svg">
<path d="M94.6472 89.4284L93.7187 89.7998L93.9762 90.4434L94.6692 90.4282L94.6472 89.4284ZM94.3013 88.5637V87.5637H92.8243L93.3729 88.9351L94.3013 88.5637ZM124.738 89.2555L124.688 90.2542L124.688 90.2543L124.738 89.2555ZM148.948 92.3683L149.179 91.3953L148.948 92.3683ZM164.685 99.9773L164.001 100.707L164.007 100.712L164.013 100.717L164.685 99.9773ZM159.843 133.353L159.258 132.542L159.252 132.547L159.843 133.353ZM130.099 144.767L130.291 145.748L130.099 144.767ZM38.2709 143.557L38.528 142.59L38.5219 142.589L38.2709 143.557ZM9.73693 129.203L9.0362 129.917L9.04256 129.923L9.73693 129.203ZM0.0526662 105.684V104.684H-0.947334V105.684H0.0526662ZM43.4589 105.684L44.4548 105.594L44.3721 104.684H43.4589V105.684ZM49.1657 111.737L48.779 112.659L48.7967 112.666L48.8146 112.673L49.1657 111.737ZM63.8651 114.85L63.7526 115.843L63.7618 115.844L63.7711 115.845L63.8651 114.85ZM114.535 114.158L114.691 115.146L114.704 115.143L114.535 114.158ZM112.459 97.5563L112.587 96.5644L112.459 97.5563ZM51.2409 95.9999H50.2409V96.9999H51.2409V95.9999ZM51.2409 83.8945V82.8945H50.2409V83.8945H51.2409ZM103.986 83.0299L104.073 84.026L104.082 84.0253L104.09 84.0244L103.986 83.0299ZM117.82 79.7441L118.312 80.6148L118.324 80.6079L117.82 79.7441ZM112.978 65.9095L112.731 66.8785L112.742 66.8813L112.753 66.8839L112.978 65.9095ZM55.3913 66.7741L55.6481 67.7407L55.6582 67.7379L55.3913 66.7741ZM43.6319 75.4208V76.4208H44.518L44.6246 75.5411L43.6319 75.4208ZM0.571466 75.4208H-0.428534V76.4208H0.571466V75.4208ZM7.14293 55.3605L6.35271 54.7477L7.14293 55.3605ZM25.3009 41.5259L25.7209 42.4334L25.7267 42.4307L25.3009 41.5259ZM52.2785 33.398L52.1123 32.4119L52.1105 32.4122L52.2785 33.398ZM129.407 34.2627L129.22 35.2451L129.23 35.247L129.407 34.2627ZM157.249 44.2928L156.671 45.1086L156.678 45.1134L157.249 44.2928ZM161.572 75.2479L162.279 75.955L161.572 75.2479ZM146.527 83.7216L146.818 84.6785L146.825 84.6761L146.833 84.6736L146.527 83.7216ZM123.527 87.872L123.437 86.8761L123.435 86.8762L123.527 87.872ZM95.5757 89.057L95.2298 88.1924L93.3729 88.9351L93.7187 89.7998L95.5757 89.057ZM94.3013 89.5637C105.356 89.5637 115.484 89.794 124.688 90.2542L124.788 88.2567C115.545 87.7946 105.383 87.5637 94.3013 87.5637V89.5637ZM124.688 90.2543C133.985 90.7133 141.991 91.7452 148.717 93.3412L149.179 91.3953C142.301 89.7633 134.167 88.7199 124.787 88.2567L124.688 90.2543ZM148.717 93.3412C155.412 94.9297 160.479 97.4045 164.001 100.707L165.369 99.2478C161.513 95.6328 156.089 93.0349 149.179 91.3953L148.717 93.3412ZM164.013 100.717C167.569 103.951 169.392 108.444 169.392 114.331H171.392C171.392 107.997 169.41 102.921 165.358 99.2374L164.013 100.717ZM169.392 114.331C169.392 121.57 166.072 127.628 159.258 132.542L160.428 134.164C167.679 128.934 171.392 122.31 171.392 114.331H169.392ZM159.252 132.547C152.499 137.499 142.744 141.264 129.906 143.786L130.291 145.748C143.278 143.197 153.352 139.353 160.434 134.16L159.252 132.547ZM129.906 143.786C117.075 146.306 101.809 147.572 84.0983 147.572V149.572C101.897 149.572 117.298 148.301 130.291 145.748L129.906 143.786ZM84.0983 147.572C66.1695 147.572 50.9855 145.905 38.528 142.59L38.0138 144.523C50.6893 147.895 66.0569 149.572 84.0983 149.572V147.572ZM38.5219 142.589C26.173 139.387 16.8384 134.666 10.4313 128.483L9.04256 129.923C15.7784 136.422 25.4665 141.27 38.02 144.525L38.5219 142.589ZM10.4376 128.49C4.17966 122.343 1.05267 114.764 1.05267 105.684H-0.947334C-0.947334 115.281 2.38185 123.381 9.03623 129.917L10.4376 128.49ZM0.0526662 106.684H43.4589V104.684H0.0526662V106.684ZM42.463 105.775C42.7427 108.851 45.0592 111.099 48.779 112.659L49.5525 110.815C46.1244 109.377 44.6363 107.59 44.4548 105.594L42.463 105.775ZM48.8146 112.673C52.6111 114.097 57.6007 115.147 63.7526 115.843L63.9776 113.856C57.9088 113.169 53.0989 112.144 49.5169 110.8L48.8146 112.673ZM63.7711 115.845C69.9182 116.425 76.6945 116.714 84.0983 116.714V114.714C76.7451 114.714 70.0326 114.427 63.959 113.854L63.7711 115.845ZM84.0983 116.714C97.8272 116.714 108.038 116.196 114.69 115.146L114.379 113.17C107.888 114.195 97.8081 114.714 84.0983 114.714V116.714ZM114.704 115.143C118.135 114.552 120.84 113.512 122.702 111.939C124.606 110.33 125.565 108.217 125.565 105.684H123.565C123.565 107.647 122.852 109.194 121.412 110.411C119.931 111.662 117.621 112.611 114.365 113.172L114.704 115.143ZM125.565 105.684C125.565 103.12 124.354 101.053 122.096 99.5362C119.89 98.0554 116.685 97.0913 112.587 96.5644L112.332 98.5481C116.304 99.0588 119.151 99.9681 120.981 101.197C122.757 102.389 123.565 103.868 123.565 105.684H125.565ZM112.587 96.5644C104.452 95.5185 92.5836 94.9999 77.008 94.9999V96.9999C92.5604 96.9999 104.326 97.5188 112.332 98.5481L112.587 96.5644ZM77.008 94.9999H51.2409V96.9999H77.008V94.9999ZM52.2409 95.9999V83.8945H50.2409V95.9999H52.2409ZM51.2409 84.8945H77.008V82.8945H51.2409V84.8945ZM77.008 84.8945C88.4331 84.8945 97.459 84.6062 104.073 84.026L103.898 82.0337C97.3693 82.6064 88.4101 82.8945 77.008 82.8945V84.8945ZM104.09 84.0244C110.675 83.3312 115.468 82.2226 118.312 80.6147L117.328 78.8736C114.87 80.2631 110.439 81.3451 103.881 82.0354L104.09 84.0244ZM118.324 80.6079C121.305 78.8692 122.971 76.507 122.971 73.5185H120.971C120.971 75.6028 119.87 77.3909 117.316 78.8804L118.324 80.6079ZM122.971 73.5185C122.971 71.3588 122.075 69.5302 120.368 68.0859C118.698 66.6728 116.276 65.6443 113.203 64.9351L112.753 66.8839C115.675 67.5581 117.749 68.4895 119.077 69.6127C120.367 70.7048 120.971 71.989 120.971 73.5185H122.971ZM113.225 64.9405C107.217 63.4089 97.7725 62.6613 84.9629 62.6613V64.6613C97.7475 64.6613 106.98 65.4125 112.731 66.8785L113.225 64.9405ZM84.9629 62.6613C72.6973 62.6613 62.74 63.7015 55.1245 65.8104L55.6582 67.7379C63.0303 65.6964 72.7874 64.6613 84.9629 64.6613V62.6613ZM55.1346 65.8076C51.3855 66.8035 48.4267 68.0549 46.3252 69.6001C44.2066 71.1579 42.9113 73.0548 42.6391 75.3005L44.6246 75.5411C44.8135 73.9823 45.7088 72.5358 47.51 71.2114C49.3283 69.8744 52.0187 68.7047 55.6481 67.7406L55.1346 65.8076ZM43.6319 74.4208H0.571466V76.4208H43.6319V74.4208ZM1.57147 75.4208C1.57147 67.8993 3.69937 61.4327 7.93315 55.9734L6.35271 54.7477C1.82454 60.5867 -0.428534 67.4936 -0.428534 75.4208H1.57147ZM7.93315 55.9734C12.199 50.4726 18.1142 45.9529 25.7208 42.4334L24.881 40.6183C17.0389 44.2467 10.8488 48.9501 6.35271 54.7477L7.93315 55.9734ZM25.7267 42.4307C33.4709 38.7864 42.3741 36.1007 52.4466 34.3838L52.1105 32.4122C41.8921 34.154 32.8103 36.8869 24.8751 40.6211L25.7267 42.4307ZM52.4447 34.3841C62.645 32.6649 73.4838 31.804 84.9629 31.804V29.804C73.3842 29.804 62.4335 30.6724 52.1123 32.4119L52.4447 34.3841ZM84.9629 31.804C102.448 31.804 117.196 32.9547 129.22 35.245L129.594 33.2803C117.407 30.959 102.526 29.804 84.9629 29.804V31.804ZM129.23 35.247C141.383 37.4253 150.5 40.7332 156.671 45.1085L157.827 43.4771C151.316 38.8599 141.872 35.481 129.583 33.2784L129.23 35.247ZM156.678 45.1134C162.908 49.4525 165.933 54.8719 165.933 61.4132H167.933C167.933 54.1199 164.502 48.1257 157.821 43.4722L156.678 45.1134ZM165.933 61.4132C165.933 66.8313 164.229 71.1772 160.865 74.5408L162.279 75.955C166.064 72.1707 167.933 67.2934 167.933 61.4132H165.933ZM160.865 74.5408C157.435 77.9707 152.576 80.7271 146.221 82.7696L146.833 84.6736C153.391 82.5657 158.561 79.673 162.279 75.955L160.865 74.5408ZM146.237 82.7647C139.863 84.6997 132.266 86.0734 123.437 86.8761L123.618 88.8679C132.542 88.0565 140.279 86.6633 146.818 84.6785L146.237 82.7647ZM123.435 86.8762C114.7 87.6807 105.098 88.1985 94.6252 88.4286L94.6692 90.4282C105.179 90.1972 114.83 89.6773 123.619 88.8678L123.435 86.8762ZM204.406 59.8568L204.135 60.8195L204.142 60.8214L204.149 60.8233L204.406 59.8568ZM187.458 50.1725L188.204 49.5057L187.458 50.1725ZM194.549 9.87907L194.074 8.99895L194.069 9.00162L194.549 9.87907ZM267.354 9.87907L266.869 10.7538L266.874 10.7565L267.354 9.87907ZM274.444 50.1725L273.699 49.5057L273.694 49.5113L273.689 49.5168L274.444 50.1725ZM257.669 59.8568L257.93 60.8223L257.94 60.8195L257.669 59.8568ZM246.602 42.3905L247.116 43.2481L247.124 43.2431L246.602 42.3905ZM246.602 23.5408L246.047 24.3728L246.063 24.3834L246.079 24.3934L246.602 23.5408ZM215.301 23.3679L215.811 24.2277L215.301 23.3679ZM215.128 42.3905L214.605 43.2431L214.621 43.2529L214.637 43.2621L215.128 42.3905ZM309.722 115.023L309.252 115.905L309.256 115.907L309.722 115.023ZM309.722 69.0223L309.247 68.1422L309.243 68.1448L309.722 69.0223ZM382.7 69.0223L382.215 69.897L382.7 69.0223ZM382.7 115.023L382.225 114.143L382.7 115.023ZM361.948 101.534L362.45 102.399L362.46 102.393L362.471 102.386L361.948 101.534ZM361.948 82.684L361.406 83.5243L361.416 83.5306L361.426 83.5366L361.948 82.684ZM330.647 82.5111L330.137 81.6512L330.647 82.5111ZM330.474 101.534L329.952 102.386L329.962 102.393L329.972 102.399L330.474 101.534ZM316.985 0.367733L317.471 -0.506424L316.595 -0.993267L316.11 -0.115746L316.985 0.367733ZM326.324 5.55574L327.199 6.04009L327.682 5.16651L326.809 4.68158L326.324 5.55574ZM260.263 124.88L259.739 125.731L260.631 126.28L261.138 125.364L260.263 124.88ZM251.271 119.346L250.395 118.862L249.934 119.698L250.747 120.198L251.271 119.346ZM231.21 61.7967C220.776 61.7967 211.933 60.8214 204.663 58.8903L204.149 60.8233C211.636 62.812 220.662 63.7967 231.21 63.7967V61.7967ZM204.677 58.8941C197.426 56.8551 191.963 53.7079 188.204 49.5057L186.713 50.8393C190.793 55.3991 196.628 58.7081 204.135 60.8195L204.677 58.8941ZM188.204 49.5057C184.482 45.3458 182.579 39.8368 182.579 32.8792H180.579C180.579 40.2175 182.596 46.2374 186.713 50.8393L188.204 49.5057ZM182.579 32.8792C182.579 27.7128 183.631 23.3209 185.692 19.6654C187.751 16.0138 190.849 13.0413 195.028 10.7565L194.069 9.00162C189.602 11.4437 186.214 14.668 183.95 18.683C181.688 22.6942 180.579 27.439 180.579 32.8792H182.579ZM195.023 10.7592C203.579 6.14368 215.611 3.7888 231.21 3.7888V1.7888C215.451 1.7888 203.042 4.16077 194.074 8.99897L195.023 10.7592ZM231.21 3.7888C246.696 3.7888 258.549 6.14411 266.869 10.7538L267.838 9.00435C259.095 4.16034 246.853 1.7888 231.21 1.7888V3.7888ZM266.874 10.7565C271.053 13.0413 274.151 16.0138 276.21 19.6654C278.271 23.3209 279.324 27.7128 279.324 32.8792H281.324C281.324 27.439 280.214 22.6942 277.952 18.683C275.688 14.668 272.3 11.4437 267.833 9.00162L266.874 10.7565ZM279.324 32.8792C279.324 39.8368 277.421 45.3458 273.699 49.5057L275.189 50.8393C279.307 46.2374 281.324 40.2175 281.324 32.8792H279.324ZM273.689 49.5168C270.047 53.71 264.648 56.8551 257.399 58.8941L257.94 60.8195C265.447 58.7081 271.231 55.397 275.199 50.8282L273.689 49.5168ZM257.409 58.8913C250.256 60.8215 241.529 61.7967 231.21 61.7967V63.7967C241.644 63.7967 250.556 62.8119 257.93 60.8223L257.409 58.8913ZM231.21 46.5033C238.084 46.5033 243.429 45.4603 247.116 43.248L246.087 41.533C242.857 43.4712 237.941 44.5033 231.21 44.5033V46.5033ZM247.124 43.2431C250.991 40.8731 252.962 37.3817 252.962 32.8792H250.962C250.962 36.6775 249.36 39.527 246.079 41.5379L247.124 43.2431ZM252.962 32.8792C252.962 28.48 250.981 25.0519 247.124 22.6882L246.079 24.3934C249.37 26.4107 250.962 29.2081 250.962 32.8792H252.962ZM247.156 22.7087C243.459 20.2439 238.096 19.0821 231.21 19.0821V21.0821C237.929 21.0821 242.827 22.2261 246.047 24.3728L247.156 22.7087ZM231.21 19.0821C224.213 19.0821 218.701 20.1858 214.79 22.508L215.811 24.2277C219.279 22.169 224.374 21.0821 231.21 21.0821V19.0821ZM214.79 22.508C210.81 24.8712 208.767 28.3615 208.767 32.8792H210.767C210.767 29.0961 212.413 26.2455 215.811 24.2277L214.79 22.508ZM208.767 32.8792C208.767 37.3817 210.738 40.8731 214.605 43.2431L215.65 41.5379C212.369 39.527 210.767 36.6775 210.767 32.8792H208.767ZM214.637 43.2621C218.545 45.46 224.107 46.5033 231.21 46.5033V44.5033C224.249 44.5033 219.089 43.4715 215.618 41.519L214.637 43.2621ZM346.384 120.94C330.782 120.94 318.746 118.642 310.188 114.138L309.256 115.907C318.222 120.626 330.628 122.94 346.384 122.94V120.94ZM310.193 114.14C306.018 111.914 302.924 108.972 300.866 105.323C298.805 101.669 297.752 97.2486 297.752 92.0224H295.752C295.752 97.5181 296.861 102.292 299.124 106.305C301.389 110.323 304.78 113.52 309.252 115.905L310.193 114.14ZM297.752 92.0224C297.752 86.856 298.804 82.4641 300.866 78.8086C302.925 75.157 306.022 72.1845 310.202 69.8997L309.243 68.1448C304.775 70.5869 301.388 73.8111 299.124 77.8262C296.862 81.8374 295.752 86.5822 295.752 92.0224H297.752ZM310.197 69.9024C318.753 65.2869 330.784 62.932 346.384 62.932V60.932C330.625 60.932 318.216 63.304 309.247 68.1422L310.197 69.9024ZM346.384 62.932C361.986 62.932 373.896 65.2878 382.215 69.897L383.185 68.1476C374.441 63.3031 362.14 60.932 346.384 60.932V62.932ZM382.215 69.897C390.396 74.4295 394.497 81.7404 394.497 92.0224H396.497C396.497 81.0912 392.067 73.0687 383.185 68.1476L382.215 69.897ZM394.497 92.0224C394.497 97.2507 393.458 101.673 391.424 105.328C389.393 108.977 386.341 111.918 382.225 114.143L383.176 115.902C387.591 113.516 390.937 110.317 393.172 106.3C395.404 102.288 396.497 97.516 396.497 92.0224H394.497ZM382.225 114.143C373.903 118.641 361.989 120.94 346.384 120.94V122.94C362.138 122.94 374.435 120.627 383.176 115.902L382.225 114.143ZM346.384 105.647C353.261 105.647 358.655 104.602 362.45 102.399L361.446 100.669C358.093 102.616 353.111 103.647 346.384 103.647V105.647ZM362.471 102.386C366.338 100.016 368.309 96.5249 368.309 92.0224H366.309C366.309 95.8207 364.706 98.6702 361.426 100.681L362.471 102.386ZM368.309 92.0224C368.309 87.6232 366.327 84.1951 362.471 81.8314L361.426 83.5366C364.717 85.5539 366.309 88.3513 366.309 92.0224H368.309ZM362.49 81.8437C358.685 79.3885 353.273 78.2253 346.384 78.2253V80.2253C353.099 80.2253 358.064 81.368 361.406 83.5243L362.49 81.8437ZM346.384 78.2253C339.498 78.2253 334.046 79.3302 330.137 81.6512L331.158 83.3709C334.627 81.311 339.666 80.2253 346.384 80.2253V78.2253ZM330.137 81.6512C326.156 84.0144 324.113 87.5047 324.113 92.0224H326.113C326.113 88.2393 327.759 85.3887 331.158 83.3709L330.137 81.6512ZM324.113 92.0224C324.113 96.5249 326.085 100.016 329.952 102.386L330.997 100.681C327.716 98.6702 326.113 95.8207 326.113 92.0224H324.113ZM329.972 102.399C333.771 104.604 339.284 105.647 346.384 105.647V103.647C339.419 103.647 334.325 102.613 330.976 100.669L329.972 102.399ZM316.5 1.24189L325.838 6.4299L326.809 4.68158L317.471 -0.506424L316.5 1.24189ZM325.449 5.07139L259.388 124.395L261.138 125.364L327.199 6.04009L325.449 5.07139ZM260.787 124.028L251.795 118.494L250.747 120.198L259.739 125.731L260.787 124.028ZM252.146 119.829L317.861 0.851215L316.11 -0.115746L250.395 118.862L252.146 119.829Z" fill="url(#paint0_linear_106_49)"/>
<defs>
<linearGradient id="paint0_linear_106_49" x1="182.237" y1="-215.5" x2="285.473" y2="108.198" gradientUnits="userSpaceOnUse">
<stop/>
<stop offset="1" stop-opacity="0"/>
</linearGradient>
</defs>
</svg>
