<svg width="44" height="36" viewBox="0 0 44 36" fill="none" xmlns="http://www.w3.org/2000/svg">
<path d="M13.6237 35.195C16.9492 35.2159 20.2458 34.5764 23.3222 33.3134C26.3986 32.0504 29.1936 30.1892 31.5452 27.8377C33.8967 25.4861 35.7579 22.6911 37.0209 19.6147C38.2838 16.5383 38.9234 13.2418 38.9025 9.91627V8.7547C40.6263 7.49173 42.1184 5.93973 43.3125 4.16752C41.6893 4.87744 39.9717 5.34827 38.2134 5.56533C40.0777 4.45452 41.4764 2.70605 42.1509 0.643453C40.4136 1.68579 38.5084 2.41855 36.5203 2.80908C35.1814 1.38246 33.4097 0.436844 31.4793 0.118557C29.5488 -0.199731 27.5673 0.127049 25.8413 1.04833C24.1153 1.96962 22.741 3.43405 21.9311 5.21504C21.1212 6.99603 20.9208 8.9943 21.3609 10.9006C17.8291 10.7273 14.3733 9.81196 11.2186 8.21429C8.064 6.61662 5.28124 4.37242 3.05156 1.62783C1.92725 3.5792 1.58647 5.8849 2.09821 8.07809C2.60996 10.2713 3.93598 12.1881 5.80781 13.4403C4.42696 13.3871 3.07805 13.0094 1.87031 12.3378V12.4363C1.85804 14.4756 2.54505 16.4575 3.81682 18.0517C5.0886 19.6459 6.86832 20.7561 8.85938 21.1972C7.57504 21.5426 6.2297 21.5965 4.92188 21.3547C5.4983 23.0939 6.59863 24.6121 8.07197 25.7013C9.54531 26.7904 11.3195 27.3971 13.1513 27.4381C10.0194 29.9592 6.12693 31.3469 2.10656 31.3756C1.40166 31.3552 0.698408 31.2961 0 31.1985C4.06932 33.7911 8.79875 35.158 13.6237 35.136" fill="#2B2B2B"/>
</svg>
