<svg width="411" height="47" viewBox="0 0 411 47" fill="none" xmlns="http://www.w3.org/2000/svg">
<path d="M40.125 45H39.125V46H40.125V45ZM40.125 40.7812H41.125V39.091L39.6436 39.9048L40.125 40.7812ZM35.3438 42.9375L35.0002 41.9984L34.9964 41.9998L35.3438 42.9375ZM30.0625 44.5312L29.8304 43.5586L30.0625 44.5312ZM24.375 45.5L24.2692 44.5055L24.2575 44.5069L24.375 45.5ZM11.7812 45.1875L11.5815 46.1673L11.5833 46.1677L11.7812 45.1875ZM2.03125 39.2188L1.18572 39.7528L1.19079 39.7606L2.03125 39.2188ZM2.90625 26.1875L3.67722 26.8244L3.68058 26.8203L2.90625 26.1875ZM22.4688 18.5938L22.336 17.6026L22.3355 17.6027L22.4688 18.5938ZM40.125 17.0312L40.1801 18.0297L41.125 17.9776V17.0312H40.125ZM39.5625 14.0312L38.6786 14.4992L38.6846 14.5101L39.5625 14.0312ZM37.5 12.1875L37.0159 13.0625L37.0269 13.0686L37.0381 13.0744L37.5 12.1875ZM33.4375 10.875L33.246 11.8565L33.2482 11.8569L33.4375 10.875ZM20.625 10.7188L20.7265 11.7136L20.7354 11.7126L20.625 10.7188ZM14.6875 11.5938L14.4955 10.6124L14.4935 10.6128L14.6875 11.5938ZM4.625 14.4688H3.625V15.9295L4.98677 15.401L4.625 14.4688ZM4.625 4.15625L4.37596 3.18776L3.625 3.38086V4.15625H4.625ZM15.1875 2.15625L15.3141 3.14825L15.3245 3.14682L15.1875 2.15625ZM21.125 1.53125L21.1977 2.52866L21.208 2.5278L21.125 1.53125ZM36.8438 2.1875L36.6489 3.16836L36.6554 3.1696L36.8438 2.1875ZM44.6875 4.9375L44.1914 5.80575L44.1949 5.80776L44.6875 4.9375ZM49.8438 9.6875L49.002 10.2273L49.0061 10.2338L49.8438 9.6875ZM51.7188 45V46H52.7188V45H51.7188ZM40.125 25.4062H41.125V24.3682L40.0876 24.4069L40.125 25.4062ZM28.75 26.125L28.6505 25.13L28.6498 25.13L28.75 26.125ZM16.125 28.5625L15.7508 27.6351L15.7451 27.6375L16.125 28.5625ZM13.5 30.0312L14.1508 30.7905L13.5 30.0312ZM12.4062 31.5312L11.4462 31.2513L11.4408 31.2699L11.4361 31.2887L12.4062 31.5312ZM12.625 34.375L11.7544 34.8671L11.7592 34.8754L11.7641 34.8837L12.625 34.375ZM14.0312 35.5938L13.5621 36.4769L13.5733 36.4827L14.0312 35.5938ZM31.7188 35.125L32.0129 36.0808L32.024 36.0773L31.7188 35.125ZM36.2812 33.3125L36.7179 34.2122L36.7233 34.2095L36.2812 33.3125ZM40.125 31.0625L40.7005 31.8803L41.125 31.5816V31.0625H40.125ZM41.125 45V40.7812H39.125V45H41.125ZM39.6436 39.9048C38.212 40.6911 36.6647 41.3894 35.0002 41.9984L35.6873 43.8766C37.4395 43.2356 39.0797 42.4964 40.6064 41.6577L39.6436 39.9048ZM34.9964 41.9998C33.3483 42.6102 31.6265 43.1299 29.8304 43.5586L30.2946 45.5039C32.1652 45.0576 33.9642 44.5148 35.6911 43.8752L34.9964 41.9998ZM29.8304 43.5586C28.0405 43.9857 26.1869 44.3016 24.2692 44.5056L24.4808 46.4944C26.4798 46.2817 28.4179 45.9518 30.2946 45.5039L29.8304 43.5586ZM24.2575 44.5069C22.3596 44.7314 20.4405 44.8438 18.5 44.8438V46.8438C20.5179 46.8438 22.5154 46.7269 24.4925 46.4931L24.2575 44.5069ZM18.5 44.8438C16.2509 44.8438 14.0778 44.631 11.9792 44.2073L11.5833 46.1677C13.8181 46.619 16.1241 46.8438 18.5 46.8438V44.8438ZM11.981 44.2077C9.92906 43.7893 8.12892 43.1167 6.56905 42.2003L5.55595 43.9247C7.32941 44.9666 9.34177 45.7107 11.5815 46.1673L11.981 44.2077ZM6.56905 42.2003C5.03356 41.2982 3.80556 40.1253 2.87171 38.6769L1.19079 39.7606C2.29861 41.4789 3.75811 42.8685 5.55595 43.9247L6.56905 42.2003ZM2.87674 38.6848C1.99816 37.2937 1.53125 35.5513 1.53125 33.4062H-0.46875C-0.46875 35.8445 0.0643401 37.9772 1.18576 39.7527L2.87674 38.6848ZM1.53125 33.4062C1.53125 30.7026 2.26569 28.5331 3.67721 26.8244L2.13529 25.5506C0.380145 27.6753 -0.46875 30.3182 -0.46875 33.4062H1.53125ZM3.68058 26.8203C5.11774 25.0616 7.36347 23.5629 10.51 22.3728L9.8025 20.5022C6.44903 21.7705 3.86142 23.4384 2.13192 25.5547L3.68058 26.8203ZM10.51 22.3728C13.6653 21.1795 17.6891 20.2454 22.602 19.5848L22.3355 17.6027C17.3317 18.2754 13.1472 19.2372 9.8025 20.5022L10.51 22.3728ZM22.6015 19.5849C27.5477 18.9226 33.406 18.4038 40.1801 18.0297L40.0699 16.0328C33.2607 16.4087 27.3481 16.9315 22.336 17.6026L22.6015 19.5849ZM41.125 17.0312V16.125H39.125V17.0312H41.125ZM41.125 16.125C41.125 15.2322 40.8869 14.371 40.4404 13.5524L38.6846 14.5101C38.9881 15.0665 39.125 15.6011 39.125 16.125H41.125ZM40.4463 13.5634C39.945 12.6164 39.0712 11.8783 37.9619 11.3006L37.0381 13.0744C37.9288 13.5383 38.43 14.0294 38.6787 14.4991L40.4463 13.5634ZM37.9841 11.3125C36.8757 10.6994 35.4071 10.2363 33.6268 9.89308L33.2482 11.8569C34.9262 12.1804 36.1659 12.5923 37.0159 13.0625L37.9841 11.3125ZM33.629 9.89351C31.8337 9.5432 29.5759 9.375 26.875 9.375V11.375C29.5074 11.375 31.6246 11.5401 33.246 11.8565L33.629 9.89351ZM26.875 9.375C24.7345 9.375 22.6142 9.49157 20.5146 9.72487L20.7354 11.7126C22.7608 11.4876 24.8072 11.375 26.875 11.375V9.375ZM20.5235 9.72392C18.453 9.93519 16.4436 10.2312 14.4955 10.6124L14.8795 12.5751C16.7648 12.2063 18.7137 11.919 20.7265 11.7136L20.5235 9.72392ZM14.4935 10.6128C12.5708 10.9931 10.7396 11.4375 9.00035 11.9465L9.56215 13.866C11.2396 13.375 13.0125 12.9444 14.8815 12.5747L14.4935 10.6128ZM9.00035 11.9465C7.26961 12.4531 5.69 12.9828 4.26323 13.5365L4.98677 15.401C6.35166 14.8714 7.87623 14.3594 9.56215 13.866L9.00035 11.9465ZM5.625 14.4688V4.15625H3.625V14.4688H5.625ZM4.87404 5.12474C6.30975 4.75556 7.92563 4.39515 9.72303 4.04394L9.33947 2.08106C7.51187 2.43818 5.85691 2.80694 4.37596 3.18776L4.87404 5.12474ZM9.72303 4.04394C11.5125 3.69427 13.3761 3.3956 15.3141 3.1482L15.0609 1.1643C13.0822 1.4169 11.175 1.7224 9.33947 2.08106L9.72303 4.04394ZM15.3245 3.14682C17.2612 2.87898 19.2189 2.67289 21.1977 2.5286L21.0523 0.533898C19.0311 0.681276 17.0305 0.891851 15.0505 1.16568L15.3245 3.14682ZM21.208 2.5278C23.183 2.36322 25.0718 2.28125 26.875 2.28125V0.28125C25.0115 0.28125 23.067 0.365949 21.042 0.534704L21.208 2.5278ZM26.875 2.28125C30.424 2.28125 33.6808 2.57877 36.6489 3.16834L37.0386 1.20666C33.9234 0.587897 30.5343 0.28125 26.875 0.28125V2.28125ZM36.6554 3.1696C39.6128 3.73677 42.1185 4.62127 44.1914 5.80574L45.1836 4.06926C42.8815 2.75373 40.1581 1.8049 37.0321 1.2054L36.6554 3.1696ZM44.1949 5.80776C46.2782 6.98696 47.8703 8.46264 49.002 10.2273L50.6855 9.14767C49.3589 7.07903 47.5135 5.38804 45.1801 4.06724L44.1949 5.80776ZM49.0061 10.2338C50.1344 11.9638 50.7188 14.0484 50.7188 16.5312H52.7188C52.7188 13.7225 52.0531 11.2446 50.6814 9.14123L49.0061 10.2338ZM50.7188 16.5312V45H52.7188V16.5312H50.7188ZM51.7188 44H40.125V46H51.7188V44ZM40.0876 24.4069C35.6164 24.5741 31.8027 24.8147 28.6505 25.13L28.8495 27.12C31.9473 26.8103 35.7169 26.5717 40.1624 26.4056L40.0876 24.4069ZM28.6498 25.13C25.5269 25.4444 22.9082 25.8131 20.802 26.2386L21.198 28.1989C23.2168 27.7911 25.7648 27.4306 28.8502 27.12L28.6498 25.13ZM20.802 26.2386C18.7123 26.6607 17.0198 27.1231 15.7508 27.6352L16.4992 29.4898C17.6052 29.0436 19.1627 28.6101 21.198 28.1989L20.802 26.2386ZM15.7451 27.6375C14.5345 28.1347 13.5486 28.6725 12.8492 29.272L14.1508 30.7905C14.6181 30.39 15.3821 29.9487 16.5049 29.4875L15.7451 27.6375ZM12.8492 29.272C12.1845 29.8418 11.6665 30.496 11.4462 31.2513L13.3662 31.8112C13.4376 31.5665 13.6489 31.2207 14.1508 30.7905L12.8492 29.272ZM11.4361 31.2887C11.2958 31.8501 11.2188 32.3912 11.2188 32.9062H13.2188C13.2188 32.5879 13.2668 32.2124 13.3764 31.7738L11.4361 31.2887ZM11.2188 32.9062C11.2188 33.5957 11.4075 34.2533 11.7544 34.8671L13.4956 33.8829C13.3008 33.5384 13.2188 33.2168 13.2188 32.9062H11.2188ZM11.7641 34.8837C12.1598 35.5535 12.7975 36.0707 13.5621 36.4769L14.5004 34.7106C13.9317 34.4085 13.6318 34.1132 13.4859 33.8663L11.7641 34.8837ZM13.5733 36.4827C14.3785 36.8975 15.3882 37.2023 16.5679 37.4208L16.9321 35.4542C15.8618 35.256 15.059 34.9983 14.4892 34.7048L13.5733 36.4827ZM16.5679 37.4208C17.7745 37.6442 19.2573 37.75 21 37.75V35.75C19.326 35.75 17.9755 35.6474 16.9321 35.4542L16.5679 37.4208ZM21 37.75C22.9473 37.75 24.8547 37.6002 26.7214 37.2998L26.4036 35.3252C24.6453 35.6081 22.8444 35.75 21 35.75V37.75ZM26.7214 37.2998C28.576 37.0013 30.3402 36.5954 32.0128 36.0808L31.4247 34.1692C29.8473 34.6546 28.174 35.0403 26.4036 35.3252L26.7214 37.2998ZM32.024 36.0773C33.6903 35.5432 35.2553 34.9219 36.7178 34.2122L35.8447 32.4128C34.4738 33.0781 32.9972 33.6651 31.4135 34.1727L32.024 36.0773ZM36.7233 34.2095C38.1999 33.4819 39.5269 32.7062 40.7005 31.8803L39.5495 30.2447C38.4731 31.0021 37.2376 31.7264 35.8392 32.4155L36.7233 34.2095ZM41.125 31.0625V25.4062H39.125V31.0625H41.125ZM76.375 2.0625H77.375V1.0625H76.375V2.0625ZM76.7812 30.625L75.8019 30.8271L75.8025 30.8302L76.7812 30.625ZM78.2812 33.9688L77.4919 34.5827L77.4986 34.5913L78.2812 33.9688ZM81.3438 36.125L80.9749 37.0546L80.9878 37.0595L81.3438 36.125ZM91.4375 36.2188L91.195 35.2486L91.1922 35.2493L91.4375 36.2188ZM101.5 31.9688L102.02 32.8232L102.023 32.8212L101.5 31.9688ZM105.688 29L106.326 29.7693L106.688 29.4694V29H105.688ZM105.688 2.0625V1.0625H104.688V2.0625H105.688ZM117.25 2.0625H118.25V1.0625H117.25V2.0625ZM117.25 45V46H118.25V45H117.25ZM105.688 45H104.688V46H105.688V45ZM105.688 39.125H106.688V37.4018L105.191 38.2568L105.688 39.125ZM101.031 41.6562L101.483 42.5485L101.492 42.5438L101.031 41.6562ZM95.7812 43.9375L96.1196 44.8786L96.1289 44.8751L95.7812 43.9375ZM89.875 45.5625L89.6789 44.5819L89.6695 44.5838L89.875 45.5625ZM75.5 45.1562L75.7953 44.2008L75.7873 44.1984L75.5 45.1562ZM69.6875 42.2188L69.0554 42.9936L69.0616 42.9986L69.6875 42.2188ZM66.0312 37.5625L65.1208 37.9763L65.1267 37.9888L66.0312 37.5625ZM64.7812 2.0625V1.0625H63.7812V2.0625H64.7812ZM75.375 2.0625V26.25H77.375V2.0625H75.375ZM75.375 26.25C75.375 27.9092 75.515 29.4366 75.8019 30.8271L77.7606 30.4229C77.5059 29.1884 77.375 27.7991 77.375 26.25H75.375ZM75.8025 30.8302C76.1011 32.254 76.6594 33.5123 77.4919 34.5827L79.0706 33.3548C78.4448 32.5502 78.0031 31.5793 77.76 30.4198L75.8025 30.8302ZM77.4986 34.5913C78.3569 35.6702 79.5334 36.4825 80.9749 37.0545L81.7126 35.1955C80.5291 34.7259 79.6639 34.1006 79.0639 33.3462L77.4986 34.5913ZM80.9878 37.0595C82.4558 37.6187 84.2976 37.875 86.4688 37.875V35.875C84.4316 35.875 82.8567 35.6313 81.6997 35.1905L80.9878 37.0595ZM86.4688 37.875C88.1445 37.875 89.8834 37.6435 91.6828 37.1882L91.1922 35.2493C89.5333 35.669 87.9597 35.875 86.4688 35.875V37.875ZM91.68 37.1889C93.4828 36.7382 95.2621 36.1378 97.0176 35.3885L96.2324 33.549C94.5713 34.2581 92.8922 34.8243 91.195 35.2486L91.68 37.1889ZM97.0176 35.3885C98.7685 34.6411 100.436 33.7862 102.02 32.8232L100.98 31.1143C99.4807 32.0263 97.8982 32.838 96.2324 33.549L97.0176 35.3885ZM102.023 32.8212C103.62 31.8415 105.056 30.8246 106.326 29.7693L105.049 28.2307C103.861 29.2171 102.505 30.1793 100.977 31.1163L102.023 32.8212ZM106.688 29V2.0625H104.688V29H106.688ZM105.688 3.0625H117.25V1.0625H105.688V3.0625ZM116.25 2.0625V45H118.25V2.0625H116.25ZM117.25 44H105.688V46H117.25V44ZM106.688 45V39.125H104.688V45H106.688ZM105.191 38.2568C103.746 39.0828 102.206 39.9201 100.571 40.7687L101.492 42.5438C103.148 41.6841 104.712 40.8339 106.184 39.9932L105.191 38.2568ZM100.58 40.7641C98.9698 41.5791 97.2548 42.3246 95.4336 42.9999L96.1289 44.8751C98.0161 44.1754 99.801 43.4 101.483 42.5484L100.58 40.7641ZM95.4429 42.9965C93.6385 43.6452 91.7176 44.1742 89.6789 44.5819L90.0711 46.5431C92.199 46.1175 94.2156 45.5631 96.1196 44.8785L95.4429 42.9965ZM89.6695 44.5838C87.6593 45.006 85.5306 45.2188 83.2812 45.2188V47.2188C85.6569 47.2188 87.9241 46.994 90.0805 46.5412L89.6695 44.5838ZM83.2812 45.2188C80.4655 45.2188 77.9739 44.8742 75.7953 44.2008L75.2047 46.1117C77.6094 46.8549 80.3053 47.2188 83.2812 47.2188V45.2188ZM75.7873 44.1984C73.5973 43.5414 71.7802 42.6161 70.3134 41.4389L69.0616 42.9986C70.7615 44.363 72.8193 45.3961 75.2127 46.1141L75.7873 44.1984ZM70.3196 41.4439C68.8496 40.2447 67.7251 38.8109 66.9358 37.1362L65.1267 37.9888C66.0458 39.9391 67.3587 41.6095 69.0554 42.9936L70.3196 41.4439ZM66.9416 37.1487C66.1739 35.4598 65.7812 33.5616 65.7812 31.4375H63.7812C63.7812 33.8134 64.2219 35.9985 65.1209 37.9763L66.9416 37.1487ZM65.7812 31.4375V2.0625H63.7812V31.4375H65.7812ZM64.7812 3.0625H76.375V1.0625H64.7812V3.0625ZM182.406 30.8438L183.368 31.1172L183.369 31.1148L182.406 30.8438ZM179.844 36.4062L179.023 35.8342L179.018 35.8416L179.844 36.4062ZM175.906 40.4375L175.324 39.6245L175.319 39.6283L175.906 40.4375ZM170.812 43.0938L170.477 42.1515L170.812 43.0938ZM164.75 44.5625L164.883 45.5536L164.893 45.5523L164.75 44.5625ZM130.719 45H129.719V46H130.719V45ZM130.719 2.0625V1.0625H129.719V2.0625H130.719ZM164.688 2.53125L164.545 3.52105L164.554 3.52231L164.688 2.53125ZM170.75 3.96875L170.415 4.91097L170.418 4.91212L170.75 3.96875ZM175.906 6.625L175.324 7.43802L175.331 7.44319L175.906 6.625ZM179.844 10.6562L179.015 11.2159L179.019 11.2221L179.023 11.2283L179.844 10.6562ZM170.812 18.125L169.866 18.449L169.87 18.4605L170.812 18.125ZM168.25 14.375L167.599 15.1343L167.606 15.1405L167.614 15.1465L168.25 14.375ZM163.656 12.1562L163.401 13.1232L163.411 13.1258L163.656 12.1562ZM142.312 11.4062V10.4062H141.312V11.4062H142.312ZM142.312 35.6562H141.312V36.6562H142.312V35.6562ZM163.656 34.9375L163.901 35.9071L163.911 35.9044L163.656 34.9375ZM168.25 32.6875L168.901 33.4468L168.902 33.4458L168.25 32.6875ZM170.812 28.875L169.87 28.5395L169.866 28.551L170.812 28.875ZM182.312 23.5C182.312 26.1788 182.018 28.5328 181.444 30.5727L183.369 31.1148C184.003 28.863 184.312 26.3212 184.312 23.5H182.312ZM181.444 30.5703C180.866 32.6038 180.056 34.354 179.023 35.8342L180.664 36.9783C181.84 35.2919 182.738 33.3337 183.368 31.1172L181.444 30.5703ZM179.018 35.8416C178 37.3297 176.77 38.5891 175.324 39.6245L176.489 41.2505C178.126 40.0776 179.521 38.6494 180.669 36.9709L179.018 35.8416ZM175.319 39.6283C173.88 40.6731 172.268 41.515 170.477 42.1515L171.148 44.036C173.107 43.3391 174.891 42.4103 176.494 41.2467L175.319 39.6283ZM170.477 42.1515C168.671 42.794 166.715 43.2688 164.607 43.5727L164.893 45.5523C167.118 45.2312 169.204 44.7269 171.148 44.036L170.477 42.1515ZM164.617 43.5714C162.497 43.8567 160.282 44 157.969 44V46C160.364 46 162.669 45.8516 164.883 45.5536L164.617 43.5714ZM157.969 44H130.719V46H157.969V44ZM131.719 45V2.0625H129.719V45H131.719ZM130.719 3.0625H157.906V1.0625H130.719V3.0625ZM157.906 3.0625C160.216 3.0625 162.429 3.21582 164.545 3.52101L164.83 1.54149C162.613 1.22168 160.305 1.0625 157.906 1.0625V3.0625ZM164.554 3.52231C166.659 3.80562 168.611 4.26967 170.415 4.91096L171.085 3.02654C169.139 2.33449 167.05 1.84021 164.821 1.54019L164.554 3.52231ZM170.418 4.91212C172.23 5.54928 173.864 6.39212 175.324 7.43799L176.489 5.81201C174.865 4.64955 173.061 3.72156 171.082 3.02538L170.418 4.91212ZM175.331 7.44319C176.771 8.45459 177.998 9.70984 179.015 11.2159L180.672 10.0966C179.523 8.39432 178.125 6.96207 176.481 5.80681L175.331 7.44319ZM179.023 11.2283C180.056 12.7085 180.866 14.4587 181.444 16.4922L183.368 15.9453C182.738 13.7288 181.84 11.7706 180.664 10.0842L179.023 11.2283ZM181.444 16.4922C182.018 18.5103 182.312 20.8425 182.312 23.5H184.312C184.312 20.6991 184.003 18.1772 183.368 15.9453L181.444 16.4922ZM172.625 23.5C172.625 21.3534 172.344 19.4432 171.755 17.7895L169.87 18.4605C170.365 19.8485 170.625 21.5216 170.625 23.5H172.625ZM171.759 17.801C171.181 16.1134 170.223 14.7056 168.886 13.6035L167.614 15.1465C168.652 16.0027 169.403 17.095 169.866 18.449L171.759 17.801ZM168.901 13.6157C167.589 12.4917 165.907 11.6937 163.901 11.1867L163.411 13.1258C165.197 13.5771 166.577 14.2583 167.599 15.1343L168.901 13.6157ZM163.911 11.1893C161.907 10.6607 159.503 10.4062 156.719 10.4062V12.4062C159.393 12.4062 161.614 12.6518 163.401 13.1232L163.911 11.1893ZM156.719 10.4062H142.312V12.4062H156.719V10.4062ZM141.312 11.4062V35.6562H143.312V11.4062H141.312ZM142.312 36.6562H156.719V34.6562H142.312V36.6562ZM156.719 36.6562C159.501 36.6562 161.901 36.4126 163.901 35.907L163.411 33.968C161.62 34.4207 159.395 34.6562 156.719 34.6562V36.6562ZM163.911 35.9044C165.914 35.3762 167.592 34.5682 168.901 33.4468L167.599 31.9282C166.574 32.8068 165.19 33.4988 163.401 33.9706L163.911 35.9044ZM168.902 33.4458C170.228 32.3058 171.182 30.8835 171.759 29.199L169.866 28.551C169.402 29.9082 168.647 31.0276 167.598 31.9292L168.902 33.4458ZM171.755 29.2105C172.344 27.5568 172.625 25.6466 172.625 23.5H170.625C170.625 25.4784 170.365 27.1515 169.87 28.5395L171.755 29.2105ZM193.906 45H192.906V46H193.906V45ZM193.906 2.0625V1.0625H192.906V2.0625H193.906ZM205.5 2.0625H206.5V1.0625H205.5V2.0625ZM205.5 45V46H206.5V45H205.5ZM194.906 45V2.0625H192.906V45H194.906ZM193.906 3.0625H205.5V1.0625H193.906V3.0625ZM204.5 2.0625V45H206.5V2.0625H204.5ZM205.5 44H193.906V46H205.5V44ZM243.031 11.4062V10.4062H242.031V11.4062H243.031ZM243.031 45V46H244.031V45H243.031ZM231.438 45H230.438V46H231.438V45ZM231.438 11.4062H232.438V10.4062H231.438V11.4062ZM213.219 11.4062H212.219V12.4062H213.219V11.4062ZM213.219 2.0625V1.0625H212.219V2.0625H213.219ZM261.281 2.0625H262.281V1.0625H261.281V2.0625ZM261.281 11.4062V12.4062H262.281V11.4062H261.281ZM242.031 11.4062V45H244.031V11.4062H242.031ZM243.031 44H231.438V46H243.031V44ZM232.438 45V11.4062H230.438V45H232.438ZM231.438 10.4062H213.219V12.4062H231.438V10.4062ZM214.219 11.4062V2.0625H212.219V11.4062H214.219ZM213.219 3.0625H261.281V1.0625H213.219V3.0625ZM260.281 2.0625V11.4062H262.281V2.0625H260.281ZM261.281 10.4062H243.031V12.4062H261.281V10.4062ZM268.969 45H267.969V46H268.969V45ZM268.969 2.0625V1.0625H267.969V2.0625H268.969ZM280.562 2.0625H281.562V1.0625H280.562V2.0625ZM280.562 45V46H281.562V45H280.562ZM269.969 45V2.0625H267.969V45H269.969ZM268.969 3.0625H280.562V1.0625H268.969V3.0625ZM279.562 2.0625V45H281.562V2.0625H279.562ZM280.562 44H268.969V46H280.562V44ZM334.938 45H333.938V46H334.938V45ZM334.531 16.5938L333.552 16.7958L333.553 16.799L334.531 16.5938ZM333 13.25L332.211 13.8639L332.218 13.8737L332.226 13.8832L333 13.25ZM329.906 11.0938L329.537 12.0232L329.546 12.0267L329.555 12.0301L329.906 11.0938ZM319.812 10.9688L320.047 11.941L320.055 11.9389L319.812 10.9688ZM314.656 12.6562L315.039 13.58L314.656 12.6562ZM309.75 15.125L309.236 14.2675L309.23 14.2706L309.75 15.125ZM305.625 18.0625L304.98 17.2986L304.625 17.5982V18.0625H305.625ZM305.625 45V46H306.625V45H305.625ZM294.031 45H293.031V46H294.031V45ZM294.031 2.0625V1.0625H293.031V2.0625H294.031ZM305.625 2.0625H306.625V1.0625H305.625V2.0625ZM305.625 7.9375H304.625V9.66068L306.121 8.80574L305.625 7.9375ZM310.281 5.46875L310.724 6.36548L310.733 6.36091L310.281 5.46875ZM335.781 2.03125L335.483 2.98594L335.494 2.98908L335.781 2.03125ZM341.594 5L340.962 5.77489L340.968 5.77987L341.594 5ZM345.219 9.65625L344.308 10.0701L344.314 10.0825L345.219 9.65625ZM346.5 45V46H347.5V45H346.5ZM335.938 45V20.9375H333.938V45H335.938ZM335.938 20.9375C335.938 19.2786 335.798 17.7603 335.51 16.3885L333.553 16.799C333.807 18.0106 333.938 19.3881 333.938 20.9375H335.938ZM335.511 16.3917C335.211 14.942 334.639 13.6741 333.774 12.6168L332.226 13.8832C332.861 14.6593 333.309 15.6205 333.552 16.7958L335.511 16.3917ZM333.789 12.6361C332.926 11.526 331.729 10.7093 330.257 10.1574L329.555 12.0301C330.75 12.4782 331.616 13.099 332.211 13.8639L333.789 12.6361ZM330.275 10.1643C328.803 9.58024 326.968 9.3125 324.812 9.3125V11.3125C326.824 11.3125 328.384 11.5656 329.537 12.0232L330.275 10.1643ZM324.812 9.3125C323.137 9.3125 321.388 9.54397 319.57 9.99861L320.055 11.9389C321.737 11.5185 323.321 11.3125 324.812 11.3125V9.3125ZM319.578 9.99658C317.796 10.426 316.028 11.005 314.273 11.7325L315.039 13.58C316.701 12.8909 318.37 12.3449 320.047 11.9409L319.578 9.99658ZM314.273 11.7325C312.52 12.4594 310.841 13.3043 309.236 14.2675L310.264 15.9825C311.784 15.0707 313.376 14.2698 315.039 13.58L314.273 11.7325ZM309.23 14.2706C307.651 15.2313 306.233 16.2401 304.98 17.2986L306.27 18.8264C307.434 17.8432 308.766 16.8937 310.27 15.9794L309.23 14.2706ZM304.625 18.0625V45H306.625V18.0625H304.625ZM305.625 44H294.031V46H305.625V44ZM295.031 45V2.0625H293.031V45H295.031ZM294.031 3.0625H305.625V1.0625H294.031V3.0625ZM304.625 2.0625V7.9375H306.625V2.0625H304.625ZM306.121 8.80574C307.56 7.9833 309.095 7.16981 310.724 6.36544L309.839 4.57206C308.176 5.39269 306.606 6.22504 305.129 7.06926L306.121 8.80574ZM310.733 6.36091C312.34 5.54739 314.052 4.81344 315.87 4.15977L315.193 2.27773C313.303 2.9574 311.514 3.72344 309.83 4.57659L310.733 6.36091ZM315.87 4.15977C317.674 3.51101 319.595 2.98208 321.634 2.57433L321.241 0.613169C319.113 1.03876 317.097 1.59315 315.193 2.27773L315.87 4.15977ZM321.634 2.57433C323.647 2.17166 325.779 1.96875 328.031 1.96875V-0.03125C325.659 -0.03125 323.395 0.182509 321.241 0.613169L321.634 2.57433ZM328.031 1.96875C330.847 1.96875 333.327 2.31332 335.483 2.98589L336.079 1.07661C333.694 0.332508 331.007 -0.03125 328.031 -0.03125V1.96875ZM335.494 2.98908C337.681 3.64519 339.496 4.57917 340.962 5.77487L342.226 4.22513C340.525 2.8375 338.465 1.79231 336.069 1.07342L335.494 2.98908ZM340.968 5.77987C342.43 6.95347 343.54 8.38054 344.308 10.0701L346.129 9.24245C345.23 7.26529 343.924 5.58819 342.22 4.22013L340.968 5.77987ZM344.314 10.0825C345.098 11.7462 345.5 13.6292 345.5 15.75H347.5C347.5 13.3708 347.048 11.1913 346.123 9.22995L344.314 10.0825ZM345.5 15.75V45H347.5V15.75H345.5ZM346.5 44H334.938V46H346.5V44ZM399.156 2.0625L398.958 3.04266L398.964 3.04394L399.156 2.0625ZM409.125 4.8125H410.125V4.11782L409.474 3.87538L409.125 4.8125ZM409.125 15.3125L408.635 16.1845L410.125 17.0207V15.3125H409.125ZM405.094 13.375L404.705 14.2962L404.709 14.2981L405.094 13.375ZM372.281 14.6562L372.964 15.3874L372.972 15.3792L372.281 14.6562ZM368.938 20.5312L369.918 20.7274L368.938 20.5312ZM368.875 26.3438L367.889 26.5081L367.89 26.5181L367.892 26.528L368.875 26.3438ZM369.875 29.3438L368.973 29.7759L368.977 29.7834L368.981 29.791L369.875 29.3438ZM375.344 34.6562L374.891 35.548L374.897 35.5507L375.344 34.6562ZM380.438 36.375L380.222 37.3515L380.231 37.3535L380.438 36.375ZM393.875 36.5312L393.707 35.5455L393.703 35.5462L393.875 36.5312ZM396.25 36L395.982 35.0365L395.975 35.0385L396.25 36ZM398.562 35.3438L398.841 36.3043L399.562 36.0953V35.3438H398.562ZM398.562 30.1562H399.562V29.1562H398.562V30.1562ZM385.562 30.1562H384.562V31.1562H385.562V30.1562ZM385.562 20.75V19.75H384.562V20.75H385.562ZM410.156 20.75H411.156V19.75H410.156V20.75ZM410.156 42.6875L410.476 43.6349L411.156 43.4052V42.6875H410.156ZM404.969 44.125L405.183 45.1017L405.191 45.0999L404.969 44.125ZM399.062 45.1875L398.921 44.1975L398.91 44.1992L399.062 45.1875ZM371.844 43.875L371.509 44.8174L371.52 44.821L371.844 43.875ZM365.719 40.875L365.168 41.71L365.173 41.7128L365.719 40.875ZM361 36.5625L360.21 37.1751L360.214 37.1812L361 36.5625ZM357.969 30.8438L357.018 31.1545L357.022 31.1655L357.969 30.8438ZM361.156 10.5625L360.38 9.93189L360.375 9.93781L361.156 10.5625ZM366 6.25L365.463 5.40671L365.458 5.40943L366 6.25ZM372.219 3.28125L372.543 4.22729L372.548 4.22551L372.219 3.28125ZM379.469 1.53125L379.325 0.541622L379.324 0.541789L379.469 1.53125ZM387.438 1.96875C391.589 1.96875 395.428 2.32841 398.958 3.04264L399.355 1.08236C395.677 0.338253 391.703 -0.03125 387.438 -0.03125V1.96875ZM398.964 3.04394C402.544 3.74329 405.813 4.64617 408.776 5.74962L409.474 3.87538C406.395 2.72883 403.019 1.79838 399.348 1.08106L398.964 3.04394ZM408.125 4.8125V15.3125H410.125V4.8125H408.125ZM409.615 14.4405C408.387 13.7516 407.008 13.0891 405.478 12.4519L404.709 14.2981C406.18 14.9109 407.488 15.5401 408.635 16.1845L409.615 14.4405ZM405.483 12.4539C403.958 11.8096 402.301 11.2436 400.514 10.7543L399.986 12.6832C401.699 13.1522 403.271 13.6904 404.705 14.2961L405.483 12.4539ZM400.514 10.7543C398.721 10.2632 396.805 9.86987 394.769 9.57297L394.481 11.552C396.445 11.8385 398.279 12.216 399.986 12.6832L400.514 10.7543ZM394.769 9.57297C392.717 9.27373 390.565 9.125 388.312 9.125V11.125C390.477 11.125 392.533 11.2679 394.481 11.552L394.769 9.57297ZM388.312 9.125C385.518 9.125 383.055 9.32588 380.935 9.73703L381.315 11.7005C383.278 11.32 385.607 11.125 388.312 11.125V9.125ZM380.935 9.73703C378.837 10.1437 377.007 10.6954 375.459 11.403L376.291 13.222C377.659 12.5963 379.33 12.0854 381.315 11.7005L380.935 9.73703ZM375.459 11.403C373.923 12.1055 372.625 12.9446 371.59 13.9333L372.972 15.3792C373.812 14.5762 374.911 13.8528 376.291 13.222L375.459 11.403ZM371.599 13.9252C370.592 14.8646 369.782 15.8862 369.183 16.9925L370.942 17.945C371.426 17.0513 372.095 16.1979 372.964 15.3873L371.599 13.9252ZM369.183 16.9925C368.597 18.0741 368.186 19.1889 367.957 20.3351L369.918 20.7274C370.105 19.7903 370.444 18.8634 370.942 17.945L369.183 16.9925ZM367.957 20.3351C367.737 21.436 367.625 22.5122 367.625 23.5625H369.625C369.625 22.6545 369.722 21.7099 369.918 20.7274L367.957 20.3351ZM367.625 23.5625C367.625 24.4808 367.715 25.4635 367.889 26.5081L369.861 26.1794C369.702 25.224 369.625 24.3525 369.625 23.5625H367.625ZM367.892 26.528C368.097 27.6211 368.46 28.7042 368.973 29.7759L370.777 28.9116C370.332 27.9833 370.028 27.0664 369.858 26.1595L367.892 26.528ZM368.981 29.791C369.531 30.8911 370.279 31.9299 371.214 32.9092L372.661 31.5283C371.846 30.6743 371.219 29.7964 370.769 28.8965L368.981 29.791ZM371.214 32.9092C372.183 33.9245 373.417 34.8 374.891 35.548L375.796 33.7645C374.479 33.0958 373.442 32.3463 372.661 31.5283L371.214 32.9092ZM374.897 35.5507C376.404 36.3043 378.183 36.9009 380.222 37.3514L380.653 35.3986C378.733 34.9741 377.117 34.4249 375.791 33.7618L374.897 35.5507ZM380.231 37.3535C382.297 37.7884 384.724 38 387.5 38V36C384.818 36 382.536 35.7949 380.644 35.3965L380.231 37.3535ZM387.5 38C388.894 38 390.12 37.9578 391.175 37.8717L391.012 35.8783C390.026 35.9588 388.856 36 387.5 36V38ZM391.175 37.8717C392.22 37.7864 393.178 37.6683 394.047 37.5163L393.703 35.5462C392.905 35.6858 392.009 35.797 391.012 35.8783L391.175 37.8717ZM394.043 37.517C394.928 37.3659 395.756 37.1811 396.525 36.9615L395.975 35.0385C395.286 35.2355 394.53 35.405 393.707 35.5455L394.043 37.517ZM396.518 36.9635C397.271 36.7542 398.046 36.5344 398.841 36.3043L398.284 34.3832C397.496 34.6114 396.729 34.8292 395.982 35.0365L396.518 36.9635ZM399.562 35.3438V30.1562H397.562V35.3438H399.562ZM398.562 29.1562H385.562V31.1562H398.562V29.1562ZM386.562 30.1562V20.75H384.562V30.1562H386.562ZM385.562 21.75H410.156V19.75H385.562V21.75ZM409.156 20.75V42.6875H411.156V20.75H409.156ZM409.836 41.7401C408.332 42.2482 406.636 42.7186 404.746 43.1501L405.191 45.0999C407.134 44.6564 408.897 44.1685 410.476 43.6349L409.836 41.7401ZM404.754 43.1483C402.884 43.5593 400.94 43.9092 398.921 44.1976L399.204 46.1774C401.269 45.8825 403.262 45.524 405.183 45.1017L404.754 43.1483ZM398.91 44.1992C396.913 44.5081 394.905 44.7448 392.887 44.9096L393.05 46.9029C395.116 46.7343 397.171 46.4919 399.215 46.1758L398.91 44.1992ZM392.887 44.9096C390.869 45.0743 388.97 45.1562 387.188 45.1562V47.1562C389.03 47.1562 390.985 47.0715 393.05 46.9029L392.887 44.9096ZM387.188 45.1562C384.419 45.1562 381.77 44.9717 379.237 44.6041L378.95 46.5834C381.585 46.9658 384.331 47.1562 387.188 47.1562V45.1562ZM379.237 44.6041C376.71 44.2372 374.354 43.6779 372.168 42.929L371.52 44.821C373.834 45.6138 376.311 46.2003 378.95 46.5834L379.237 44.6041ZM372.178 42.9327C370.018 42.1656 368.048 41.1996 366.265 40.0372L365.173 41.7128C367.097 42.967 369.211 44.0011 371.509 44.8173L372.178 42.9327ZM366.269 40.04C364.522 38.8886 363.029 37.5233 361.786 35.9438L360.214 37.1812C361.596 38.935 363.249 40.4447 365.168 41.71L366.269 40.04ZM361.79 35.9499C360.572 34.3772 359.612 32.5708 358.916 30.522L357.022 31.1655C357.784 33.4084 358.845 35.4145 360.21 37.1751L361.79 35.9499ZM358.919 30.533C358.249 28.4828 357.906 26.1628 357.906 23.5625H355.906C355.906 26.3372 356.272 28.8714 357.018 31.1545L358.919 30.533ZM357.906 23.5625C357.906 20.9894 358.268 18.6855 358.976 16.6396L357.086 15.9854C356.294 18.2729 355.906 20.8023 355.906 23.5625H357.906ZM358.976 16.6396C359.692 14.5727 360.68 12.7584 361.937 11.1872L360.375 9.93781C358.966 11.7 357.871 13.7189 357.086 15.9854L358.976 16.6396ZM361.932 11.1931C363.217 9.61149 364.752 8.24396 366.542 7.09057L365.458 5.40943C363.498 6.67271 361.803 8.18017 360.38 9.93191L361.932 11.1931ZM366.537 7.09328C368.363 5.92991 370.363 4.97391 372.543 4.22727L371.895 2.33523C369.574 3.13025 367.429 4.15342 365.463 5.40672L366.537 7.09328ZM372.548 4.22551C374.755 3.45625 377.109 2.88722 379.614 2.52071L379.324 0.541789C376.703 0.925276 374.225 1.52291 371.89 2.33699L372.548 4.22551ZM379.612 2.52088C382.146 2.15309 384.754 1.96875 387.438 1.96875V-0.03125C384.662 -0.03125 381.958 0.159411 379.325 0.541622L379.612 2.52088Z" fill="url(#paint0_linear_106_72)"/>
<defs>
<linearGradient id="paint0_linear_106_72" x1="197.725" y1="-93.25" x2="223.807" y2="81.1609" gradientUnits="userSpaceOnUse">
<stop/>
<stop offset="1" stop-color="white" stop-opacity="0"/>
</linearGradient>
</defs>
</svg>
