<svg width="541" height="47" viewBox="0 0 541 47" fill="none" xmlns="http://www.w3.org/2000/svg">
<path d="M51.0312 42.0625L51.4159 42.9856L52.0312 42.7292V42.0625H51.0312ZM41.7812 45.0312L41.5683 44.0541L41.5564 44.0569L41.7812 45.0312ZM36.625 45.875L36.5221 44.8803L36.5209 44.8804L36.625 45.875ZM18.75 44.75L18.5023 45.7188L18.5036 45.7192L18.75 44.75ZM9.25 40.5312L8.66753 41.3442L8.67482 41.3493L9.25 40.5312ZM3.0625 33.4688L2.17603 33.9315L2.17744 33.9342L3.0625 33.4688ZM3.0625 13.6875L3.94756 14.153L3.94897 14.1503L3.0625 13.6875ZM9.25 6.625L9.8282 7.4409L9.82943 7.44002L9.25 6.625ZM18.75 2.375L18.5036 1.40583L18.5023 1.40617L18.75 2.375ZM36.625 1.25L36.5209 2.24457L36.5221 2.24469L36.625 1.25ZM41.7812 2.09375L41.5564 3.06821L41.5683 3.07081L41.7812 2.09375ZM51.0312 5.0625H52.0312V4.39583L51.4159 4.13942L51.0312 5.0625ZM51.0312 15.5L50.5535 16.3785L52.0312 17.1822V15.5H51.0312ZM47.2812 13.5938L46.8397 14.4911L46.8513 14.4966L47.2812 13.5938ZM42.9375 11.875L42.625 12.825L42.6364 12.8286L42.9375 11.875ZM37.7188 10.625L37.5456 11.6099L37.5561 11.6117L37.7188 10.625ZM22.2188 11.25L21.9223 10.2949L21.92 10.2957L22.2188 11.25ZM13.4375 18.5625L14.3773 18.9042L14.3787 18.9004L13.4375 18.5625ZM12.9375 26.9688L11.9613 27.1857L11.9622 27.1896L12.9375 26.9688ZM14.1875 30.125L13.3237 30.6289L13.3284 30.6368L14.1875 30.125ZM24.8438 36.4375L24.6561 37.4198L24.6687 37.4221L24.8438 36.4375ZM37.7188 36.5L37.8708 37.4884L37.8814 37.4867L37.7188 36.5ZM47.2812 33.5938L47.7112 34.4967L47.7228 34.491L47.2812 33.5938ZM51.0312 31.625H52.0312V29.9168L50.5417 30.753L51.0312 31.625ZM50.6466 41.1394C49.17 41.7547 47.6837 42.3082 46.1877 42.8L46.8123 44.7C48.358 44.1918 49.8925 43.6203 51.4159 42.9856L50.6466 41.1394ZM46.1877 42.8C44.7007 43.2889 43.161 43.7071 41.5683 44.0542L41.9942 46.0083C43.6515 45.6471 45.2576 45.2111 46.8123 44.7L46.1877 42.8ZM41.5564 44.0569C39.9751 44.4218 38.2973 44.6967 36.5221 44.8803L36.7279 46.8697C38.5777 46.6783 40.3374 46.3907 42.0061 46.0056L41.5564 44.0569ZM36.5209 44.8804C34.7683 45.0638 32.8764 45.1562 30.8438 45.1562V47.1562C32.9361 47.1562 34.8983 47.0612 36.7291 46.8696L36.5209 44.8804ZM30.8438 45.1562C26.5397 45.1562 22.5924 44.6951 18.9964 43.7808L18.5036 45.7192C22.2826 46.6799 26.3978 47.1562 30.8438 47.1562V45.1562ZM18.9977 43.7812C15.4298 42.8689 12.3782 41.5083 9.82518 39.7132L8.67482 41.3493C11.4552 43.3042 14.7368 44.7561 18.5023 45.7188L18.9977 43.7812ZM9.83245 39.7184C7.30997 37.9109 5.35247 35.6746 3.94756 33.0033L2.17744 33.9342C3.73086 36.8879 5.89837 39.3599 8.66755 41.3441L9.83245 39.7184ZM3.94897 33.006C2.55671 30.3391 1.84375 27.2011 1.84375 23.5625H-0.15625C-0.15625 27.4656 0.60996 30.9317 2.17603 33.9315L3.94897 33.006ZM1.84375 23.5625C1.84375 19.9237 2.55678 16.7974 3.94756 14.153L2.17744 13.222C0.609885 16.2026 -0.15625 19.6597 -0.15625 23.5625H1.84375ZM3.94897 14.1503C5.3537 11.4595 7.30968 9.22567 9.8282 7.4409L8.6718 5.8091C5.89865 7.77433 3.72963 10.2488 2.17603 13.2247L3.94897 14.1503ZM9.82943 7.44002C12.3815 5.62564 15.4317 4.25559 18.9977 3.34383L18.5023 1.40617C14.7349 2.36941 11.4518 3.83269 8.67057 5.80998L9.82943 7.44002ZM18.9964 3.34417C22.5924 2.42993 26.5397 1.96875 30.8438 1.96875V-0.03125C26.3978 -0.03125 22.2826 0.44507 18.5036 1.40583L18.9964 3.34417ZM30.8438 1.96875C32.8764 1.96875 34.7683 2.06116 36.5209 2.24457L36.7291 0.255431C34.8983 0.0638394 32.9361 -0.03125 30.8438 -0.03125V1.96875ZM36.5221 2.24469C38.2973 2.42833 39.9751 2.70322 41.5564 3.06814L42.0061 1.11936C40.3374 0.734278 38.5777 0.446668 36.7279 0.255308L36.5221 2.24469ZM41.5683 3.07081C43.161 3.41795 44.7007 3.83611 46.1877 4.32498L46.8123 2.42502C45.2576 1.91389 43.6515 1.47789 41.9942 1.11669L41.5683 3.07081ZM46.1877 4.32498C47.6837 4.81682 49.17 5.37032 50.6466 5.98558L51.4159 4.13942C49.8925 3.50468 48.358 2.93318 46.8123 2.42502L46.1877 4.32498ZM50.0312 5.0625V15.5H52.0312V5.0625H50.0312ZM51.509 14.6215C50.3047 13.9665 49.0386 13.323 47.7112 12.6909L46.8513 14.4966C48.1489 15.1145 49.3828 15.7418 50.5535 16.3785L51.509 14.6215ZM47.7228 12.6965C46.3594 12.0256 44.8638 11.4346 43.2386 10.9214L42.6364 12.8286C44.1779 13.3154 45.5781 13.8702 46.8397 14.491L47.7228 12.6965ZM43.25 10.9251C41.611 10.3859 39.8205 9.95795 37.8814 9.63831L37.5561 11.6117C39.4086 11.917 41.0973 12.3224 42.625 12.8249L43.25 10.9251ZM37.8919 9.64011C35.9275 9.29472 33.7327 9.125 31.3125 9.125V11.125C33.6423 11.125 35.7183 11.2886 37.5456 11.6099L37.8919 9.64011ZM31.3125 9.125C27.6064 9.125 24.4671 9.5052 21.9223 10.2949L22.5152 12.2051C24.8038 11.4948 27.7269 11.125 31.3125 11.125V9.125ZM21.92 10.2957C19.4324 11.0744 17.3816 12.131 15.8126 13.4954L17.1249 15.0046C18.4309 13.869 20.2135 12.9256 22.5175 12.2043L21.92 10.2957ZM15.8126 13.4954C14.2596 14.8458 13.1433 16.4224 12.4963 18.2246L14.3787 18.9004C14.8984 17.4526 15.8029 16.1542 17.1249 15.0046L15.8126 13.4954ZM12.4977 18.2208C11.874 19.9359 11.5625 21.7183 11.5625 23.5625H13.5625C13.5625 21.9483 13.8343 20.3974 14.3773 18.9042L12.4977 18.2208ZM11.5625 23.5625C11.5625 24.7817 11.6956 25.9899 11.9613 27.1857L13.9137 26.7518C13.6794 25.6976 13.5625 24.6349 13.5625 23.5625H11.5625ZM11.9622 27.1896C12.2352 28.3955 12.6902 29.5428 13.3237 30.6289L15.0513 29.6211C14.5182 28.7072 14.1398 27.7504 13.9128 26.7479L11.9622 27.1896ZM13.3284 30.6368C13.9692 31.7124 14.7979 32.6965 15.8044 33.5912L17.1331 32.0963C16.2646 31.3243 15.5725 30.4959 15.0466 29.6132L13.3284 30.6368ZM15.8044 33.5912C16.8361 34.5083 18.0982 35.28 19.5715 35.9177L20.366 34.0823C19.0477 33.5117 17.9764 32.8459 17.1331 32.0963L15.8044 33.5912ZM19.5715 35.9177C21.0485 36.557 22.7464 37.055 24.6561 37.4197L25.0314 35.4553C23.2327 35.1117 21.6807 34.6513 20.366 34.0823L19.5715 35.9177ZM24.6687 37.4221C26.6149 37.768 28.8317 37.9375 31.3125 37.9375V35.9375C28.9183 35.9375 26.8226 35.7736 25.0188 35.4529L24.6687 37.4221ZM31.3125 37.9375C33.7269 37.9375 35.9145 37.7893 37.8708 37.4884L37.5667 35.5116C35.7314 35.794 33.6481 35.9375 31.3125 35.9375V37.9375ZM37.8814 37.4867C39.817 37.1676 41.6036 36.7512 43.2386 36.2348L42.6364 34.3277C41.1047 34.8113 39.4122 35.2074 37.5561 35.5133L37.8814 37.4867ZM43.2386 36.2348C44.86 35.7228 46.3516 35.144 47.7112 34.4966L46.8513 32.6909C45.5859 33.2935 44.1817 33.8397 42.6364 34.3277L43.2386 36.2348ZM47.7228 34.491C49.0503 33.8378 50.3164 33.1731 51.5208 32.497L50.5417 30.753C49.3711 31.4102 48.1372 32.0581 46.8397 32.6965L47.7228 34.491ZM50.0312 31.625V42.0625H52.0312V31.625H50.0312ZM115.375 33.3438L116.276 33.7776L116.277 33.775L115.375 33.3438ZM109.562 40.4062L108.961 39.607L109.562 40.4062ZM100.375 44.7188L100.633 45.6848L100.637 45.6838L100.375 44.7188ZM76.125 44.7188L75.8628 45.6838L75.8694 45.6855L76.125 44.7188ZM61.0312 33.3438L60.1316 33.7803L60.1329 33.783L61.0312 33.3438ZM61.0312 13.8125L61.9296 14.2517L61.9309 14.2491L61.0312 13.8125ZM76.125 2.4375L76.382 3.40393L76.3858 3.4029L76.125 2.4375ZM100.375 2.4375L100.111 3.40216L100.118 3.40392L100.375 2.4375ZM115.375 13.8125L114.473 14.2437L114.474 14.2463L115.375 13.8125ZM104.906 18.7812L103.952 19.0788L103.954 19.0863L103.956 19.0937L104.906 18.7812ZM102.188 14.4688L101.486 15.1816L101.492 15.1872L102.188 14.4688ZM82.125 10.75L82.3211 11.7306L82.3322 11.7283L82.125 10.75ZM74.2812 14.5312L74.9798 15.2469L74.9884 15.2384L74.2812 14.5312ZM72.1875 17.3125L73.0704 17.7821L73.0744 17.7744L72.1875 17.3125ZM71.0625 20.4062L70.0842 20.1993L70.0826 20.2066L70.0812 20.2138L71.0625 20.4062ZM71.0625 26.7812L70.0805 26.9701L70.0822 26.9792L70.0842 26.9882L71.0625 26.7812ZM72.1875 29.9062L71.3006 30.3682L71.3046 30.3759L72.1875 29.9062ZM77.5312 34.9062L77.084 35.8008L77.0957 35.8064L77.5312 34.9062ZM82.125 36.4062L81.9178 37.3846L81.9289 37.3868L82.125 36.4062ZM102.188 32.6562L101.492 31.9378L101.486 31.9434L102.188 32.6562ZM104.906 28.375L103.955 28.0662L103.953 28.0739L104.906 28.375ZM116.406 23.5625C116.406 27.1266 115.752 30.2354 114.473 32.9125L116.277 33.775C117.706 30.7855 118.406 27.3734 118.406 23.5625H116.406ZM114.474 32.9099C113.19 35.5769 111.356 37.8062 108.961 39.607L110.164 41.2055C112.811 39.2146 114.852 36.7356 116.276 33.7776L114.474 32.9099ZM108.961 39.607C106.559 41.414 103.617 42.8018 100.113 43.7537L100.637 45.6838C104.342 44.6773 107.524 43.1902 110.164 41.2055L108.961 39.607ZM100.117 43.7527C96.6329 44.6844 92.6906 45.1562 88.2812 45.1562V47.1562C92.8303 47.1562 96.9505 46.6698 100.633 45.6848L100.117 43.7527ZM88.2812 45.1562C83.8722 45.1562 79.9079 44.6845 76.3806 43.752L75.8694 45.6855C79.5921 46.6697 83.732 47.1562 88.2812 47.1562V45.1562ZM76.3872 43.7537C72.883 42.8017 69.929 41.4134 67.5041 39.6047L66.3084 41.2078C68.9669 43.1908 72.1586 44.6774 75.8628 45.6838L76.3872 43.7537ZM67.5041 39.6047C65.0883 37.8027 63.2338 35.5722 61.9296 32.9045L60.1329 33.783C61.5787 36.7403 63.6408 39.2181 66.3084 41.2078L67.5041 39.6047ZM61.9309 32.9072C60.6323 30.2313 59.9688 27.1245 59.9688 23.5625H57.9688C57.9688 27.3755 58.6802 30.7896 60.1316 33.7803L61.9309 32.9072ZM59.9688 23.5625C59.9688 20.0003 60.6324 16.9052 61.9296 14.2517L60.1329 13.3733C58.6801 16.3448 57.9688 19.7497 57.9688 23.5625H59.9688ZM61.9309 14.2491C63.2355 11.5609 65.0899 9.3211 67.5041 7.52032L66.3084 5.91718C63.6392 7.90807 61.577 10.3975 60.1316 13.3759L61.9309 14.2491ZM67.5041 7.52032C69.9274 5.71281 72.8796 4.33519 76.382 3.40392L75.868 1.47108C72.1621 2.45648 68.9684 3.93302 66.3084 5.91718L67.5041 7.52032ZM76.3858 3.4029C79.9113 2.45061 83.8738 1.96875 88.2812 1.96875V-0.03125C83.7304 -0.03125 79.5887 0.466054 75.8642 1.4721L76.3858 3.4029ZM88.2812 1.96875C92.689 1.96875 96.6295 2.45067 100.111 3.40213L100.639 1.47287C96.9539 0.465996 92.8318 -0.03125 88.2812 -0.03125V1.96875ZM100.118 3.40392C103.62 4.3351 106.56 5.71222 108.961 7.51796L110.164 5.91954C107.523 3.93361 104.338 2.45657 100.632 1.47108L100.118 3.40392ZM108.961 7.51796C111.354 9.31758 113.188 11.5562 114.473 14.2437L116.277 13.3813C114.853 10.4022 112.812 7.91159 110.164 5.91954L108.961 7.51796ZM114.474 14.2463C115.752 16.9011 116.406 19.9982 116.406 23.5625H118.406C118.406 19.7518 117.706 16.3489 116.276 13.3787L114.474 14.2463ZM106.688 23.5625C106.688 21.8481 106.409 20.149 105.856 18.4688L103.956 19.0937C104.445 20.5802 104.688 22.0686 104.688 23.5625H106.688ZM105.861 18.4837C105.307 16.7061 104.305 15.1271 102.883 13.7503L101.492 15.1872C102.695 16.352 103.506 17.6481 103.952 19.0788L105.861 18.4837ZM102.889 13.7559C101.465 12.3549 99.5536 11.2574 97.2069 10.4317L96.5431 12.3183C98.6964 13.076 100.327 14.041 101.486 15.1816L102.889 13.7559ZM97.2069 10.4317C94.8134 9.58954 91.8264 9.1875 88.2812 9.1875V11.1875C91.6945 11.1875 94.4366 11.5771 96.5431 12.3183L97.2069 10.4317ZM88.2812 9.1875C85.8971 9.1875 83.773 9.37883 81.9178 9.7717L82.3322 11.7283C84.0186 11.3712 85.9987 11.1875 88.2812 11.1875V9.1875ZM81.9289 9.76942C80.0917 10.1369 78.4721 10.6615 77.084 11.3556L77.9785 13.1444C79.1737 12.5468 80.6167 12.0715 82.3211 11.7306L81.9289 9.76942ZM77.084 11.3556C75.7119 12.0416 74.5366 12.8617 73.5741 13.8241L74.9884 15.2384C75.7759 14.4508 76.7672 13.75 77.9785 13.1444L77.084 11.3556ZM73.5827 13.8157C72.6383 14.7376 71.8743 15.749 71.3006 16.8506L73.0744 17.7744C73.5423 16.876 74.1742 16.0332 74.9798 15.2468L73.5827 13.8157ZM71.3046 16.8429C70.7399 17.9046 70.3327 19.0242 70.0842 20.1993L72.0408 20.6132C72.2506 19.6216 72.5934 18.6788 73.0704 17.7821L71.3046 16.8429ZM70.0812 20.2138C69.8609 21.3372 69.75 22.4538 69.75 23.5625H71.75C71.75 22.5879 71.8474 21.6003 72.0438 20.5987L70.0812 20.2138ZM69.75 23.5625C69.75 24.6908 69.8606 25.8269 70.0805 26.9701L72.0445 26.5924C71.8477 25.5689 71.75 24.5592 71.75 23.5625H69.75ZM70.0842 26.9882C70.3324 28.1619 70.7386 29.2892 71.3006 30.3682L73.0744 29.4443C72.5947 28.5233 72.2509 27.5673 72.0408 26.5743L70.0842 26.9882ZM71.3046 30.3759C71.8786 31.4548 72.6415 32.453 73.5827 33.3718L74.9798 31.9407C74.171 31.1512 73.5381 30.316 73.0704 29.4366L71.3046 30.3759ZM73.5827 33.3718C74.5437 34.31 75.7161 35.1167 77.084 35.8007L77.9785 34.0118C76.763 33.4041 75.7688 32.7109 74.9798 31.9407L73.5827 33.3718ZM77.0957 35.8064C78.4761 36.4743 80.0875 36.997 81.9178 37.3846L82.3322 35.4279C80.6208 35.0655 79.1698 34.5882 77.9668 34.0061L77.0957 35.8064ZM81.9289 37.3868C83.7798 37.757 85.9 37.9375 88.2812 37.9375V35.9375C85.9958 35.9375 84.0119 35.7638 82.3211 35.4257L81.9289 37.3868ZM88.2812 37.9375C91.8264 37.9375 94.8134 37.5355 97.2069 36.6933L96.5431 34.8067C94.4366 35.5479 91.6945 35.9375 88.2812 35.9375V37.9375ZM97.2069 36.6933C99.5536 35.8676 101.465 34.7701 102.889 33.3691L101.486 31.9434C100.327 33.084 98.6964 34.049 96.5431 34.8067L97.2069 36.6933ZM102.883 33.3747C104.303 32.0002 105.305 30.4333 105.86 28.6761L103.953 28.0739C103.508 29.4834 102.697 30.7707 101.492 31.9378L102.883 33.3747ZM105.857 28.6838C106.409 26.9851 106.688 25.2768 106.688 23.5625H104.688C104.688 25.0565 104.445 26.5566 103.955 28.0662L105.857 28.6838ZM182.562 45H181.562V46H182.562V45ZM182.562 14.8438H183.562L181.678 14.3765L182.562 14.8438ZM166.625 45V46H167.228L167.509 45.4673L166.625 45ZM155.5 45L154.616 45.4673L154.897 46H155.5V45ZM139.562 14.8438L140.447 14.3765L138.562 14.8438H139.562ZM139.562 45V46H140.562V45H139.562ZM127.969 45H126.969V46H127.969V45ZM127.969 2.0625V1.0625H126.969V2.0625H127.969ZM143.719 2.0625L144.601 1.59169L144.319 1.0625H143.719V2.0625ZM161.062 34.5625L160.18 35.0333L161.062 36.6865L161.945 35.0333L161.062 34.5625ZM178.406 2.0625V1.0625H177.806L177.524 1.59169L178.406 2.0625ZM194.094 2.0625H195.094V1.0625H194.094V2.0625ZM194.094 45V46H195.094V45H194.094ZM183.562 45V14.8438H181.562V45H183.562ZM181.678 14.3765L165.741 44.5327L167.509 45.4673L183.447 15.311L181.678 14.3765ZM166.625 44H155.5V46H166.625V44ZM156.384 44.5327L140.447 14.3765L138.678 15.311L154.616 45.4673L156.384 44.5327ZM138.562 14.8438V45H140.562V14.8438H138.562ZM139.562 44H127.969V46H139.562V44ZM128.969 45V2.0625H126.969V45H128.969ZM127.969 3.0625H143.719V1.0625H127.969V3.0625ZM142.837 2.53331L160.18 35.0333L161.945 34.0917L144.601 1.59169L142.837 2.53331ZM161.945 35.0333L179.288 2.53331L177.524 1.59169L160.18 34.0917L161.945 35.0333ZM178.406 3.0625H194.094V1.0625H178.406V3.0625ZM193.094 2.0625V45H195.094V2.0625H193.094ZM194.094 44H182.562V46H194.094V44ZM262.125 45H261.125V46H262.125V45ZM262.125 14.8438H263.125L261.241 14.3765L262.125 14.8438ZM246.188 45V46H246.79L247.072 45.4673L246.188 45ZM235.062 45L234.178 45.4673L234.46 46H235.062V45ZM219.125 14.8438L220.009 14.3765L218.125 14.8438H219.125ZM219.125 45V46H220.125V45H219.125ZM207.531 45H206.531V46H207.531V45ZM207.531 2.0625V1.0625H206.531V2.0625H207.531ZM223.281 2.0625L224.163 1.59169L223.881 1.0625H223.281V2.0625ZM240.625 34.5625L239.743 35.0333L240.625 36.6865L241.507 35.0333L240.625 34.5625ZM257.969 2.0625V1.0625H257.369L257.087 1.59169L257.969 2.0625ZM273.656 2.0625H274.656V1.0625H273.656V2.0625ZM273.656 45V46H274.656V45H273.656ZM263.125 45V14.8438H261.125V45H263.125ZM261.241 14.3765L245.303 44.5327L247.072 45.4673L263.009 15.311L261.241 14.3765ZM246.188 44H235.062V46H246.188V44ZM235.947 44.5327L220.009 14.3765L218.241 15.311L234.178 45.4673L235.947 44.5327ZM218.125 14.8438V45H220.125V14.8438H218.125ZM219.125 44H207.531V46H219.125V44ZM208.531 45V2.0625H206.531V45H208.531ZM207.531 3.0625H223.281V1.0625H207.531V3.0625ZM222.399 2.53331L239.743 35.0333L241.507 34.0917L224.163 1.59169L222.399 2.53331ZM241.507 35.0333L258.851 2.53331L257.087 1.59169L239.743 34.0917L241.507 35.0333ZM257.969 3.0625H273.656V1.0625H257.969V3.0625ZM272.656 2.0625V45H274.656V2.0625H272.656ZM273.656 44H262.125V46H273.656V44ZM323.438 44.9375L323.686 45.9061L323.69 45.905L323.438 44.9375ZM301.125 44.9375L300.872 45.905L300.88 45.9069L301.125 44.9375ZM288.375 36.5938L287.503 37.0826L288.375 36.5938ZM286.781 2.0625V1.0625H285.781V2.0625H286.781ZM298.344 2.0625H299.344V1.0625H298.344V2.0625ZM298.875 30.4688L297.911 30.7332L297.913 30.7425L297.916 30.7518L298.875 30.4688ZM300.938 33.8125L300.246 34.5345L300.253 34.5416L300.938 33.8125ZM305.188 36.0938L304.891 37.0488L304.894 37.0498L305.188 36.0938ZM323.594 33.8125L322.909 33.0834L322.902 33.0905L323.594 33.8125ZM325.656 30.4688L326.62 30.7372L326.621 30.7332L325.656 30.4688ZM326.188 2.0625V1.0625H325.188V2.0625H326.188ZM337.781 2.0625H338.781V1.0625H337.781V2.0625ZM336.781 30.5312C336.781 32.5036 336.295 34.3564 335.315 36.1049L337.06 37.0826C338.205 35.0395 338.781 32.8506 338.781 30.5312H336.781ZM335.315 36.1049C334.342 37.8406 332.868 39.3861 330.852 40.7304L331.961 42.3946C334.194 40.9055 335.908 39.1386 337.06 37.0826L335.315 36.1049ZM330.852 40.7304C328.841 42.0706 326.294 43.157 323.185 43.97L323.69 45.905C326.956 45.0513 329.721 43.8877 331.961 42.3946L330.852 40.7304ZM323.189 43.9689C320.124 44.7554 316.502 45.1562 312.312 45.1562V47.1562C316.623 47.1562 320.418 46.7446 323.686 45.9061L323.189 43.9689ZM312.312 45.1562C308.123 45.1562 304.48 44.7555 301.37 43.9681L300.88 45.9069C304.187 46.7445 308.002 47.1562 312.312 47.1562V45.1562ZM301.378 43.97C298.268 43.157 295.721 42.0706 293.711 40.7304L292.602 42.3946C294.841 43.8877 297.607 45.0513 300.872 45.905L301.378 43.97ZM293.711 40.7304C291.694 39.3861 290.22 37.8406 289.247 36.1049L287.503 37.0826C288.655 39.1386 290.368 40.9055 292.602 42.3946L293.711 40.7304ZM289.247 36.1049C288.267 34.3564 287.781 32.5036 287.781 30.5312H285.781C285.781 32.8506 286.358 35.0395 287.503 37.0826L289.247 36.1049ZM287.781 30.5312V2.0625H285.781V30.5312H287.781ZM286.781 3.0625H298.344V1.0625H286.781V3.0625ZM297.344 2.0625V26.375H299.344V2.0625H297.344ZM297.344 26.375C297.344 27.8953 297.531 29.3493 297.911 30.7332L299.839 30.2043C299.511 29.0049 299.344 27.7297 299.344 26.375H297.344ZM297.916 30.7518C298.342 32.1974 299.126 33.4613 300.246 34.5345L301.629 33.0905C300.749 32.247 300.158 31.2818 299.834 30.1857L297.916 30.7518ZM300.253 34.5416C301.416 35.6338 302.983 36.4565 304.891 37.0488L305.484 35.1387C303.767 34.606 302.5 33.9079 301.622 33.0834L300.253 34.5416ZM304.894 37.0498C306.858 37.6524 309.342 37.9375 312.312 37.9375V35.9375C309.449 35.9375 307.183 35.6601 305.481 35.1377L304.894 37.0498ZM312.312 37.9375C315.262 37.9375 317.727 37.6524 319.671 37.0488L319.079 35.1387C317.398 35.6601 315.155 35.9375 312.312 35.9375V37.9375ZM319.671 37.0488C321.58 36.4565 323.14 35.6323 324.286 34.5345L322.902 33.0905C322.047 33.9094 320.795 34.606 319.079 35.1387L319.671 37.0488ZM324.278 34.5416C325.424 33.4661 326.213 32.1951 326.62 30.7372L324.693 30.2003C324.391 31.284 323.805 32.2422 322.909 33.0834L324.278 34.5416ZM326.621 30.7332C327 29.3493 327.188 27.8953 327.188 26.375H325.188C325.188 27.7297 325.021 29.0049 324.692 30.2043L326.621 30.7332ZM327.188 26.375V2.0625H325.188V26.375H327.188ZM326.188 3.0625H337.781V1.0625H326.188V3.0625ZM336.781 2.0625V30.5312H338.781V2.0625H336.781ZM391.469 45L390.755 45.7007L391.049 46H391.469V45ZM362.5 15.5L363.214 14.7993L361.5 13.0544V15.5H362.5ZM362.5 45V46H363.5V45H362.5ZM350.906 45H349.906V46H350.906V45ZM350.906 2.0625V1.0625H349.906V2.0625H350.906ZM363.5 2.0625L364.215 1.36297L363.92 1.0625H363.5V2.0625ZM392.5 31.6875L391.785 32.387L393.5 34.1386V31.6875H392.5ZM392.5 2.0625V1.0625H391.5V2.0625H392.5ZM404.031 2.0625H405.031V1.0625H404.031V2.0625ZM404.031 45V46H405.031V45H404.031ZM392.182 44.2993L363.214 14.7993L361.786 16.2007L390.755 45.7007L392.182 44.2993ZM361.5 15.5V45H363.5V15.5H361.5ZM362.5 44H350.906V46H362.5V44ZM351.906 45V2.0625H349.906V45H351.906ZM350.906 3.0625H363.5V1.0625H350.906V3.0625ZM362.785 2.76203L391.785 32.387L393.215 30.988L364.215 1.36297L362.785 2.76203ZM393.5 31.6875V2.0625H391.5V31.6875H393.5ZM392.5 3.0625H404.031V1.0625H392.5V3.0625ZM403.031 2.0625V45H405.031V2.0625H403.031ZM404.031 44H391.469V46H404.031V44ZM417.469 45H416.469V46H417.469V45ZM417.469 2.0625V1.0625H416.469V2.0625H417.469ZM429.062 2.0625H430.062V1.0625H429.062V2.0625ZM429.062 45V46H430.062V45H429.062ZM418.469 45V2.0625H416.469V45H418.469ZM417.469 3.0625H429.062V1.0625H417.469V3.0625ZM428.062 2.0625V45H430.062V2.0625H428.062ZM429.062 44H417.469V46H429.062V44ZM466.594 11.4062V10.4062H465.594V11.4062H466.594ZM466.594 45V46H467.594V45H466.594ZM455 45H454V46H455V45ZM455 11.4062H456V10.4062H455V11.4062ZM436.781 11.4062H435.781V12.4062H436.781V11.4062ZM436.781 2.0625V1.0625H435.781V2.0625H436.781ZM484.844 2.0625H485.844V1.0625H484.844V2.0625ZM484.844 11.4062V12.4062H485.844V11.4062H484.844ZM465.594 11.4062V45H467.594V11.4062H465.594ZM466.594 44H455V46H466.594V44ZM456 45V11.4062H454V45H456ZM455 10.4062H436.781V12.4062H455V10.4062ZM437.781 11.4062V2.0625H435.781V11.4062H437.781ZM436.781 3.0625H484.844V1.0625H436.781V3.0625ZM483.844 2.0625V11.4062H485.844V2.0625H483.844ZM484.844 10.4062H466.594V12.4062H484.844V10.4062ZM519.469 27.4688L518.695 26.835L518.469 27.1114V27.4688H519.469ZM519.469 45V46H520.469V45H519.469ZM507.906 45H506.906V46H507.906V45ZM507.906 27.4688H508.906V27.1114L508.68 26.835L507.906 27.4688ZM487.094 2.0625V1.0625H484.982L486.32 2.6962L487.094 2.0625ZM500.094 2.0625L500.879 1.44336L500.579 1.0625H500.094V2.0625ZM513.719 19.3438L512.933 19.9629L513.721 20.9612L514.505 19.9611L513.719 19.3438ZM527.281 2.0625V1.0625H526.795L526.495 1.44512L527.281 2.0625ZM540.281 2.0625L541.055 2.6962L542.393 1.0625H540.281V2.0625ZM518.469 27.4688V45H520.469V27.4688H518.469ZM519.469 44H507.906V46H519.469V44ZM508.906 45V27.4688H506.906V45H508.906ZM508.68 26.835L487.867 1.4288L486.32 2.6962L507.133 28.1025L508.68 26.835ZM487.094 3.0625H500.094V1.0625H487.094V3.0625ZM499.308 2.68164L512.933 19.9629L514.504 18.7246L500.879 1.44336L499.308 2.68164ZM514.505 19.9611L528.068 2.67988L526.495 1.44512L512.932 18.7264L514.505 19.9611ZM527.281 3.0625H540.281V1.0625H527.281V3.0625ZM539.508 1.4288L518.695 26.835L520.242 28.1025L541.055 2.6962L539.508 1.4288Z" fill="url(#paint0_linear_106_74)"/>
<defs>
<linearGradient id="paint0_linear_106_74" x1="259.7" y1="-93.25" x2="279.812" y2="82.7632" gradientUnits="userSpaceOnUse">
<stop stop-color="white"/>
<stop offset="1" stop-opacity="0"/>
</linearGradient>
</defs>
</svg>
