<svg width="144" height="137" viewBox="0 0 144 137" fill="none" xmlns="http://www.w3.org/2000/svg">
<mask id="path-1-inside-1_252_114" fill="white">
<path fill-rule="evenodd" clip-rule="evenodd" d="M40.2102 123.997C75.8085 145.73 118.81 138.496 136.256 107.838C153.703 77.1808 138.988 34.7092 103.39 12.9755C67.7912 -8.75819 24.7899 -1.52394 7.34344 29.1337C-10.103 59.7913 4.61189 102.263 40.2102 123.997ZM56.005 96.2413C77.204 109.184 102.225 105.906 111.892 88.92C121.558 71.9341 112.209 47.6722 91.0098 34.7297C69.8108 21.7871 44.7896 25.065 35.1233 42.0509C25.457 59.0369 34.806 83.2988 56.005 96.2413Z"/>
</mask>
<path fill-rule="evenodd" clip-rule="evenodd" d="M40.2102 123.997C75.8085 145.73 118.81 138.496 136.256 107.838C153.703 77.1808 138.988 34.7092 103.39 12.9755C67.7912 -8.75819 24.7899 -1.52394 7.34344 29.1337C-10.103 59.7913 4.61189 102.263 40.2102 123.997ZM56.005 96.2413C77.204 109.184 102.225 105.906 111.892 88.92C121.558 71.9341 112.209 47.6722 91.0098 34.7297C69.8108 21.7871 44.7896 25.065 35.1233 42.0509C25.457 59.0369 34.806 83.2988 56.005 96.2413Z" fill="url(#paint0_linear_252_114)"/>
<path d="M134.676 106.874C117.873 136.401 76.11 143.746 41.1258 122.388L39.2946 125.605C75.507 147.714 119.746 140.591 137.836 108.803L134.676 106.874ZM102.474 14.5844C137.458 35.9432 151.479 77.3468 134.676 106.874L137.836 108.803C155.926 77.0147 140.518 33.4752 104.305 11.3666L102.474 14.5844ZM8.92343 30.0983C25.7265 0.571409 67.4897 -6.77435 102.474 14.5844L104.305 11.3666C68.0927 -10.742 23.8534 -3.61928 5.76345 28.169L8.92343 30.0983ZM41.1258 122.388C6.1416 101.029 -7.87959 59.6252 8.92343 30.0983L5.76345 28.169C-12.3265 59.9573 3.08219 103.497 39.2946 125.605L41.1258 122.388ZM110.312 87.9554C101.343 103.715 77.6208 107.27 56.9206 94.6324L55.0894 97.8502C76.7872 111.097 103.107 108.097 113.472 89.8847L110.312 87.9554ZM90.0942 36.3386C110.794 48.9766 119.28 72.196 110.312 87.9554L113.472 89.8847C123.836 71.6721 113.623 46.3678 91.9254 33.1208L90.0942 36.3386ZM36.7033 43.0156C45.6716 27.2561 69.394 23.7006 90.0942 36.3386L91.9254 33.1208C70.2276 19.8737 43.9076 22.8738 33.5433 41.0863L36.7033 43.0156ZM56.9206 94.6324C36.2204 81.9944 27.7349 58.775 36.7033 43.0156L33.5433 41.0863C23.179 59.2988 33.3917 84.6032 55.0894 97.8502L56.9206 94.6324Z" fill="url(#paint1_linear_252_114)" mask="url(#path-1-inside-1_252_114)"/>
<defs>
<linearGradient id="paint0_linear_252_114" x1="132.599" y1="24.2385" x2="3.81455" y2="114.508" gradientUnits="userSpaceOnUse">
<stop stop-color="#6684F9"/>
<stop offset="0.504278" stop-color="#E3A2D8"/>
<stop offset="1" stop-color="#FFB989"/>
</linearGradient>
<linearGradient id="paint1_linear_252_114" x1="119.323" y1="22.7031" x2="82.6797" y2="117.565" gradientUnits="userSpaceOnUse">
<stop stop-color="#8572FF"/>
<stop offset="1" stop-color="white"/>
</linearGradient>
</defs>
</svg>
