<svg width="340" height="347" viewBox="0 0 340 347" fill="none" xmlns="http://www.w3.org/2000/svg">
<path fill-rule="evenodd" clip-rule="evenodd" d="M36.9017 68.7783C19.9583 88.4828 8.48921 112.173 3.4853 137.479C1.66407 146.689 8.72445 154.93 18.0818 155.698L58.9445 159.052C68.3018 159.819 76.3268 152.746 79.1782 143.8C82.2206 134.255 87.1625 125.36 93.7689 117.677C100.375 109.994 108.43 103.776 117.411 99.3374C125.828 95.178 131.62 86.1838 129.458 77.0471L120.021 37.1481C117.859 28.0114 108.654 22.2654 99.8203 25.446C75.5494 34.1849 53.8452 49.0739 36.9017 68.7783Z" fill="#1F93FF"/>
<path fill-rule="evenodd" clip-rule="evenodd" d="M37.7962 241.588C33.1631 244.594 31.8178 250.81 35.1259 255.233C40.5451 262.478 46.6087 269.217 53.2425 275.369C57.2919 279.125 63.6148 278.442 67.0922 274.151L101.722 231.422C105.199 227.131 104.482 220.875 100.691 216.858C99.8765 215.994 99.0823 215.112 98.3093 214.21C94.714 210.018 88.5681 208.646 83.9351 211.652L37.7962 241.588Z" fill="#A139F3"/>
<path fill-rule="evenodd" clip-rule="evenodd" d="M72.6128 276.766C69.3568 281.227 70.3172 287.514 74.9852 290.465C82.6322 295.301 90.701 299.434 99.0929 302.815C104.216 304.879 109.879 301.985 111.597 296.737L128.707 244.466C130.425 239.217 127.523 233.628 122.549 231.228C121.48 230.711 120.423 230.17 119.379 229.604C114.525 226.97 108.294 227.88 105.038 232.341L72.6128 276.766Z" fill="#3D39F3"/>
<path fill-rule="evenodd" clip-rule="evenodd" d="M71.1321 184.745C76.5201 183.532 81.8086 186.95 83.7271 192.129C84.1395 193.243 84.5784 194.346 85.0432 195.439C87.2054 200.521 85.7089 206.637 80.9594 209.456L33.6612 237.525C28.9117 240.344 22.7443 238.792 20.2483 233.865C16.1596 225.794 12.8094 217.37 10.2388 208.696C8.66958 203.4 12.0869 198.037 17.4749 196.824L71.1321 184.745Z" fill="#EF39F3"/>
<path fill-rule="evenodd" clip-rule="evenodd" d="M12.0471 163.967C6.52711 163.789 1.87334 168.123 2.0637 173.643C2.15878 176.4 2.32987 179.153 2.57677 181.9C3.07116 187.401 8.22573 191.126 13.6813 190.266L70.9065 181.248C74.7627 180.64 77.361 177.02 77.1189 173.124V173.124C76.8768 169.228 73.8504 165.957 69.9485 165.831L12.0471 163.967Z" fill="#7BD0FF"/>
<path fill-rule="evenodd" clip-rule="evenodd" d="M182.221 310.476C165.317 313.616 148.041 313.818 131.146 311.117C121.875 309.634 116.591 300.156 119.112 291.112L130.123 251.619C132.644 242.575 142.06 237.497 151.439 237.922C157.143 238.18 162.876 237.787 168.526 236.737C179.771 234.649 190.39 230.016 199.57 223.193C208.749 216.37 216.247 207.538 221.489 197.372C226.731 187.206 229.579 175.976 229.814 164.541C230.049 153.105 227.666 141.768 222.846 131.395C218.027 121.022 210.899 111.889 202.007 104.695C193.115 97.4999 182.696 92.4342 171.546 89.8849C165.944 88.6041 160.232 87.9756 154.523 87.999C145.134 88.0374 135.935 82.577 133.788 73.437L124.41 33.5238C122.263 24.3839 127.932 15.1313 137.256 14.0313C154.249 12.0268 171.501 12.9394 188.262 16.7715C210.562 21.8701 231.401 32.0015 249.184 46.3908C266.967 60.7801 281.223 79.0461 290.863 99.7916C300.502 120.537 305.269 143.212 304.798 166.083C304.328 188.954 298.633 211.414 288.149 231.745C277.664 252.077 262.669 269.741 244.309 283.387C225.95 297.033 204.712 306.299 182.221 310.476Z" fill="#B41633"/>
</svg>
