<svg width="37" height="38" viewBox="0 0 37 38" fill="none" xmlns="http://www.w3.org/2000/svg">
<path d="M36.1168 11.6983C36.0966 10.1755 35.8115 8.66785 35.2744 7.24276C34.8086 6.04071 34.0972 4.94902 33.1857 4.03746C32.2741 3.12591 31.1824 2.41452 29.9804 1.94875C28.5736 1.42067 27.0874 1.13513 25.5851 1.10428C23.6509 1.01783 23.0376 0.993698 18.1277 0.993698C13.2177 0.993698 12.5883 0.993698 10.6682 1.10428C9.16656 1.13536 7.68108 1.42089 6.27494 1.94875C5.0727 2.41419 3.98085 3.12547 3.06925 4.03707C2.15765 4.94867 1.44637 6.04052 0.980932 7.24276C0.451794 8.64846 0.166871 10.1343 0.138475 11.636C0.0520172 13.5723 0.0258789 14.1855 0.0258789 19.0955C0.0258789 24.0055 0.0258789 24.6328 0.138475 26.5549C0.168634 28.0589 0.452134 29.5428 0.980932 30.9522C1.44715 32.1541 2.15896 33.2455 3.07086 34.1567C3.98277 35.0679 5.07472 35.7789 6.27695 36.2442C7.67924 36.7935 9.16498 37.0995 10.6702 37.149C12.6064 37.2355 13.2197 37.2616 18.1297 37.2616C23.0396 37.2616 23.669 37.2616 25.5891 37.149C27.0914 37.1194 28.5777 36.8345 29.9844 36.3065C31.1861 35.8402 32.2775 35.1287 33.189 34.2172C34.1005 33.3057 34.8121 32.2143 35.2784 31.0125C35.8072 29.6051 36.0907 28.1212 36.1209 26.6153C36.2073 24.681 36.2335 24.0678 36.2335 19.1558C36.2294 14.2458 36.2294 13.6225 36.1168 11.6983ZM18.1156 28.3806C12.9804 28.3806 8.82041 24.2206 8.82041 19.0854C8.82041 13.9503 12.9804 9.79024 18.1156 9.79024C20.5808 9.79024 22.9451 10.7696 24.6883 12.5127C26.4315 14.2559 27.4108 16.6202 27.4108 19.0854C27.4108 21.5507 26.4315 23.9149 24.6883 25.6581C22.9451 27.4013 20.5808 28.3806 18.1156 28.3806ZM27.7807 11.6139C27.496 11.6142 27.2141 11.5583 26.951 11.4494C26.6879 11.3406 26.4488 11.181 26.2475 10.9796C26.0462 10.7783 25.8865 10.5393 25.7777 10.2762C25.6689 10.0131 25.613 9.73113 25.6133 9.44642C25.6133 9.16192 25.6693 8.8802 25.7782 8.61735C25.887 8.35451 26.0466 8.11568 26.2478 7.9145C26.449 7.71333 26.6878 7.55375 26.9507 7.44487C27.2135 7.336 27.4952 7.27996 27.7797 7.27996C28.0642 7.27996 28.3459 7.336 28.6088 7.44487C28.8716 7.55375 29.1105 7.71333 29.3116 7.9145C29.5128 8.11568 29.6724 8.35451 29.7813 8.61735C29.8902 8.8802 29.9462 9.16192 29.9462 9.44642C29.9462 10.6448 28.9771 11.6139 27.7807 11.6139Z" fill="#2B2B2B"/>
</svg>
