<svg width="732" height="114" viewBox="0 0 732 114" fill="none" xmlns="http://www.w3.org/2000/svg">
<path d="M173.557 77.1051L174.053 77.9739L175.551 77.1198L174.065 76.2437L173.557 77.1051ZM157.475 86.2705H156.475V87.9914L157.97 87.1394L157.475 86.2705ZM157.475 0.322666V-0.677334H156.475V0.322666H157.475ZM200.708 0.322666H201.708V-0.677334H200.708V0.322666ZM200.708 111V112H201.708V111H200.708ZM157.475 111L156.974 111.865L157.206 112H157.475V111ZM27.2559 35.6011L26.7537 34.7363L25.2623 35.6023L26.7548 36.4665L27.2559 35.6011ZM43.3387 26.2627H44.3387V24.5257L42.8365 25.3979L43.3387 26.2627ZM43.3387 111V112H44.3387V111H43.3387ZM0.105332 111H-0.894668V112H0.105332V111ZM0.105332 0.322666V-0.677334H-0.894668V0.322666H0.105332ZM43.3387 0.322666L43.8466 -0.538738L43.6115 -0.677334H43.3387V0.322666ZM173.062 76.2363L156.98 85.4017L157.97 87.1394L174.053 77.9739L173.062 76.2363ZM158.475 86.2705V0.322666H156.475V86.2705H158.475ZM157.475 1.32267H200.708V-0.677334H157.475V1.32267ZM199.708 0.322666V111H201.708V0.322666H199.708ZM200.708 110H157.475V112H200.708V110ZM157.976 110.135L27.7569 34.7357L26.7548 36.4665L156.974 111.865L157.976 110.135ZM27.758 36.4659L43.8408 27.1275L42.8365 25.3979L26.7537 34.7363L27.758 36.4659ZM42.3387 26.2627V111H44.3387V26.2627H42.3387ZM43.3387 110H0.105332V112H43.3387V110ZM1.10533 111V0.322666H-0.894668V111H1.10533ZM0.105332 1.32267H43.3387V-0.677334H0.105332V1.32267ZM42.8307 1.18407L173.05 77.9665L174.065 76.2437L43.8466 -0.538738L42.8307 1.18407ZM399.202 0.322666H400.202V-0.677334H399.202V0.322666ZM399.202 33.18V34.18H400.202V33.18H399.202ZM268.118 33.18V32.18H267.118V33.18H268.118ZM268.118 47.8793H267.118V48.8793H268.118V47.8793ZM375.337 47.8793H376.337V46.8793H375.337V47.8793ZM375.337 77.278V78.278H376.337V77.278H375.337ZM268.118 77.278V76.278H267.118V77.278H268.118ZM268.118 111V112H269.118V111H268.118ZM224.885 111H223.885V112H224.885V111ZM224.885 0.322666V-0.677334H223.885V0.322666H224.885ZM398.202 0.322666V33.18H400.202V0.322666H398.202ZM399.202 32.18H268.118V34.18H399.202V32.18ZM267.118 33.18V47.8793H269.118V33.18H267.118ZM268.118 48.8793H375.337V46.8793H268.118V48.8793ZM374.337 47.8793V77.278H376.337V47.8793H374.337ZM375.337 76.278H268.118V78.278H375.337V76.278ZM267.118 77.278V111H269.118V77.278H267.118ZM268.118 110H224.885V112H268.118V110ZM225.885 111V0.322666H223.885V111H225.885ZM224.885 1.32267H399.202V-0.677334H224.885V1.32267ZM413.024 0.322666V-0.677334H412.024V0.322666H413.024ZM592.875 0.322666H593.875V-0.677334H592.875V0.322666ZM592.875 33.18V34.18H593.875V33.18H592.875ZM413.024 33.18H412.024V34.18H413.024V33.18ZM481.333 30.9319V29.9319H480.333V30.9319H481.333ZM524.566 30.9319H525.566V29.9319H524.566V30.9319ZM524.566 111V112H525.566V111H524.566ZM481.333 111H480.333V112H481.333V111ZM413.024 1.32267H592.875V-0.677334H413.024V1.32267ZM591.875 0.322666V33.18H593.875V0.322666H591.875ZM592.875 32.18H413.024V34.18H592.875V32.18ZM414.024 33.18V0.322666H412.024V33.18H414.024ZM481.333 31.9319H524.566V29.9319H481.333V31.9319ZM523.566 30.9319V111H525.566V30.9319H523.566ZM524.566 110H481.333V112H524.566V110ZM482.333 111V30.9319H480.333V111H482.333ZM598.833 80.5637V79.5637H597.928L597.838 80.4642L598.833 80.5637ZM637.051 80.5637L637.932 80.0896L637.648 79.5637H637.051V80.5637ZM646.217 86.7893L645.968 87.758L645.974 87.7595L646.217 86.7893ZM680.457 87.4811L680.248 86.5032L680.241 86.5049L680.457 87.4811ZM686.683 84.7141L685.94 84.0452L685.92 84.0668L685.902 84.0894L686.683 84.7141ZM684.954 77.1051L684.591 78.0371L684.622 78.0489L684.653 78.0586L684.954 77.1051ZM674.232 75.7216L674.186 76.7206L674.198 76.7211L674.209 76.7213L674.232 75.7216ZM630.653 74.3381L630.531 75.3307L630.54 75.3318L630.55 75.3328L630.653 74.3381ZM613.878 70.7065L613.527 71.6429L613.537 71.6467L613.548 71.6504L613.878 70.7065ZM603.329 63.6163L604.107 62.9879L603.329 63.6163ZM605.059 38.5409L605.777 39.2367L605.782 39.2312L605.787 39.2256L605.059 38.5409ZM619.585 29.7213L619.906 30.6682L619.914 30.6655L619.922 30.6627L619.585 29.7213ZM640.683 25.0521L640.569 24.0586L640.568 24.0588L640.683 25.0521ZM701.555 28.1649L701.246 29.116L701.257 29.1194L701.555 28.1649ZM721.961 39.9244L721.212 40.5866L721.961 39.9244ZM728.36 56.6989V57.6989H729.342L729.36 56.7175L728.36 56.6989ZM691.179 56.6989L690.258 57.0886L690.517 57.6989H691.179V56.6989ZM683.916 50.4733L683.6 51.4221L683.609 51.425L683.916 50.4733ZM648.292 50.6463L648.599 51.598L648.608 51.5951L648.617 51.592L648.292 50.6463ZM645.525 60.3305L645.054 61.2129L645.089 61.2311L645.124 61.2467L645.525 60.3305ZM655.728 62.0599L655.658 63.0574L655.66 63.0575L655.728 62.0599ZM697.405 63.2704L697.332 64.2678L697.334 64.2679L697.405 63.2704ZM714.698 66.2103L714.415 67.1693L714.421 67.171L714.698 66.2103ZM726.977 73.1276L726.256 73.8212L726.977 73.1276ZM723.345 102.007L723.95 102.803L723.953 102.801L723.345 102.007ZM700.691 110.827L700.506 109.844L700.691 110.827ZM636.359 111.346L636.174 112.329L636.177 112.329L636.359 111.346ZM616.818 105.466L616.371 106.361L616.379 106.365L616.387 106.369L616.818 105.466ZM605.059 97.3383L604.31 98.0008L604.323 98.0161L604.337 98.0308L605.059 97.3383ZM599.698 88.5187L598.732 88.7786L598.738 88.8012L598.745 88.8234L599.698 88.5187ZM598.833 81.5637H637.051V79.5637H598.833V81.5637ZM636.171 81.0378C637.96 84.3608 641.304 86.5619 645.968 87.758L646.465 85.8207C642.137 84.711 639.37 82.7617 637.932 80.0896L636.171 81.0378ZM645.974 87.7595C650.704 88.942 657.372 89.5187 665.931 89.5187V87.5187C657.428 87.5187 650.952 86.9425 646.459 85.8192L645.974 87.7595ZM665.931 89.5187C672.516 89.5187 677.449 89.174 680.674 88.4573L680.241 86.5049C677.24 87.1716 672.489 87.5187 665.931 87.5187V89.5187ZM680.667 88.4589C682.321 88.1044 683.719 87.6831 684.841 87.1843C685.953 86.69 686.863 86.0897 687.464 85.3388L685.902 84.0894C685.581 84.4915 684.992 84.9288 684.029 85.3567C683.076 85.7803 681.822 86.166 680.248 86.5033L680.667 88.4589ZM687.426 85.3831C688.591 84.0895 689.239 82.6499 689.239 81.0825H687.239C687.239 82.0515 686.851 83.033 685.94 84.0452L687.426 85.3831ZM689.239 81.0825C689.239 79.9045 688.905 78.8483 688.189 77.9814C687.484 77.1276 686.474 76.5364 685.255 76.1515L684.653 78.0586C685.624 78.3655 686.257 78.7831 686.647 79.2551C687.026 79.714 687.239 80.3007 687.239 81.0825H689.239ZM685.316 76.1731C683.063 75.2968 679.333 74.8373 674.255 74.7219L674.209 76.7213C679.276 76.8365 682.694 77.2993 684.591 78.0371L685.316 76.1731ZM674.277 74.7226C669.182 74.491 662.19 74.3757 653.307 74.3757V76.3757C662.178 76.3757 669.136 76.491 674.186 76.7206L674.277 74.7226ZM653.307 74.3757C644.917 74.3757 637.401 74.0309 630.756 73.3434L630.55 75.3328C637.278 76.0288 644.865 76.3757 653.307 76.3757V74.3757ZM630.775 73.3456C624.251 72.5444 618.733 71.3464 614.208 69.7627L613.548 71.6504C618.246 73.2947 623.911 74.5178 630.531 75.3307L630.775 73.3456ZM614.229 69.7702C609.739 68.0864 606.389 65.8129 604.107 62.9879L602.551 64.2446C605.112 67.4147 608.794 69.868 613.527 71.6429L614.229 69.7702ZM604.107 62.9879C601.853 60.1971 600.698 56.6832 600.698 52.3756H598.698C598.698 57.0606 599.963 61.0404 602.551 64.2446L604.107 62.9879ZM600.698 52.3756C600.698 47.0794 602.398 42.7241 605.777 39.2367L604.34 37.8451C600.571 41.7362 598.698 46.6041 598.698 52.3756H600.698ZM605.787 39.2256C609.226 35.5655 613.915 32.703 619.906 30.6682L619.263 28.7745C613.034 30.8901 608.039 33.9073 604.33 37.8563L605.787 39.2256ZM619.922 30.6627C625.946 28.5031 632.902 26.961 640.798 26.0455L640.568 24.0588C632.554 24.9879 625.444 26.5586 619.247 28.78L619.922 30.6627ZM640.796 26.0457C648.826 25.128 657.204 24.6687 665.931 24.6687V22.6687C657.134 22.6687 648.68 23.1317 640.569 24.0586L640.796 26.0457ZM665.931 24.6687C680.399 24.6687 692.159 26.1628 701.246 29.116L701.864 27.2139C692.505 24.1721 680.516 22.6687 665.931 22.6687V24.6687ZM701.257 29.1194C710.381 31.9707 716.995 35.815 721.212 40.5866L722.711 39.2622C718.166 34.119 711.176 30.1236 701.854 27.2105L701.257 29.1194ZM721.212 40.5866C725.439 45.3693 727.471 50.7217 727.36 56.6804L729.36 56.7175C729.48 50.225 727.246 44.3943 722.711 39.2622L721.212 40.5866ZM728.36 55.6989H691.179V57.6989H728.36V55.6989ZM692.1 56.3093C690.701 53.0016 688.026 50.7485 684.223 49.5216L683.609 51.425C686.954 52.5039 689.121 54.4013 690.258 57.0886L692.1 56.3093ZM684.232 49.5247C680.605 48.3156 674.465 47.744 665.931 47.744V49.744C674.46 49.744 680.31 50.3253 683.6 51.422L684.232 49.5247ZM665.931 47.744C657.842 47.744 651.822 48.3754 647.967 49.7006L648.617 51.592C652.14 50.3808 657.879 49.744 665.931 49.744V47.744ZM647.985 49.6946C646.103 50.3016 644.591 51.1363 643.542 52.253C642.472 53.3928 641.931 54.7774 641.931 56.3531H643.931C643.931 55.2771 644.284 54.3848 645 53.6223C645.738 52.8367 646.907 52.1439 648.599 51.598L647.985 49.6946ZM641.931 56.3531C641.931 57.393 642.194 58.3503 642.742 59.1907C643.286 60.0246 644.076 60.6911 645.054 61.2129L645.995 59.4482C645.245 59.0477 644.738 58.5901 644.417 58.0982C644.1 57.6127 643.931 57.0424 643.931 56.3531H641.931ZM645.124 61.2467C647.145 62.1309 650.706 62.7119 655.658 63.0574L655.798 61.0623C650.835 60.7161 647.594 60.1442 645.926 59.4144L645.124 61.2467ZM655.66 63.0575C660.767 63.4058 668.173 63.5787 677.863 63.5787V61.5787C668.186 61.5787 660.834 61.4057 655.796 61.0622L655.66 63.0575ZM677.863 63.5787C684.527 63.5787 691.017 63.8085 697.332 64.2678L697.477 62.273C691.111 61.81 684.573 61.5787 677.863 61.5787V63.5787ZM697.334 64.2679C703.733 64.725 709.425 65.6949 714.415 67.1693L714.982 65.2513C709.826 63.7281 703.989 62.7381 697.476 62.2729L697.334 64.2679ZM714.421 67.171C719.482 68.6331 723.407 70.8626 726.256 73.8212L727.697 72.434C724.551 69.167 720.291 66.785 714.976 65.2496L714.421 67.171ZM726.256 73.8212C729.032 76.7034 730.473 80.6959 730.473 85.9247H732.473C732.473 80.3163 730.917 75.7774 727.697 72.434L726.256 73.8212ZM730.473 85.9247C730.473 92.1712 727.919 97.2439 722.737 101.214L723.953 102.801C729.607 98.4703 732.473 92.8211 732.473 85.9247H730.473ZM722.739 101.212C717.606 105.118 710.222 108.015 700.506 109.844L700.876 111.81C710.758 109.95 718.477 106.968 723.95 102.803L722.739 101.212ZM700.506 109.844C690.784 111.674 679.262 112.594 665.931 112.594V114.594C679.347 114.594 690.998 113.669 700.876 111.81L700.506 109.844ZM665.931 112.594C654.325 112.594 644.533 111.847 636.542 110.363L636.177 112.329C644.326 113.843 654.249 114.594 665.931 114.594V112.594ZM636.545 110.363C628.641 108.874 622.217 106.935 617.249 104.564L616.387 106.369C621.564 108.839 628.168 110.82 636.174 112.329L636.545 110.363ZM617.265 104.572C612.255 102.067 608.442 99.4188 605.78 96.6457L604.337 98.0308C607.209 101.022 611.235 103.793 616.371 106.361L617.265 104.572ZM605.807 96.6757C603.22 93.7502 601.519 90.9288 600.65 88.2139L598.745 88.8234C599.721 91.873 601.594 94.9313 604.31 98.0008L605.807 96.6757ZM600.663 88.2587C599.878 85.3409 599.613 82.8151 599.828 80.6632L597.838 80.4642C597.592 82.9239 597.904 85.7014 598.732 88.7786L600.663 88.2587Z" fill="url(#paint0_linear_106_13)"/>
<defs>
<linearGradient id="paint0_linear_106_13" x1="334.875" y1="-223.5" x2="394.801" y2="122.751" gradientUnits="userSpaceOnUse">
<stop/>
<stop offset="1" stop-opacity="0"/>
</linearGradient>
</defs>
</svg>
