<svg width="422" height="47" viewBox="0 0 422 47" fill="none" xmlns="http://www.w3.org/2000/svg">
<path d="M12.3125 45V46H13.3125V45H12.3125ZM0.71875 45H-0.28125V46H0.71875V45ZM0.71875 2.0625V1.0625H-0.28125V2.0625H0.71875ZM37.7188 3.03125L37.4331 3.98958L37.4356 3.99032L37.7188 3.03125ZM43.0312 5.78125L42.3719 6.53313L42.3776 6.53807L43.0312 5.78125ZM46 10.0938L45.0585 10.4308L45.061 10.4379L45.0637 10.4449L46 10.0938ZM46.1562 20.4375L45.2228 20.0785L45.2182 20.0911L46.1562 20.4375ZM44.0938 23.9375L43.3481 23.2712L43.3472 23.2721L44.0938 23.9375ZM37.4688 28.0312L37.1432 27.0857L35.7764 27.5563L36.6988 28.6693L37.4688 28.0312ZM51.5312 45V46H53.6587L52.3012 44.3619L51.5312 45ZM37.9688 45L37.1963 45.6351L37.4963 46H37.9688V45ZM24.9688 29.1875L25.7412 28.5524L25.4412 28.1875H24.9688V29.1875ZM12.3125 29.1875V28.1875H11.3125V29.1875H12.3125ZM34.875 13.5L33.9333 13.8363L33.9385 13.8511L33.9442 13.8657L34.875 13.5ZM33.75 12.0938L33.1808 12.9159L33.1917 12.9235L33.2028 12.9307L33.75 12.0938ZM31.5625 11.2812L31.3796 12.2644L31.3836 12.2651L31.5625 11.2812ZM12.3125 11.0312V10.0312H11.3125V11.0312H12.3125ZM12.3125 20.2188H11.3125V21.2188H12.3125V20.2188ZM31.5625 19.9688L31.3836 18.9849L31.3796 18.9856L31.5625 19.9688ZM33.75 19.1875L34.2972 20.0245L34.3083 20.0172L34.3192 20.0097L33.75 19.1875ZM34.875 17.75L33.9442 17.3843L33.9385 17.3989L33.9333 17.4137L34.875 17.75ZM12.3125 44H0.71875V46H12.3125V44ZM1.71875 45V2.0625H-0.28125V45H1.71875ZM0.71875 3.0625H29.7812V1.0625H0.71875V3.0625ZM29.7812 3.0625C32.8436 3.0625 35.3869 3.37966 37.4331 3.98958L38.0044 2.07292C35.7172 1.39117 32.9689 1.0625 29.7812 1.0625V3.0625ZM37.4356 3.99032C39.52 4.60572 41.1516 5.46299 42.3719 6.53311L43.6906 5.02939C42.2025 3.72451 40.2925 2.74845 38.0019 2.07218L37.4356 3.99032ZM42.3776 6.53807C43.6239 7.61444 44.5133 8.90803 45.0585 10.4308L46.9415 9.75668C46.2783 7.90447 45.1886 6.32306 43.6849 5.02443L42.3776 6.53807ZM45.0637 10.4449C45.6405 11.983 45.9375 13.7262 45.9375 15.6875H47.9375C47.9375 13.5238 47.6095 11.5379 46.9363 9.74263L45.0637 10.4449ZM45.9375 15.6875C45.9375 17.4067 45.6902 18.8635 45.2229 20.0785L47.0896 20.7965C47.6639 19.3032 47.9375 17.5933 47.9375 15.6875H45.9375ZM45.2182 20.0911C44.7573 21.3392 44.1315 22.3945 43.3481 23.2712L44.8394 24.6038C45.806 23.5222 46.5552 22.2441 47.0943 20.7839L45.2182 20.0911ZM43.3472 23.2721C42.5656 24.1491 41.6485 24.8953 40.5909 25.5107L41.5966 27.2393C42.8307 26.5214 43.9136 25.6425 44.8403 24.6029L43.3472 23.2721ZM40.5909 25.5107C39.5021 26.1441 38.3533 26.6691 37.1432 27.0857L37.7943 28.9768C39.1259 28.5184 40.3937 27.9392 41.5966 27.2393L40.5909 25.5107ZM36.6988 28.6693L50.7613 45.6381L52.3012 44.3619L38.2387 27.3932L36.6988 28.6693ZM51.5312 44H37.9688V46H51.5312V44ZM38.7412 44.3649L25.7412 28.5524L24.1963 29.8226L37.1963 45.6351L38.7412 44.3649ZM24.9688 28.1875H12.3125V30.1875H24.9688V28.1875ZM11.3125 29.1875V45H13.3125V29.1875H11.3125ZM36.2188 15.625C36.2188 14.7054 36.093 13.8656 35.8058 13.1343L33.9442 13.8657C34.1153 14.3011 34.2188 14.8779 34.2188 15.625H36.2188ZM35.8167 13.1637C35.5316 12.3652 35.0127 11.7246 34.2972 11.2568L33.2028 12.9307C33.5706 13.1712 33.8017 13.4681 33.9333 13.8363L35.8167 13.1637ZM34.3192 11.2716C33.6224 10.7892 32.7442 10.4797 31.7414 10.2974L31.3836 12.2651C32.2141 12.4161 32.7942 12.6483 33.1808 12.9159L34.3192 11.2716ZM31.7454 10.2981C30.7678 10.1162 29.5765 10.0312 28.1875 10.0312V12.0312C29.5068 12.0312 30.5655 12.1129 31.3796 12.2644L31.7454 10.2981ZM28.1875 10.0312H12.3125V12.0312H28.1875V10.0312ZM11.3125 11.0312V20.2188H13.3125V11.0312H11.3125ZM12.3125 21.2188H28.1875V19.2188H12.3125V21.2188ZM28.1875 21.2188C29.5765 21.2188 30.7678 21.1338 31.7454 20.9519L31.3796 18.9856C30.5655 19.1371 29.5068 19.2188 28.1875 19.2188V21.2188ZM31.7414 20.9526C32.7363 20.7717 33.6061 20.4764 34.2972 20.0245L33.2028 18.3505C32.8106 18.607 32.2221 18.8324 31.3836 18.9849L31.7414 20.9526ZM34.3192 20.0097C35.0212 19.5237 35.5335 18.8795 35.8167 18.0863L33.9333 17.4137C33.7998 17.7872 33.5621 18.1013 33.1808 18.3653L34.3192 20.0097ZM35.8058 18.1157C36.093 17.3844 36.2188 16.5446 36.2188 15.625H34.2188C34.2188 16.3721 34.1153 16.9489 33.9442 17.3843L35.8058 18.1157ZM59.8438 45H58.8438V46H59.8438V45ZM59.8438 2.0625V1.0625H58.8438V2.0625H59.8438ZM103.312 2.0625H104.312V1.0625H103.312V2.0625ZM103.312 11.2188V12.2188H104.312V11.2188H103.312ZM71.75 11.2188V10.2188H70.75V11.2188H71.75ZM71.75 18.3125H70.75V19.3125H71.75V18.3125ZM101.688 18.3125H102.688V17.3125H101.688V18.3125ZM101.688 27.4688V28.4688H102.688V27.4688H101.688ZM71.75 27.4688V26.4688H70.75V27.4688H71.75ZM71.75 35.8438H70.75V36.8438H71.75V35.8438ZM103.75 35.8438H104.75V34.8438H103.75V35.8438ZM103.75 45V46H104.75V45H103.75ZM60.8438 45V2.0625H58.8438V45H60.8438ZM59.8438 3.0625H103.312V1.0625H59.8438V3.0625ZM102.312 2.0625V11.2188H104.312V2.0625H102.312ZM103.312 10.2188H71.75V12.2188H103.312V10.2188ZM70.75 11.2188V18.3125H72.75V11.2188H70.75ZM71.75 19.3125H101.688V17.3125H71.75V19.3125ZM100.688 18.3125V27.4688H102.688V18.3125H100.688ZM101.688 26.4688H71.75V28.4688H101.688V26.4688ZM70.75 27.4688V35.8438H72.75V27.4688H70.75ZM71.75 36.8438H103.75V34.8438H71.75V36.8438ZM102.75 35.8438V45H104.75V35.8438H102.75ZM103.75 44H59.8438V46H103.75V44ZM156.688 2.0625L157.626 1.71721L157.385 1.0625H156.688V2.0625ZM167.656 31.875L166.718 32.2203L167.619 34.6704L168.585 32.245L167.656 31.875ZM179.531 2.0625V1.0625H178.853L178.602 1.69245L179.531 2.0625ZM191.562 2.0625L192.49 2.43529L193.042 1.0625H191.562V2.0625ZM174.312 45V46H174.988L175.24 45.3728L174.312 45ZM161.438 45L160.505 45.3622L160.753 46H161.438V45ZM150.219 16.125L151.151 15.7628L150.217 13.3604L149.286 15.7637L150.219 16.125ZM139.031 45V46H139.716L139.964 45.3613L139.031 45ZM126.156 45L125.229 45.3734L125.481 46H126.156V45ZM108.875 2.0625V1.0625H107.395L107.947 2.43587L108.875 2.0625ZM120.938 2.0625L121.867 1.69248L121.616 1.0625H120.938V2.0625ZM132.562 31.25L131.633 31.62L132.579 33.9942L133.496 31.6088L132.562 31.25ZM143.781 2.0625V1.0625H143.094L142.848 1.70372L143.781 2.0625ZM155.749 2.40779L166.718 32.2203L168.595 31.5297L157.626 1.71721L155.749 2.40779ZM168.585 32.245L180.46 2.43255L178.602 1.69245L166.727 31.505L168.585 32.245ZM179.531 3.0625H191.562V1.0625H179.531V3.0625ZM190.635 1.68971L173.385 44.6272L175.24 45.3728L192.49 2.43529L190.635 1.68971ZM174.312 44H161.438V46H174.312V44ZM162.37 44.6378L151.151 15.7628L149.287 16.4872L160.505 45.3622L162.37 44.6378ZM149.286 15.7637L138.099 44.6387L139.964 45.3613L151.151 16.4863L149.286 15.7637ZM139.031 44H126.156V46H139.031V44ZM127.084 44.6266L109.803 1.68913L107.947 2.43587L125.229 45.3734L127.084 44.6266ZM108.875 3.0625H120.938V1.0625H108.875V3.0625ZM120.008 2.43252L131.633 31.62L133.492 30.88L121.867 1.69248L120.008 2.43252ZM133.496 31.6088L144.715 2.42128L142.848 1.70372L131.629 30.8912L133.496 31.6088ZM143.781 3.0625H156.688V1.0625H143.781V3.0625ZM232.219 36.875L233.115 36.4305L232.839 35.875H232.219V36.875ZM208.281 36.875V35.875H207.661L207.385 36.4305L208.281 36.875ZM204.25 45V46H204.87L205.146 45.4445L204.25 45ZM191.312 45L190.426 44.5364L189.661 46H191.312V45ZM213.781 2.0625V1.0625H213.176L212.895 1.59885L213.781 2.0625ZM226.719 2.0625L227.605 1.59885L227.324 1.0625H226.719V2.0625ZM249.188 45V46H250.839L250.074 44.5364L249.188 45ZM236.25 45L235.354 45.4445L235.63 46H236.25V45ZM212.438 28.5L211.542 28.0542L210.822 29.5H212.438V28.5ZM228.125 28.5V29.5H229.734L229.022 28.057L228.125 28.5ZM220.312 12.6875L221.209 12.2445L220.316 10.4372L219.417 12.2417L220.312 12.6875ZM232.219 35.875H208.281V37.875H232.219V35.875ZM207.385 36.4305L203.354 44.5555L205.146 45.4445L209.177 37.3195L207.385 36.4305ZM204.25 44H191.312V46H204.25V44ZM192.199 45.4636L214.667 2.52615L212.895 1.59885L190.426 44.5364L192.199 45.4636ZM213.781 3.0625H226.719V1.0625H213.781V3.0625ZM225.833 2.52615L248.301 45.4636L250.074 44.5364L227.605 1.59885L225.833 2.52615ZM249.188 44H236.25V46H249.188V44ZM237.146 44.5555L233.115 36.4305L231.323 37.3195L235.354 45.4445L237.146 44.5555ZM212.438 29.5H228.125V27.5H212.438V29.5ZM229.022 28.057L221.209 12.2445L219.416 13.1305L227.228 28.943L229.022 28.057ZM219.417 12.2417L211.542 28.0542L213.333 28.9458L221.208 13.1333L219.417 12.2417ZM267.812 45V46H268.812V45H267.812ZM256.219 45H255.219V46H256.219V45ZM256.219 2.0625V1.0625H255.219V2.0625H256.219ZM293.219 3.03125L292.933 3.98958L292.936 3.99032L293.219 3.03125ZM298.531 5.78125L297.872 6.53313L297.878 6.53807L298.531 5.78125ZM301.5 10.0938L300.559 10.4308L300.561 10.4379L300.564 10.4449L301.5 10.0938ZM301.656 20.4375L300.723 20.0785L300.718 20.0911L301.656 20.4375ZM299.594 23.9375L298.848 23.2712L298.847 23.2721L299.594 23.9375ZM292.969 28.0312L292.643 27.0857L291.276 27.5563L292.199 28.6693L292.969 28.0312ZM307.031 45V46H309.159L307.801 44.3619L307.031 45ZM293.469 45L292.696 45.6351L292.996 46H293.469V45ZM280.469 29.1875L281.241 28.5524L280.941 28.1875H280.469V29.1875ZM267.812 29.1875V28.1875H266.812V29.1875H267.812ZM290.375 13.5L289.433 13.8363L289.439 13.8511L289.444 13.8657L290.375 13.5ZM289.25 12.0938L288.681 12.9159L288.692 12.9235L288.703 12.9307L289.25 12.0938ZM287.062 11.2812L286.88 12.2644L286.884 12.2651L287.062 11.2812ZM267.812 11.0312V10.0312H266.812V11.0312H267.812ZM267.812 20.2188H266.812V21.2188H267.812V20.2188ZM287.062 19.9688L286.884 18.9849L286.88 18.9856L287.062 19.9688ZM289.25 19.1875L289.797 20.0245L289.808 20.0172L289.819 20.0097L289.25 19.1875ZM290.375 17.75L289.444 17.3843L289.439 17.3989L289.433 17.4137L290.375 17.75ZM267.812 44H256.219V46H267.812V44ZM257.219 45V2.0625H255.219V45H257.219ZM256.219 3.0625H285.281V1.0625H256.219V3.0625ZM285.281 3.0625C288.344 3.0625 290.887 3.37966 292.933 3.98958L293.504 2.07292C291.217 1.39117 288.469 1.0625 285.281 1.0625V3.0625ZM292.936 3.99032C295.02 4.60572 296.652 5.46299 297.872 6.53311L299.191 5.02939C297.703 3.72451 295.793 2.74845 293.502 2.07218L292.936 3.99032ZM297.878 6.53807C299.124 7.61444 300.013 8.90803 300.559 10.4308L302.441 9.75668C301.778 7.90447 300.689 6.32306 299.185 5.02443L297.878 6.53807ZM300.564 10.4449C301.14 11.983 301.438 13.7262 301.438 15.6875H303.438C303.438 13.5238 303.11 11.5379 302.436 9.74263L300.564 10.4449ZM301.438 15.6875C301.438 17.4067 301.19 18.8635 300.723 20.0785L302.59 20.7965C303.164 19.3032 303.438 17.5933 303.438 15.6875H301.438ZM300.718 20.0911C300.257 21.3392 299.632 22.3945 298.848 23.2712L300.339 24.6038C301.306 23.5222 302.055 22.2441 302.594 20.7839L300.718 20.0911ZM298.847 23.2721C298.066 24.1491 297.148 24.8953 296.091 25.5107L297.097 27.2393C298.331 26.5214 299.414 25.6425 300.34 24.6029L298.847 23.2721ZM296.091 25.5107C295.002 26.1441 293.853 26.6691 292.643 27.0857L293.294 28.9768C294.626 28.5184 295.894 27.9392 297.097 27.2393L296.091 25.5107ZM292.199 28.6693L306.261 45.6381L307.801 44.3619L293.739 27.3932L292.199 28.6693ZM307.031 44H293.469V46H307.031V44ZM294.241 44.3649L281.241 28.5524L279.696 29.8226L292.696 45.6351L294.241 44.3649ZM280.469 28.1875H267.812V30.1875H280.469V28.1875ZM266.812 29.1875V45H268.812V29.1875H266.812ZM291.719 15.625C291.719 14.7054 291.593 13.8656 291.306 13.1343L289.444 13.8657C289.615 14.3011 289.719 14.8779 289.719 15.625H291.719ZM291.317 13.1637C291.032 12.3652 290.513 11.7246 289.797 11.2568L288.703 12.9307C289.071 13.1712 289.302 13.4681 289.433 13.8363L291.317 13.1637ZM289.819 11.2716C289.122 10.7892 288.244 10.4797 287.241 10.2974L286.884 12.2651C287.714 12.4161 288.294 12.6483 288.681 12.9159L289.819 11.2716ZM287.245 10.2981C286.268 10.1162 285.077 10.0312 283.688 10.0312V12.0312C285.007 12.0312 286.065 12.1129 286.88 12.2644L287.245 10.2981ZM283.688 10.0312H267.812V12.0312H283.688V10.0312ZM266.812 11.0312V20.2188H268.812V11.0312H266.812ZM267.812 21.2188H283.688V19.2188H267.812V21.2188ZM283.688 21.2188C285.077 21.2188 286.268 21.1338 287.245 20.9519L286.88 18.9856C286.065 19.1371 285.007 19.2188 283.688 19.2188V21.2188ZM287.241 20.9526C288.236 20.7717 289.106 20.4764 289.797 20.0245L288.703 18.3505C288.311 18.607 287.722 18.8324 286.884 18.9849L287.241 20.9526ZM289.819 20.0097C290.521 19.5237 291.033 18.8795 291.317 18.0863L289.433 17.4137C289.3 17.7872 289.062 18.1013 288.681 18.3653L289.819 20.0097ZM291.306 18.1157C291.593 17.3844 291.719 16.5446 291.719 15.625H289.719C289.719 16.3721 289.615 16.9489 289.444 17.3843L291.306 18.1157ZM367.031 30.8438L367.993 31.1172L367.994 31.1148L367.031 30.8438ZM364.469 36.4062L363.648 35.8342L363.643 35.8416L364.469 36.4062ZM360.531 40.4375L359.949 39.6245L359.944 39.6283L360.531 40.4375ZM355.438 43.0938L355.102 42.1515L355.438 43.0938ZM349.375 44.5625L349.508 45.5536L349.518 45.5523L349.375 44.5625ZM315.344 45H314.344V46H315.344V45ZM315.344 2.0625V1.0625H314.344V2.0625H315.344ZM349.312 2.53125L349.17 3.52105L349.179 3.52231L349.312 2.53125ZM355.375 3.96875L355.04 4.91097L355.043 4.91212L355.375 3.96875ZM360.531 6.625L359.949 7.43802L359.956 7.44319L360.531 6.625ZM364.469 10.6562L363.64 11.2159L363.644 11.2221L363.648 11.2283L364.469 10.6562ZM355.438 18.125L354.491 18.449L354.495 18.4605L355.438 18.125ZM352.875 14.375L352.224 15.1343L352.231 15.1405L352.239 15.1465L352.875 14.375ZM348.281 12.1562L348.026 13.1232L348.036 13.1258L348.281 12.1562ZM326.938 11.4062V10.4062H325.938V11.4062H326.938ZM326.938 35.6562H325.938V36.6562H326.938V35.6562ZM348.281 34.9375L348.526 35.9071L348.536 35.9044L348.281 34.9375ZM352.875 32.6875L353.526 33.4468L353.527 33.4458L352.875 32.6875ZM355.438 28.875L354.495 28.5395L354.491 28.551L355.438 28.875ZM366.938 23.5C366.938 26.1788 366.643 28.5328 366.069 30.5727L367.994 31.1148C368.628 28.863 368.938 26.3212 368.938 23.5H366.938ZM366.069 30.5703C365.491 32.6038 364.681 34.354 363.648 35.8342L365.289 36.9783C366.465 35.2919 367.363 33.3337 367.993 31.1172L366.069 30.5703ZM363.643 35.8416C362.625 37.3297 361.395 38.5891 359.949 39.6245L361.114 41.2505C362.751 40.0776 364.146 38.6494 365.294 36.9709L363.643 35.8416ZM359.944 39.6283C358.505 40.6731 356.893 41.515 355.102 42.1515L355.773 44.036C357.732 43.3391 359.516 42.4103 361.119 41.2467L359.944 39.6283ZM355.102 42.1515C353.296 42.794 351.34 43.2688 349.232 43.5727L349.518 45.5523C351.743 45.2312 353.829 44.7269 355.773 44.036L355.102 42.1515ZM349.242 43.5714C347.122 43.8567 344.907 44 342.594 44V46C344.989 46 347.294 45.8516 349.508 45.5536L349.242 43.5714ZM342.594 44H315.344V46H342.594V44ZM316.344 45V2.0625H314.344V45H316.344ZM315.344 3.0625H342.531V1.0625H315.344V3.0625ZM342.531 3.0625C344.841 3.0625 347.054 3.21582 349.17 3.52101L349.455 1.54149C347.238 1.22168 344.93 1.0625 342.531 1.0625V3.0625ZM349.179 3.52231C351.284 3.80562 353.236 4.26967 355.04 4.91096L355.71 3.02654C353.764 2.33449 351.675 1.84021 349.446 1.54019L349.179 3.52231ZM355.043 4.91212C356.855 5.54928 358.489 6.39212 359.949 7.43799L361.114 5.81201C359.49 4.64955 357.686 3.72156 355.707 3.02538L355.043 4.91212ZM359.956 7.44319C361.396 8.45459 362.623 9.70984 363.64 11.2159L365.297 10.0966C364.148 8.39432 362.75 6.96207 361.106 5.80681L359.956 7.44319ZM363.648 11.2283C364.681 12.7085 365.491 14.4587 366.069 16.4922L367.993 15.9453C367.363 13.7288 366.465 11.7706 365.289 10.0842L363.648 11.2283ZM366.069 16.4922C366.643 18.5103 366.938 20.8425 366.938 23.5H368.938C368.938 20.6991 368.628 18.1772 367.993 15.9453L366.069 16.4922ZM357.25 23.5C357.25 21.3534 356.969 19.4432 356.38 17.7895L354.495 18.4605C354.99 19.8485 355.25 21.5216 355.25 23.5H357.25ZM356.384 17.801C355.806 16.1134 354.848 14.7056 353.511 13.6035L352.239 15.1465C353.277 16.0027 354.028 17.095 354.491 18.449L356.384 17.801ZM353.526 13.6157C352.214 12.4917 350.532 11.6937 348.526 11.1867L348.036 13.1258C349.822 13.5771 351.202 14.2583 352.224 15.1343L353.526 13.6157ZM348.536 11.1893C346.532 10.6607 344.128 10.4062 341.344 10.4062V12.4062C344.018 12.4062 346.239 12.6518 348.026 13.1232L348.536 11.1893ZM341.344 10.4062H326.938V12.4062H341.344V10.4062ZM325.938 11.4062V35.6562H327.938V11.4062H325.938ZM326.938 36.6562H341.344V34.6562H326.938V36.6562ZM341.344 36.6562C344.126 36.6562 346.526 36.4126 348.526 35.907L348.036 33.968C346.245 34.4207 344.02 34.6562 341.344 34.6562V36.6562ZM348.536 35.9044C350.539 35.3762 352.217 34.5682 353.526 33.4468L352.224 31.9282C351.199 32.8068 349.815 33.4988 348.026 33.9706L348.536 35.9044ZM353.527 33.4458C354.853 32.3058 355.807 30.8835 356.384 29.199L354.491 28.551C354.027 29.9082 353.272 31.0276 352.223 31.9292L353.527 33.4458ZM356.38 29.2105C356.969 27.5568 357.25 25.6466 357.25 23.5H355.25C355.25 25.4784 354.99 27.1515 354.495 28.5395L356.38 29.2105ZM418.094 14.1562L417.656 15.0552L419.094 15.7558V14.1562H418.094ZM410.344 11.4062L410.082 12.3714L410.093 12.3742L410.344 11.4062ZM404.844 10.2812L404.688 11.2691L404.698 11.2706L404.844 10.2812ZM394.469 9.96875L394.381 8.97257L394.38 8.97271L394.469 9.96875ZM391.5 10.375L391.299 9.39538L391.294 9.39645L391.5 10.375ZM389.594 10.9688L390.008 11.8791L390.016 11.8751L390.025 11.8709L389.594 10.9688ZM388.031 12.3125L387.091 11.9708L387.077 12.0096L387.066 12.0494L388.031 12.3125ZM388.875 14.5938L388.267 15.3874L388.275 15.3938L388.284 15.4002L388.875 14.5938ZM391.438 15.8438L391.11 16.7887L391.119 16.7916L391.127 16.7942L391.438 15.8438ZM395.219 16.875L394.993 17.8492L395.006 17.8522L395.219 16.875ZM399.781 17.875L399.566 18.8515L399.573 18.8531L399.58 18.8546L399.781 17.875ZM404.781 19L404.544 19.9715L404.551 19.9732L404.558 19.9748L404.781 19ZM409.781 20.4062L409.461 21.3537L409.465 21.3549L409.781 20.4062ZM414.375 22.3125L413.923 23.2044L413.933 23.2095L414.375 22.3125ZM420.562 37.7188L419.666 37.2766L420.562 37.7188ZM417.625 41.4688L416.986 40.6994L416.98 40.7049L417.625 41.4688ZM413.406 43.9375L413.759 44.8734L413.769 44.8693L413.406 43.9375ZM408.344 45.3438L408.159 44.361L408.157 44.3614L408.344 45.3438ZM403 46L402.943 45.0016L402.942 45.0017L403 46ZM386.062 45.0938L386.254 44.1123L386.25 44.1115L386.062 45.0938ZM376.5 42.5H375.5V43.1924L376.148 43.436L376.5 42.5ZM376.5 32.25L376.985 31.3755L375.5 30.5517V32.25H376.5ZM386.25 35.9688L386.011 36.9399L386.013 36.9402L386.25 35.9688ZM404 36.9375L404.16 37.9247L404.171 37.9228L404 36.9375ZM407.656 35.9375L408.068 36.8486L408.077 36.8446L408.086 36.8404L407.656 35.9375ZM408.969 31.4375L408.329 32.2057L408.336 32.2121L408.344 32.2184L408.969 31.4375ZM406.406 30.0938L406.063 31.033L406.071 31.0359L406.079 31.0387L406.406 30.0938ZM402.625 29.0312L402.399 30.0055L402.413 30.0084L402.625 29.0312ZM398.031 28.0625L397.828 29.0416L397.835 29.0431L397.842 29.0445L398.031 28.0625ZM388.062 25.6875L387.754 26.6386L387.761 26.641L387.768 26.6433L388.062 25.6875ZM383.5 23.9062L383.069 24.8084L383.079 24.8134L383.5 23.9062ZM379.719 21.5L379.064 22.2562L379.073 22.2634L379.719 21.5ZM377.156 18.2812L376.265 18.7345L376.268 18.7407L377.156 18.2812ZM379.906 5.625L380.555 6.38624L380.556 6.38523L379.906 5.625ZM383.844 3.25L383.47 2.3224L383.466 2.32425L383.844 3.25ZM403.5 1.21875L403.405 2.21425L403.406 2.21435L403.5 1.21875ZM408.719 1.9375L408.539 2.92125L408.55 2.92324L408.719 1.9375ZM413.656 2.96875L413.414 3.9389L413.417 3.93963L413.656 2.96875ZM418.094 4.21875H419.094V3.49093L418.401 3.26718L418.094 4.21875ZM418.532 13.2573C417.68 12.8421 416.574 12.3817 415.226 11.8762L414.524 13.7488C415.842 14.2433 416.883 14.6787 417.656 15.0552L418.532 13.2573ZM415.226 11.8762C413.854 11.3615 412.309 10.8827 410.595 10.4383L410.093 12.3742C411.754 12.8048 413.23 13.2635 414.524 13.7488L415.226 11.8762ZM410.606 10.4412C408.875 9.97114 407.002 9.58858 404.99 9.29193L404.698 11.2706C406.643 11.5573 408.437 11.9247 410.082 12.3713L410.606 10.4412ZM405 9.29349C402.967 8.97253 400.883 8.8125 398.75 8.8125V10.8125C400.783 10.8125 402.762 10.965 404.688 11.269L405 9.29349ZM398.75 8.8125C397.065 8.8125 395.607 8.86508 394.381 8.97258L394.556 10.9649C395.706 10.8641 397.102 10.8125 398.75 10.8125V8.8125ZM394.38 8.97271C393.19 9.07899 392.16 9.21876 391.299 9.3954L391.701 11.3546C392.465 11.1979 393.415 11.0668 394.558 10.9648L394.38 8.97271ZM391.294 9.39645C390.46 9.57194 389.74 9.79019 389.162 10.0666L390.025 11.8709C390.406 11.689 390.956 11.5114 391.706 11.3535L391.294 9.39645ZM389.18 10.0584C388.668 10.2913 388.211 10.562 387.856 10.8878L389.207 12.3622C389.352 12.2297 389.603 12.0629 390.008 11.8791L389.18 10.0584ZM387.856 10.8878C387.531 11.1856 387.247 11.5431 387.091 11.9708L388.971 12.6542C388.982 12.6236 389.032 12.5228 389.207 12.3622L387.856 10.8878ZM387.066 12.0494C386.987 12.3426 386.938 12.6412 386.938 12.9375H388.938C388.938 12.8588 388.951 12.7407 388.996 12.5756L387.066 12.0494ZM386.938 12.9375C386.938 13.953 387.465 14.7732 388.267 15.3874L389.483 13.8001C389.035 13.456 388.938 13.172 388.938 12.9375H386.938ZM388.284 15.4002C389.018 15.9386 389.973 16.3951 391.11 16.7887L391.765 14.8988C390.735 14.5424 389.982 14.1655 389.466 13.7873L388.284 15.4002ZM391.127 16.7942C392.245 17.1597 393.535 17.511 394.993 17.8492L395.445 15.9008C394.028 15.5723 392.797 15.2361 391.748 14.8933L391.127 16.7942ZM395.006 17.8522C396.443 18.1644 397.962 18.4975 399.566 18.8515L399.997 16.8985C398.392 16.5441 396.87 16.2106 395.431 15.8978L395.006 17.8522ZM399.58 18.8546C401.193 19.1853 402.847 19.5576 404.544 19.9715L405.018 18.0285C403.299 17.6091 401.62 17.2313 399.982 16.8954L399.58 18.8546ZM404.558 19.9748C406.256 20.3635 407.89 20.8233 409.461 21.3537L410.101 19.4588C408.464 18.9059 406.765 18.4282 405.004 18.0252L404.558 19.9748ZM409.465 21.3549C411.046 21.882 412.532 22.4988 413.923 23.2043L414.827 21.4207C413.343 20.6679 411.766 20.0138 410.097 19.4576L409.465 21.3549ZM413.933 23.2095C415.299 23.8827 416.484 24.6681 417.494 25.5615L418.819 24.0635C417.662 23.0403 416.326 22.1589 414.817 21.4155L413.933 23.2095ZM417.494 25.5615C418.485 26.438 419.259 27.4407 419.824 28.5722L421.613 27.6778C420.929 26.3093 419.995 25.1036 418.819 24.0635L417.494 25.5615ZM419.824 28.5722C420.37 29.6641 420.656 30.9343 420.656 32.4062H422.656C422.656 30.6699 422.317 29.0859 421.613 27.6778L419.824 28.5722ZM420.656 32.4062C420.656 34.3529 420.312 35.9651 419.666 37.2766L421.459 38.1609C422.271 36.5141 422.656 34.5846 422.656 32.4062H420.656ZM419.666 37.2766C418.996 38.634 418.104 39.7713 416.986 40.6995L418.264 42.238C419.605 41.1246 420.67 39.7619 421.459 38.1609L419.666 37.2766ZM416.98 40.7049C415.863 41.6485 414.554 42.4172 413.043 43.0057L413.769 44.8693C415.467 44.2078 416.971 43.3306 418.27 42.2326L416.98 40.7049ZM413.054 43.0017C411.507 43.5844 409.875 44.0379 408.159 44.361L408.529 46.3265C410.354 45.983 412.098 45.499 413.759 44.8733L413.054 43.0017ZM408.157 44.3614C406.45 44.6864 404.712 44.8999 402.943 45.0016L403.057 46.9984C404.913 46.8917 406.737 46.6677 408.531 46.3261L408.157 44.3614ZM402.942 45.0017C401.168 45.1048 399.479 45.1562 397.875 45.1562V47.1562C399.521 47.1562 401.249 47.1035 403.058 46.9983L402.942 45.0017ZM397.875 45.1562C393.68 45.1562 389.807 44.8066 386.254 44.1123L385.871 46.0752C389.568 46.7975 393.57 47.1562 397.875 47.1562V45.1562ZM386.25 44.1115C382.689 43.4322 379.558 42.5815 376.852 41.564L376.148 43.436C378.983 44.5019 382.228 45.3803 385.875 46.076L386.25 44.1115ZM377.5 42.5V32.25H375.5V42.5H377.5ZM376.015 33.1245C378.957 34.7567 382.292 36.026 386.011 36.9399L386.489 34.9976C382.916 34.1199 379.751 32.91 376.985 31.3755L376.015 33.1245ZM386.013 36.9402C389.765 37.8568 393.762 38.3125 398 38.3125V36.3125C393.905 36.3125 390.069 35.8723 386.487 34.9973L386.013 36.9402ZM398 38.3125C400.485 38.3125 402.544 38.1866 404.16 37.9246L403.84 35.9504C402.372 36.1884 400.431 36.3125 398 36.3125V38.3125ZM404.171 37.9228C405.77 37.6456 407.083 37.2945 408.068 36.8486L407.244 35.0264C406.48 35.3722 405.355 35.6877 403.829 35.9522L404.171 37.9228ZM408.086 36.8404C409.025 36.3932 409.814 35.8464 410.275 35.14L408.6 34.0475C408.436 34.2995 408.037 34.6485 407.226 35.0346L408.086 36.8404ZM410.275 35.14C410.661 34.5476 410.906 33.9016 410.906 33.2188H408.906C408.906 33.4109 408.839 33.6816 408.6 34.0475L410.275 35.14ZM410.906 33.2188C410.906 32.1756 410.412 31.3114 409.593 30.6566L408.344 32.2184C408.776 32.5636 408.906 32.8869 408.906 33.2188H410.906ZM409.609 30.6693C408.862 30.0465 407.888 29.5484 406.733 29.1488L406.079 31.0387C407.091 31.3891 407.826 31.7869 408.329 32.2057L409.609 30.6693ZM406.749 29.1545C405.614 28.7395 404.308 28.3737 402.837 28.0541L402.413 30.0084C403.817 30.3138 405.032 30.6563 406.063 31.033L406.749 29.1545ZM402.851 28.0571C401.4 27.7206 399.856 27.3951 398.22 27.0805L397.842 29.0445C399.456 29.3549 400.975 29.6752 402.399 30.0054L402.851 28.0571ZM398.235 27.0834C396.634 26.7509 394.982 26.3975 393.277 26.0233L392.848 27.9767C394.56 28.3525 396.22 28.7074 397.828 29.0416L398.235 27.0834ZM393.277 26.0233C391.595 25.654 389.955 25.2234 388.357 24.7317L387.768 26.6433C389.42 27.1516 391.114 27.596 392.848 27.9767L393.277 26.0233ZM388.371 24.7364C386.803 24.2271 385.32 23.6478 383.921 22.9991L383.079 24.8134C384.555 25.498 386.114 26.1062 387.754 26.6386L388.371 24.7364ZM383.931 23.0041C382.562 22.3491 381.375 21.5918 380.365 20.7366L379.073 22.2634C380.229 23.2416 381.563 24.0884 383.069 24.8084L383.931 23.0041ZM380.373 20.7438C379.381 19.885 378.608 18.9114 378.044 17.8218L376.268 18.7407C376.954 20.0678 377.89 21.24 379.064 22.2562L380.373 20.7438ZM378.048 17.828C377.505 16.7605 377.219 15.5036 377.219 14.0312H375.219C375.219 15.7672 375.558 17.3436 376.265 18.7345L378.048 17.828ZM377.219 14.0312C377.219 12.251 377.532 10.7716 378.119 9.56127L376.319 8.68873C375.572 10.2284 375.219 12.0198 375.219 14.0312H377.219ZM378.119 9.56127C378.727 8.30649 379.539 7.25174 380.555 6.38624L379.258 4.86376C378.024 5.91492 377.044 7.19351 376.319 8.68873L378.119 9.56127ZM380.556 6.38523C381.616 5.47943 382.836 4.74202 384.222 4.17575L383.466 2.32425C381.894 2.96632 380.488 3.81224 379.257 4.86477L380.556 6.38523ZM384.217 4.17759C385.659 3.59709 387.173 3.14553 388.761 2.82385L388.364 0.863649C386.661 1.20864 385.029 1.69458 383.47 2.32241L384.217 4.17759ZM388.761 2.82385C390.365 2.49891 391.99 2.27544 393.636 2.15352L393.489 0.158982C391.76 0.287059 390.051 0.52192 388.364 0.863649L388.761 2.82385ZM393.636 2.15352C395.302 2.03014 396.881 1.96875 398.375 1.96875V-0.03125C396.827 -0.03125 395.198 0.032361 393.489 0.158982L393.636 2.15352ZM398.375 1.96875C400.008 1.96875 401.685 2.05042 403.405 2.21425L403.595 0.223255C401.815 0.0537491 400.075 -0.03125 398.375 -0.03125V1.96875ZM403.406 2.21435C405.149 2.37836 406.86 2.61403 408.539 2.92118L408.899 0.953823C407.161 0.635974 405.393 0.392472 403.594 0.22315L403.406 2.21435ZM408.55 2.92324C410.235 3.21091 411.856 3.54956 413.414 3.93889L413.899 1.99861C412.289 1.59628 410.619 1.24743 408.887 0.951764L408.55 2.92324ZM413.417 3.93963C415.002 4.3307 416.458 4.74109 417.786 5.17032L418.401 3.26718C417.021 2.82141 415.519 2.39847 413.896 1.99787L413.417 3.93963ZM417.094 4.21875V14.1562H419.094V4.21875H417.094Z" fill="url(#paint0_linear_106_14)"/>
<defs>
<linearGradient id="paint0_linear_106_14" x1="207.675" y1="-93.25" x2="232.239" y2="81.6105" gradientUnits="userSpaceOnUse">
<stop/>
<stop offset="1" stop-color="white" stop-opacity="0"/>
</linearGradient>
</defs>
</svg>
