<svg width="27" height="30" viewBox="0 0 27 30" fill="none" xmlns="http://www.w3.org/2000/svg">
<path d="M25.1666 9.16667L16.4166 1.49583C15.6144 0.778401 14.576 0.381767 13.4999 0.381767C12.4237 0.381767 11.3853 0.778401 10.5832 1.49583L1.83323 9.16667C1.37001 9.58094 1.00037 10.0891 0.748916 10.6574C0.497458 11.2257 0.369954 11.8411 0.374894 12.4625V25.2083C0.374894 26.3687 0.83583 27.4815 1.6563 28.3019C2.47677 29.1224 3.58957 29.5833 4.74989 29.5833H22.2499C23.4102 29.5833 24.523 29.1224 25.3435 28.3019C26.164 27.4815 26.6249 26.3687 26.6249 25.2083V12.4479C26.6278 11.8289 26.4993 11.2164 26.2479 10.6508C25.9965 10.0852 25.6279 9.57931 25.1666 9.16667ZM16.4166 26.6667H10.5832V19.375C10.5832 18.9882 10.7369 18.6173 11.0104 18.3438C11.2839 18.0703 11.6548 17.9167 12.0416 17.9167H14.9582C15.345 17.9167 15.7159 18.0703 15.9894 18.3438C16.2629 18.6173 16.4166 18.9882 16.4166 19.375V26.6667ZM23.7082 25.2083C23.7082 25.5951 23.5546 25.966 23.2811 26.2395C23.0076 26.513 22.6367 26.6667 22.2499 26.6667H19.3332V19.375C19.3332 18.2147 18.8723 17.1019 18.0518 16.2814C17.2313 15.4609 16.1185 15 14.9582 15H12.0416C10.8812 15 9.76844 15.4609 8.94797 16.2814C8.1275 17.1019 7.66656 18.2147 7.66656 19.375V26.6667H4.74989C4.36312 26.6667 3.99219 26.513 3.7187 26.2395C3.44521 25.966 3.29156 25.5951 3.29156 25.2083V12.4479C3.29182 12.2409 3.33618 12.0362 3.42167 11.8476C3.50716 11.659 3.63184 11.4908 3.78739 11.3542L12.5374 3.69792C12.8035 3.46412 13.1457 3.33518 13.4999 3.33518C13.8541 3.33518 14.1963 3.46412 14.4624 3.69792L23.2124 11.3542C23.368 11.4908 23.4926 11.659 23.5781 11.8476C23.6636 12.0362 23.708 12.2409 23.7082 12.4479V25.2083Z" fill="#4181FF"/>
</svg>
